<svg width="50" height="50" viewBox="0 0 50 50" fill="none" xmlns="http://www.w3.org/2000/svg">
<path d="M25 12.4997C25.5757 12.4997 26.0417 12.0338 26.0417 11.458V9.37471C26.0417 8.79893 25.5757 8.33301 25 8.33301C24.4242 8.33301 23.9583 8.79893 23.9583 9.37471V11.458C23.9583 12.0338 24.4242 12.4997 25 12.4997Z" fill="#3ED5FF"/>
<path d="M16.0064 11.5058C15.7176 11.0063 15.0797 10.8344 14.5833 11.1244C14.0849 11.4123 13.914 12.0491 14.2019 12.5475L15.2436 14.3512C15.4368 14.6858 15.7868 14.872 16.1469 14.872C16.3239 14.872 16.5029 14.8272 16.6667 14.7326C17.1651 14.4447 17.336 13.8079 17.0481 13.3095L16.0064 11.5058Z" fill="#3ED5FF"/>
<path d="M10.1847 19.4102L8.3811 18.3685C7.88061 18.0797 7.24585 18.2505 6.95796 18.75C6.67007 19.2484 6.84097 19.8852 7.3394 20.1731L9.14301 21.2148C9.30678 21.3094 9.48579 21.3542 9.66284 21.3542C10.023 21.3542 10.3729 21.168 10.5662 20.8334C10.854 20.3349 10.6832 19.6981 10.1847 19.4102Z" fill="#3ED5FF"/>
<path d="M42.6605 38.1602L40.8569 37.1185C40.3574 36.8296 39.7207 37.0005 39.4338 37.5C39.1459 37.9984 39.3168 38.6352 39.8152 38.9231L41.6188 39.9648C41.7826 40.0594 41.9616 40.1042 42.1387 40.1042C42.4988 40.1042 42.8487 39.918 43.042 39.5834C43.3299 39.0849 43.159 38.4481 42.6605 38.1602Z" fill="#3ED5FF"/>
<path d="M8.3332 29.1667C8.3332 28.5909 7.86729 28.125 7.2915 28.125H5.2082C4.63242 28.125 4.1665 28.5909 4.1665 29.1667C4.1665 29.7425 4.63242 30.2084 5.2082 30.2084H7.2915C7.86738 30.2083 8.3332 29.7425 8.3332 29.1667Z" fill="#3ED5FF"/>
<path d="M45.8332 29.1667C45.8332 28.5909 45.3673 28.125 44.7915 28.125H42.7082C42.1324 28.125 41.6665 28.5909 41.6665 29.1667C41.6665 29.7425 42.1324 30.2084 42.7082 30.2084H44.7915C45.3674 30.2083 45.8332 29.7425 45.8332 29.1667Z" fill="#3ED5FF"/>
<path d="M9.14301 37.1181L7.3394 38.1597C6.84097 38.4476 6.67007 39.0844 6.95796 39.5828C7.15122 39.9175 7.50122 40.1036 7.86128 40.1036C8.03833 40.1036 8.21733 40.0589 8.3811 39.9643L10.1847 38.9226C10.6832 38.6347 10.854 37.9979 10.5662 37.4994C10.2773 37 9.63745 36.8291 9.14301 37.1181Z" fill="#3ED5FF"/>
<path d="M40.3371 21.3537C40.5142 21.3537 40.6932 21.309 40.8569 21.2144L42.6605 20.1727C43.159 19.8848 43.3299 19.248 43.042 18.7495C42.752 18.25 42.1143 18.0791 41.6188 18.3681L39.8152 19.4098C39.3168 19.6977 39.1459 20.3345 39.4338 20.8329C39.627 21.1675 39.977 21.3537 40.3371 21.3537Z" fill="#3ED5FF"/>
<path d="M35.4167 11.1244C34.9183 10.8344 34.2805 11.0064 33.9935 11.5058L32.9519 13.3094C32.664 13.8079 32.8349 14.4447 33.3333 14.7326C33.4971 14.8272 33.6761 14.8719 33.8531 14.8719C34.2133 14.8719 34.5632 14.6858 34.7564 14.3511L35.7981 12.5475C36.086 12.049 35.9151 11.4123 35.4167 11.1244Z" fill="#3ED5FF"/>
<path d="M25 4.1665C11.2152 4.1665 0 15.3817 0 29.1665C0 33.3413 1.05186 37.4765 3.04258 41.1243C3.31826 41.6289 3.95 41.8141 4.45654 41.5394C4.96113 41.2637 5.14727 40.631 4.87158 40.1254C3.04766 36.7837 2.0833 32.9935 2.0833 29.1665C2.0833 16.5302 12.3637 6.2498 25 6.2498C37.6363 6.2498 47.9167 16.5302 47.9167 29.1665C47.9167 32.9935 46.9523 36.7837 45.1284 40.1254C44.8527 40.631 45.0389 41.2637 45.5435 41.5394C45.7021 41.6258 45.873 41.6665 46.0419 41.6665C46.4111 41.6665 46.7683 41.4702 46.9574 41.1243C48.9481 37.4764 50 33.3413 50 29.1665C50 15.3816 38.7848 4.1665 25 4.1665Z" fill="#3ED5FF"/>
<path d="M26.0376 17.6166C25.9908 17.0795 25.5401 16.6665 25 16.6665C24.4598 16.6665 24.0091 17.0795 23.9624 17.6166L22.114 38.6758C21.2952 39.4611 20.8333 40.5271 20.8333 41.6665C20.8333 43.9645 22.7019 45.8332 25 45.8332C27.298 45.8332 29.1667 43.9646 29.1667 41.6665C29.1667 40.5271 28.7048 39.4611 27.8859 38.6758L26.0376 17.6166ZM25 43.7498C23.8515 43.7498 22.9167 42.8149 22.9167 41.6665C22.9167 41.0205 23.2198 40.4193 23.7467 40.0165C23.9796 39.8385 24.1272 39.5709 24.1526 39.28L25 29.6242L25.8473 39.28C25.8727 39.5709 26.0203 39.8385 26.2532 40.0165C26.7801 40.4193 27.0833 41.0205 27.0833 41.6665C27.0833 42.8149 26.1484 43.7498 25 43.7498Z" fill="#3ED5FF"/>
</svg>
