<svg width="23" height="19" viewBox="0 0 23 19" fill="none" xmlns="http://www.w3.org/2000/svg">
<path d="M14.9119 10.9858C14.9119 12.9286 13.3313 14.5092 11.3884 14.5092C9.44554 14.5092 7.86561 12.9286 7.86561 10.9858C7.86561 9.04285 9.44554 7.46232 11.3884 7.46232C13.3313 7.46232 14.9119 9.04346 14.9119 10.9858ZM22.312 5.98265V15.9901C22.312 17.3242 21.2304 18.4058 19.8962 18.4058H2.88063C1.54651 18.4058 0.464844 17.3242 0.464844 15.9901V5.98265C0.464844 4.64853 1.54651 3.56687 2.88063 3.56687H5.85205V2.731C5.85205 1.56357 6.79783 0.617188 7.96587 0.617188H14.811C15.979 0.617188 16.9248 1.56357 16.9248 2.731V3.56626H19.8962C21.2304 3.56687 22.312 4.64853 22.312 5.98265ZM16.7237 10.9858C16.7237 8.04392 14.3303 5.65048 11.3884 5.65048C8.44721 5.65048 6.05377 8.04392 6.05377 10.9858C6.05377 13.9276 8.44721 16.321 11.3884 16.321C14.3303 16.321 16.7237 13.9276 16.7237 10.9858Z" fill="#442B82"/>
</svg>
