<svg width="30" height="30" viewBox="0 0 30 30" fill="none" xmlns="http://www.w3.org/2000/svg">
<path d="M19.6411 0H26.5308C28.4437 0 30 1.55631 30 3.46922V10.3589C30 12.2718 28.4437 13.8281 26.5308 13.8281H19.6411C17.7282 13.8281 16.1719 12.2718 16.1719 10.3589V3.46922C16.1719 1.55631 17.7282 0 19.6411 0ZM18.5156 10.3589C18.5156 10.9795 19.0205 11.4844 19.6411 11.4844H26.5308C27.1513 11.4844 27.6562 10.9795 27.6562 10.3589V3.46922C27.6562 2.84865 27.1513 2.34375 26.5308 2.34375H19.6411C19.0205 2.34375 18.5156 2.84865 18.5156 3.46922V10.3589Z" fill="#797979"/>
<path d="M3.51562 0H10.3125C12.251 0 13.8281 1.57711 13.8281 3.51562V10.3125C13.8281 12.251 12.251 13.8281 10.3125 13.8281H3.51562C1.57711 13.8281 0 12.251 0 10.3125V3.51562C0 1.57711 1.57711 0 3.51562 0ZM2.34375 10.3125C2.34375 10.9587 2.86945 11.4844 3.51562 11.4844H10.3125C10.9587 11.4844 11.4844 10.9587 11.4844 10.3125V3.51562C11.4844 2.86945 10.9587 2.34375 10.3125 2.34375H3.51562C2.86945 2.34375 2.34375 2.86945 2.34375 3.51562V10.3125Z" fill="#797979"/>
<path d="M19.6411 16.1719H26.5308C28.4437 16.1719 30 17.7282 30 19.6411V26.5308C30 28.4437 28.4437 30 26.5308 30H19.6411C17.7282 30 16.1719 28.4437 16.1719 26.5308V19.6411C16.1719 17.7282 17.7282 16.1719 19.6411 16.1719ZM18.5156 26.5308C18.5156 27.1513 19.0205 27.6562 19.6411 27.6562H26.5308C27.1513 27.6562 27.6562 27.1513 27.6562 26.5308V19.6411C27.6562 19.0205 27.1513 18.5156 26.5308 18.5156H19.6411C19.0205 18.5156 18.5156 19.0205 18.5156 19.6411V26.5308Z" fill="#797979"/>
<path d="M3.51562 16.1719H10.3125C12.251 16.1719 13.8281 17.749 13.8281 19.6875V26.4844C13.8281 28.4229 12.251 30 10.3125 30H3.51562C1.57711 30 0 28.4229 0 26.4844V19.6875C0 17.749 1.57711 16.1719 3.51562 16.1719ZM2.34375 26.4844C2.34375 27.1305 2.86945 27.6562 3.51562 27.6562H10.3125C10.9587 27.6562 11.4844 27.1305 11.4844 26.4844V19.6875C11.4844 19.0413 10.9587 18.5156 10.3125 18.5156H3.51562C2.86945 18.5156 2.34375 19.0413 2.34375 19.6875V26.4844Z" fill="#797979"/>
</svg>
