<svg width="24" height="24" viewBox="0 0 24 24" fill="none" xmlns="http://www.w3.org/2000/svg">
<path d="M10.1549 23.644C12.6869 23.6411 15.1145 22.6261 16.9049 20.8217C18.6953 19.0172 19.7024 16.5709 19.7053 14.019V13.302H10.8664V4.39404H10.1549C7.62196 4.39404 5.19278 5.4081 3.40173 7.21313C1.61069 9.01817 0.604492 11.4663 0.604492 14.019C0.604492 16.5718 1.61069 19.0199 3.40173 20.825C5.19278 22.63 7.62196 23.644 10.1549 23.644ZM9.44346 5.85901V14.736H18.2517C18.1162 16.2889 17.5437 17.7705 16.6017 19.007C15.6597 20.2434 14.3871 21.1833 12.9335 21.7162C11.4798 22.249 9.90548 22.3527 8.39537 22.0151C6.88527 21.6776 5.50215 20.9127 4.40839 19.8104C3.31463 18.7081 2.55567 17.3141 2.22071 15.7922C1.88575 14.2703 1.98868 12.6837 2.5174 11.2188C3.04612 9.75375 3.97872 8.47125 5.20557 7.52185C6.43242 6.57245 7.9026 5.99556 9.44346 5.85901Z" fill="white"/>
<path d="M23.9602 11.5369C23.9568 8.5065 22.7608 5.60129 20.6346 3.4585C18.5084 1.3157 15.6257 0.110374 12.6188 0.106934H11.7734V12.3879H23.9602V11.5369ZM13.4632 10.6849V1.84692C15.7212 2.05009 17.8365 3.04649 19.4394 4.66199C21.0424 6.27748 22.0311 8.40933 22.2327 10.6849H13.4632Z" fill="white"/>
</svg>
