<svg width="24" height="25" viewBox="0 0 24 25" fill="none" xmlns="http://www.w3.org/2000/svg">
<path d="M8.22656 7.25732H4.47656C4.08825 7.25732 3.77344 7.57214 3.77344 7.96045C3.77344 8.34876 4.08825 8.66357 4.47656 8.66357H8.22656C8.61487 8.66357 8.92969 8.34876 8.92969 7.96045C8.92969 7.57214 8.61487 7.25732 8.22656 7.25732Z" fill="white"/>
<path d="M8.22656 11.0073H4.47656C4.08825 11.0073 3.77344 11.3221 3.77344 11.7104C3.77344 12.0988 4.08825 12.4136 4.47656 12.4136H8.22656C8.61487 12.4136 8.92969 12.0988 8.92969 11.7104C8.92969 11.3221 8.61487 11.0073 8.22656 11.0073Z" fill="white"/>
<path d="M8.22656 14.7573H4.47656C4.08825 14.7573 3.77344 15.0721 3.77344 15.4604C3.77344 15.8488 4.08825 16.1636 4.47656 16.1636H8.22656C8.61487 16.1636 8.92969 15.8488 8.92969 15.4604C8.92969 15.0721 8.61487 14.7573 8.22656 14.7573Z" fill="white"/>
<path d="M18.3047 13.3477V6.92826C18.3047 6.00154 17.9474 5.12728 17.2985 4.46606L14.4456 1.51579C14.4443 1.51439 14.4428 1.51293 14.4415 1.51153C13.7846 0.843559 12.8706 0.460449 11.9339 0.460449H2.88281C1.7197 0.460449 0.773438 1.40671 0.773438 2.56982V20.8042C0.773438 21.9673 1.7197 22.9136 2.88281 22.9136H13.75C14.752 23.8714 16.1093 24.4604 17.6016 24.4604C20.7032 24.4604 23.2266 21.9581 23.2266 18.8823C23.2266 16.0426 21.0757 13.6919 18.3047 13.3477ZM2.17969 20.8042V2.56982C2.17969 2.18212 2.49511 1.8667 2.88281 1.8667H11.9339C12.4952 1.8667 13.0429 2.09596 13.437 2.49567L16.2894 5.44547C16.2907 5.44687 16.2921 5.44828 16.2934 5.44964C16.6836 5.84653 16.8984 6.37162 16.8984 6.92831V13.3484C14.1533 13.6952 12.0234 16.0447 12.0234 18.8824C12.0234 19.8308 12.2617 20.7246 12.681 21.5074H2.88281C2.49511 21.5073 2.17969 21.1919 2.17969 20.8042ZM17.6016 23.0542C15.3012 23.0542 13.4297 21.1827 13.4297 18.8823C13.4297 16.5819 15.3012 14.7104 17.6016 14.7104C19.9278 14.7104 21.8203 16.5819 21.8203 18.8823C21.8203 21.1827 19.9278 23.0542 17.6016 23.0542Z" fill="white"/>
<path d="M19.2237 17.2171C18.9255 16.9686 18.4821 17.0089 18.2334 17.3072L17.0467 18.7313L16.7775 18.1929C16.6038 17.8455 16.1815 17.7047 15.8341 17.8784C15.4868 18.052 15.346 18.4744 15.5197 18.8217L16.2697 20.3217C16.3758 20.534 16.5818 20.6784 16.8175 20.7057C16.8447 20.7088 16.8717 20.7104 16.8987 20.7104C17.1059 20.7104 17.3043 20.6187 17.4388 20.4574L19.3138 18.2074C19.5623 17.909 19.522 17.4657 19.2237 17.2171Z" fill="white"/>
<path d="M11.9766 8.66357H12.7266C13.1149 8.66357 13.4297 8.34876 13.4297 7.96045C13.4297 7.57214 13.1149 7.25732 12.7266 7.25732H11.9766C11.5882 7.25732 11.2734 7.57214 11.2734 7.96045C11.2734 8.34876 11.5882 8.66357 11.9766 8.66357Z" fill="white"/>
<path d="M13.4297 11.7104C13.4297 11.3221 13.1149 11.0073 12.7266 11.0073H11.9766C11.5882 11.0073 11.2734 11.3221 11.2734 11.7104C11.2734 12.0988 11.5882 12.4136 11.9766 12.4136H12.7266C13.1149 12.4136 13.4297 12.0988 13.4297 11.7104Z" fill="white"/>
</svg>
