<svg width="30" height="24" viewBox="0 0 30 24" fill="none" xmlns="http://www.w3.org/2000/svg">
<path d="M28.506 22.8933H8.44517C7.61837 22.8933 6.94824 22.2232 6.94824 21.3963C6.94824 20.5695 7.61837 19.8994 8.44517 19.8994H28.5056C29.3324 19.8994 30.0025 20.5695 30.0025 21.3963C30.0025 22.2232 29.3329 22.8933 28.506 22.8933Z" fill="#797979"/>
<path d="M28.506 13.4973H8.44517C7.61837 13.4973 6.94824 12.8272 6.94824 12.0003C6.94824 11.1735 7.61837 10.5034 8.44517 10.5034H28.5056C29.3324 10.5034 30.0025 11.1735 30.0025 12.0003C30.003 12.8272 29.3329 13.4973 28.506 13.4973Z" fill="#797979"/>
<path d="M28.506 4.10128H8.44517C7.61837 4.10128 6.94824 3.43116 6.94824 2.60435C6.94824 1.77755 7.61837 1.10742 8.44517 1.10742H28.5056C29.3324 1.10742 30.0025 1.77755 30.0025 2.60435C30.0025 3.43116 29.3329 4.10128 28.506 4.10128Z" fill="#797979"/>
<path d="M2.01038 4.73023C3.12068 4.73023 4.02076 3.83015 4.02076 2.71985C4.02076 1.60955 3.12068 0.709473 2.01038 0.709473C0.900077 0.709473 0 1.60955 0 2.71985C0 3.83015 0.900077 4.73023 2.01038 4.73023Z" fill="#797979"/>
<path d="M2.01038 14.0105C3.12068 14.0105 4.02076 13.1104 4.02076 12.0001C4.02076 10.8898 3.12068 9.98975 2.01038 9.98975C0.900077 9.98975 0 10.8898 0 12.0001C0 13.1104 0.900077 14.0105 2.01038 14.0105Z" fill="#797979"/>
<path d="M2.01038 23.2913C3.12068 23.2913 4.02076 22.3912 4.02076 21.2809C4.02076 20.1706 3.12068 19.2705 2.01038 19.2705C0.900077 19.2705 0 20.1706 0 21.2809C0 22.3912 0.900077 23.2913 2.01038 23.2913Z" fill="#797979"/>
</svg>
