<svg width="50" height="50" viewBox="0 0 50 50" fill="none" xmlns="http://www.w3.org/2000/svg">
<path d="M29.3623 27.5571V6.55944C29.3623 2.93671 26.4256 0 22.8029 0C19.1802 0 16.2435 2.93671 16.2435 6.55944V27.5478C10.5739 31.165 8.91003 38.6936 12.5273 44.3632C14.7596 47.8619 18.62 49.9829 22.7703 49.9907L22.8355 50C29.5608 49.9874 35.0024 44.5253 34.9899 37.8001C34.982 33.6499 32.8611 29.7894 29.3623 27.5571ZM17.6794 46.7587C12.7425 43.9085 11.0512 37.5958 13.9014 32.6591C14.8073 31.09 16.1103 29.7871 17.6794 28.8811C17.969 28.7139 18.1469 28.4043 18.1456 28.0699V6.55944C18.1456 3.96667 20.2474 1.8648 22.8402 1.8648C25.433 1.8648 27.5348 3.96667 27.5348 6.55944V28.0699C27.5336 28.4043 27.7114 28.7139 28.001 28.8811C32.9379 31.7314 34.6292 38.0441 31.779 42.9808C28.9288 47.9176 22.6161 49.6091 17.6794 46.7587Z" fill="#FF3E3E"/>
<path d="M23.7681 31.1189V16.9744C23.7681 16.4595 23.3506 16.042 22.8357 16.042C22.3208 16.042 21.9033 16.4595 21.9033 16.9744V31.1189C18.381 31.624 15.9351 34.8888 16.4402 38.4111C16.8962 41.5903 19.6239 43.9483 22.8357 43.9394C26.394 43.9492 29.2865 41.0726 29.2964 37.5144C29.3053 34.3026 26.9473 31.5749 23.7681 31.1189ZM22.8357 42.0653C20.3072 42.0653 18.2576 40.0156 18.2576 37.4872C18.2627 34.961 20.3093 32.9142 22.8357 32.9091C25.3641 32.9091 27.4138 34.9588 27.4138 37.4872C27.4138 40.0156 25.364 42.0653 22.8357 42.0653Z" fill="#FF3E3E"/>
<path d="M38.4533 6.41016H32.6258C32.1108 6.41016 31.6934 6.82764 31.6934 7.34256C31.6934 7.85748 32.1108 8.27496 32.6258 8.27496H38.4533C38.9682 8.27496 39.3857 7.85748 39.3857 7.34256C39.3857 6.82764 38.9682 6.41016 38.4533 6.41016Z" fill="#FF3E3E"/>
<path d="M37.2132 11.0723H33.7913C33.2764 11.0723 32.8589 11.4897 32.8589 12.0047C32.8589 12.5196 33.2764 12.9371 33.7913 12.9371H37.2132C37.7281 12.9371 38.1456 12.5196 38.1456 12.0047C38.1456 11.4897 37.7281 11.0723 37.2132 11.0723Z" fill="#FF3E3E"/>
<path d="M38.4533 15.7344H32.6258C32.1108 15.7344 31.6934 16.1519 31.6934 16.6668C31.6934 17.1817 32.1108 17.5992 32.6258 17.5992H38.4533C38.9682 17.5992 39.3857 17.1817 39.3857 16.6668C39.3857 16.1519 38.9682 15.7344 38.4533 15.7344Z" fill="#FF3E3E"/>
<path d="M37.2132 20.3965H33.7913C33.2764 20.3965 32.8589 20.814 32.8589 21.3289C32.8589 21.8438 33.2764 22.2613 33.7913 22.2613H37.2132C37.7281 22.2613 38.1456 21.8438 38.1456 21.3289C38.1456 20.814 37.7281 20.3965 37.2132 20.3965Z" fill="#FF3E3E"/>
<path d="M38.4533 25.0581H32.6258C32.1108 25.0581 31.6934 25.4756 31.6934 25.9905C31.6934 26.5054 32.1108 26.9229 32.6258 26.9229H38.4533C38.9682 26.9229 39.3857 26.5054 39.3857 25.9905C39.3857 25.4756 38.9682 25.0581 38.4533 25.0581Z" fill="#FF3E3E"/>
</svg>
