<svg width="336" height="336" viewBox="0 0 336 336" fill="none" xmlns="http://www.w3.org/2000/svg">
<path d="M294.337 287.719C287.507 294.9 281.046 299.531 275.941 303.19C215.931 346.199 144.923 333.663 129.832 330.601C107.547 326.08 64.4708 317.34 33.3272 280.756C-13.7902 225.409 -6.45364 138.21 30.0939 80.6503C36.7795 70.122 72.0921 11.6847 143.865 2.31352C187.3 -3.3582 237.933 8.08087 274.599 38.7656C351.566 103.177 346.086 233.298 294.337 287.719Z" fill="url(#paint0_linear)"/>
<path d="M6.22821 114.178C5.90033 114.027 5.67177 113.699 5.67058 113.322C5.66579 112.079 5.68733 110.814 5.734 109.564C5.75314 109.05 6.19231 108.656 6.71404 108.685C7.98008 108.746 7.54929 109.982 7.56125 113.347C7.56365 113.861 7.14124 114.272 6.61831 114.265C6.4807 114.264 6.34787 114.233 6.22821 114.178Z" fill="#91B3FA"/>
<path d="M6.93682 97.9285C7.3365 95.5726 7.83669 93.2047 8.42304 90.8906C8.54869 90.3933 9.06204 90.0981 9.56942 90.2308C10.9491 90.6001 9.98106 91.3233 8.80357 98.2656C8.71741 98.7712 8.23038 99.1059 7.71464 99.0127C7.19171 98.9171 6.85186 98.427 6.93682 97.9285ZM12.0093 79.7802C12.8913 77.5486 13.8785 75.311 14.9112 73.206C15.464 72.0741 17.1501 72.955 16.6176 74.038C15.5897 76.1369 14.6372 78.2956 13.7744 80.4807C13.5865 80.9576 13.0385 81.1859 12.5514 80.9922C12.0584 80.7974 11.8227 80.2524 12.0093 79.7802ZM20.7125 63.0794C22.0311 61.0904 23.4468 59.1289 24.9234 57.2499C25.6845 56.2817 27.185 57.4399 26.4288 58.4045C24.9832 60.2465 23.5951 62.1686 22.3028 64.1169C21.6231 65.1401 20.0352 64.1002 20.7125 63.0794ZM32.7446 49.8521C32.3724 49.4852 32.3688 48.8947 32.7362 48.5361C34.4462 46.8615 36.2471 45.2335 38.0899 43.6975C39.0377 42.9074 40.275 44.337 39.3285 45.1271C37.5227 46.6332 35.7577 48.2277 34.0824 49.8677C33.7151 50.2263 33.1155 50.2203 32.7446 49.8521ZM47.3076 38.0568C47.018 37.6241 47.1365 37.048 47.5721 36.7707C49.6004 35.4798 51.7064 34.2522 53.8304 33.1226C54.9242 32.5441 55.8456 34.1829 54.7519 34.765C52.6697 35.8718 50.6067 37.0743 48.6191 38.3389C48.1847 38.6174 47.5972 38.4907 47.3076 38.0568ZM64.5367 29.9718C64.3213 29.8726 64.143 29.6957 64.0473 29.4626C63.8522 28.9821 64.0868 28.4442 64.5714 28.2601C66.8319 27.4043 69.1521 26.6261 71.4712 25.9484C71.9702 25.8026 72.5003 26.0835 72.6583 26.5771C72.815 27.0708 72.5386 27.5884 72.0396 27.7342C69.7684 28.3988 67.4936 29.1614 65.2786 30.0005C65.0297 30.0925 64.7629 30.0758 64.5367 29.9718ZM82.8057 25.1045C82.5305 24.9778 82.3199 24.7256 82.2624 24.4112C82.1703 23.9032 82.5125 23.4251 83.0259 23.3426C85.4191 22.9589 87.8603 22.6649 90.2811 22.4665C90.8004 22.4234 91.2647 22.8047 91.3161 23.3175C91.3688 23.8291 90.9895 24.2797 90.4689 24.3216C88.0972 24.5152 85.7063 24.8045 83.3609 25.1798C83.1659 25.2133 82.9732 25.1822 82.8057 25.1045ZM101.206 23.1346C101.221 22.6207 101.656 22.2238 102.178 22.2465C104.607 22.3541 107.067 22.5585 109.489 22.8537C110.736 23.0091 110.529 24.8523 109.288 24.7017C106.915 24.4124 104.505 24.2116 102.125 24.1064C101.605 24.0837 101.192 23.6498 101.206 23.1346ZM160.303 47.5655C154.951 42.8488 153.673 42.8285 154.532 41.7133C154.844 41.3069 155.436 41.234 155.855 41.5471C157.805 43.0138 159.72 44.5749 161.55 46.1873C162.491 47.0145 161.246 48.3951 160.303 47.5655ZM120.083 25.7081C120.204 25.2097 120.714 24.9097 121.222 25.0376C123.587 25.6316 125.961 26.3249 128.279 27.0983C129.471 27.4963 128.889 29.2582 127.7 28.8602C125.427 28.1023 123.101 27.4234 120.784 26.8401C120.27 26.7122 119.964 26.2018 120.083 25.7081ZM144.953 36.5806C138.767 33.0354 137.499 33.2661 138.107 31.9931C138.492 31.1862 139.478 31.5675 139.365 31.5639C141.576 32.6158 143.769 33.7645 145.884 34.9754C146.338 35.2359 146.499 35.8073 146.242 36.2495C145.996 36.6727 145.437 36.8496 144.953 36.5806Z" fill="#91B3FA"/>
<path d="M171.014 58.7128C169.009 56.2445 167.718 55.3648 168.683 54.546C169.075 54.2137 169.673 54.2579 170.019 54.6524C172.196 57.1219 173.305 58.1235 172.346 58.8718C172.058 59.0965 171.344 59.1156 171.014 58.7128Z" fill="#91B3FA"/>
<path d="M191.494 128.11C191.127 127.94 190.892 127.552 190.944 127.138C191.096 125.924 191.224 124.694 191.324 123.479C191.367 122.968 191.823 122.593 192.345 122.645C192.864 122.697 193.253 123.152 193.211 123.663C193.108 124.902 192.977 126.158 192.822 127.397C192.759 127.907 192.286 128.262 191.768 128.19C191.67 128.176 191.578 128.148 191.494 128.11Z" fill="#91B3FA"/>
<path d="M58.5621 197.002C56.2023 195.837 53.8629 194.56 51.6096 193.207C51.1597 192.937 51.0113 192.363 51.2782 191.926C52.0297 190.694 52.4796 191.931 59.3854 195.34C59.8556 195.572 60.0519 196.132 59.8245 196.591C59.4272 197.394 58.4484 196.999 58.5621 197.002ZM69.8427 200.741C70.2998 199.375 71.0501 200.496 78.4752 202.356C78.985 202.482 79.2985 202.991 79.1776 203.488C79.0568 203.987 78.547 204.287 78.0396 204.16C75.4992 203.524 72.9444 202.772 70.4482 201.925C69.9468 201.755 69.6812 201.224 69.8427 200.741ZM41.0577 185.866C39.0103 184.225 37.0048 182.477 35.0985 180.672C34.7192 180.312 34.7024 179.723 35.0614 179.355C36.0738 178.319 36.2341 179.62 42.2376 184.429C42.6457 184.756 42.7139 185.343 42.3884 185.74C42.0617 186.136 41.467 186.192 41.0577 185.866ZM90.3817 206.358C90.0227 206.193 89.7894 205.818 89.8289 205.41C89.8791 204.9 90.341 204.532 90.8604 204.59C93.4199 204.876 96.0166 205.056 98.5786 205.128C99.1028 205.142 99.5204 205.57 99.5144 206.084C99.5084 206.598 99.0812 207.004 98.5583 206.989C95.9424 206.916 93.2919 206.732 90.6797 206.441C90.5744 206.429 90.4738 206.4 90.3817 206.358ZM110.835 206.399C110.545 206.265 110.327 205.991 110.284 205.656C110.218 205.146 110.586 204.686 111.104 204.63C113.648 204.356 116.211 203.971 118.724 203.486C119.235 203.387 119.737 203.716 119.846 204.221C119.955 204.725 119.63 205.214 119.119 205.313C116.554 205.808 113.939 206.201 111.342 206.481C111.162 206.5 110.989 206.469 110.835 206.399ZM130.726 202.02C130.501 201.916 130.316 201.727 130.225 201.479C130.048 200.992 130.303 200.463 130.793 200.297C133.207 199.48 135.614 198.553 137.949 197.539C138.424 197.333 138.985 197.547 139.203 198.018C139.421 198.489 139.213 199.039 138.738 199.245C136.355 200.279 133.898 201.225 131.436 202.059C131.195 202.141 130.942 202.121 130.726 202.02ZM149.1 193.463C148.938 193.388 148.794 193.267 148.691 193.107C148.411 192.668 148.542 192.094 148.983 191.827C151.15 190.511 153.286 189.085 155.331 187.592C155.748 187.288 156.34 187.377 156.657 187.793C156.973 188.207 156.893 188.789 156.476 189.093C154.39 190.617 152.21 192.072 149.998 193.415C149.717 193.585 149.38 193.592 149.1 193.463ZM164.791 180.939C163.751 179.9 165.068 179.8 170.014 174.102C170.819 173.173 172.268 174.397 171.462 175.326C169.775 177.269 167.981 179.165 166.128 180.96C165.761 181.315 165.163 181.309 164.791 180.939ZM177.72 165.532C176.476 164.741 177.727 164.365 181.262 157.708C181.835 156.629 183.519 157.507 182.942 158.592C181.736 160.865 180.419 163.108 179.025 165.263C178.742 165.7 178.151 165.811 177.72 165.532ZM186.767 147.628C186.322 147.423 186.098 146.915 186.265 146.459C187.132 144.083 187.902 141.65 188.558 139.231C188.692 138.736 189.21 138.449 189.715 138.59C190.221 138.734 190.521 139.245 190.387 139.74C189.718 142.21 188.93 144.691 188.047 147.115C187.872 147.597 187.33 147.839 186.839 147.659C186.813 147.648 186.79 147.639 186.767 147.628Z" fill="#91B3FA"/>
<path d="M26.3715 171.201C24.3085 168.633 23.2495 167.586 24.2439 166.882C25.2777 166.149 25.7361 167.431 27.8481 170.061C28.1748 170.468 28.109 171.054 27.7021 171.368C27.2941 171.682 26.6982 171.607 26.3715 171.201Z" fill="#91B3FA"/>
<path d="M38.3623 148.481L51.907 147.77C55.6572 152.865 60.2499 157.424 65.5881 161.209C65.1956 174.178 64.2478 175.06 65.5988 175.618L80.7075 181.861C81.1491 182.043 81.6553 181.932 81.9664 181.584L90.8609 171.651C97.3108 172.737 103.776 172.748 110.024 171.784L119.128 181.854C119.447 182.207 119.955 182.325 120.393 182.149L135.377 176.125C135.815 175.949 136.086 175.517 136.053 175.049L135.094 161.705C140.208 158.102 144.76 153.66 148.513 148.473L162.065 149.38C162.54 149.412 162.978 149.143 163.157 148.713L169.239 133.95C169.417 133.518 169.295 133.019 168.935 132.705L158.686 123.779C159.678 117.449 159.578 111.085 158.487 104.919C168.144 96.1327 169.408 96.214 168.841 94.8944C162.324 80.4348 162.836 79.2789 161.352 79.3566L147.807 80.0678C144.057 74.9722 139.465 70.4133 134.126 66.629C134.519 53.6671 135.468 52.7778 134.116 52.2196C118.997 46.2741 118.703 45.1852 117.747 46.2538L108.852 56.1868C102.402 55.1002 95.937 55.0883 89.6894 56.0541C80.7027 46.5144 80.6728 45.1457 79.3218 45.6884C64.5996 51.9112 63.5586 51.347 63.6615 52.7885L64.62 66.1329C59.5068 69.7356 54.9548 74.1773 51.201 79.3661C38.2462 78.7649 37.1118 77.7776 36.5566 79.1259C30.8032 93.8389 29.67 94.1676 30.778 95.1334L41.0272 104.061C40.0352 110.39 40.1369 116.754 41.2258 122.921C31.6025 131.678 30.303 131.62 30.8726 132.946C37.3906 147.403 36.8797 148.559 38.3623 148.481Z" fill="#91B3FA"/>
<path d="M84.1222 111.539C85.3045 103.021 93.3255 97.1578 102.002 98.4703C110.678 99.7851 116.776 107.779 115.595 116.297C114.413 124.815 106.392 130.678 97.7148 129.365C89.0356 128.054 82.94 120.054 84.1222 111.539ZM97.9063 127.985L97.9146 127.988L97.9063 127.985ZM101.619 101.231C94.5772 100.166 87.9204 104.864 86.9355 111.964C85.9639 118.96 90.9718 125.53 98.0989 126.605C105.225 127.682 111.812 122.868 112.784 115.873C113.754 108.866 108.732 102.305 101.619 101.231Z" fill="#BDD0FB"/>
<path d="M83.4268 150.005C81.2873 149.02 79.2326 147.859 77.3037 146.541C76.7233 146.145 76.5258 145.407 76.8035 144.804C76.837 144.732 76.8765 144.662 76.9231 144.595C77.3623 143.964 78.2466 143.813 78.894 144.254C81.1125 145.77 83.5106 147.063 86.0187 148.1C104.914 155.908 126.406 147.65 134.698 129.68C134.91 129.221 135.112 128.756 135.307 128.283C143.154 109.234 133.654 87.4243 114.311 79.4253C94.9923 71.4431 72.8594 80.2465 65.0238 99.2423C60.3665 110.551 63.169 118.56 62.6341 119.72C62.0562 120.974 60.1583 120.689 59.9381 119.321C58.7367 111.849 59.6808 103.949 63.0458 96.6545C77.5669 65.1809 123.777 66.4682 137.628 98.7009C141.891 108.621 142.002 119.512 137.941 129.372C137.731 129.883 137.511 130.387 137.281 130.886C133.072 140.013 125.614 147.084 116.126 150.9C106.12 154.922 95.0521 154.842 84.9621 150.673C84.444 150.461 83.933 150.238 83.4268 150.005Z" fill="#BDD0FB"/>
<path d="M201.368 90.8556C203.657 93.551 206.394 95.9022 209.512 97.7788L209.664 105.342C209.681 106.181 210.399 105.857 218.747 108.708C219.52 108.956 219.434 108.235 223.983 102.441C227.613 102.738 231.207 102.427 234.643 101.575L240.108 106.819C240.716 107.401 240.992 106.664 248.913 102.785C249.15 102.664 249.283 102.406 249.245 102.144L248.178 94.6507C250.876 92.3641 253.23 89.6304 255.109 86.5143C262.341 86.2178 263.007 86.7175 263.26 85.931C265.873 77.326 266.485 77.0917 265.832 76.6016L259.776 72.0594C260.074 68.4341 259.763 64.8422 258.909 61.4116L264.159 55.9527C264.742 55.3479 264.003 55.0694 260.12 47.1576C259.753 46.4392 259.333 47.0022 251.976 47.8915C249.687 45.1961 246.951 42.845 243.831 40.9683L243.679 33.4056C243.662 32.5653 242.944 32.8905 234.596 30.0397C233.828 29.7922 233.932 30.4819 229.361 36.3078C225.732 36.0102 222.136 36.321 218.701 37.1732L213.236 31.9294C213.045 31.7454 212.758 31.7035 212.521 31.8242L204.432 35.9636C204.196 36.0843 204.062 36.3425 204.099 36.6043L205.166 44.0976C202.468 46.3843 200.114 49.1167 198.235 52.2341C191.003 52.5305 190.338 52.0309 190.084 52.8174C187.473 61.4188 186.858 61.6555 187.512 62.1468L193.569 66.6889C193.271 70.3143 193.582 73.9062 194.435 77.3367C189.53 82.6546 188.702 82.7718 189.08 83.5093L193.224 91.5895C193.595 92.3127 194.05 91.7413 201.368 90.8556Z" fill="#91B3FA"/>
<path d="M217.206 68.7623C217.545 63.5376 222.052 59.5823 227.284 59.9206C232.513 60.2588 236.474 64.7616 236.135 69.9862C235.797 75.199 231.276 79.165 226.057 78.8279C220.839 78.4909 216.868 73.9762 217.206 68.7623ZM226.148 77.4199L226.156 77.4235L226.148 77.4199ZM220.027 68.9439C219.79 72.604 222.578 75.7739 226.24 76.0106C232.123 76.3907 235.578 69.4256 231.673 64.9863C227.786 60.5672 220.41 63.0308 220.027 68.9439Z" fill="#BDD0FB"/>
<path d="M179.067 83.5463C178.702 82.3271 178.381 81.0768 178.113 79.8301C178.004 79.3221 178.327 78.8212 178.836 78.7125C180.116 78.4376 179.934 79.8659 180.872 83.0084C181.022 83.5068 180.737 84.0304 180.239 84.1798C179.743 84.328 179.216 84.0471 179.067 83.5463Z" fill="#91B3FA"/>
<path d="M177.052 67.2925C177.157 64.7956 177.456 62.1958 177.975 59.5948C178.22 58.3708 180.067 58.7461 179.823 59.9641C178.474 66.7033 179.527 68.3408 177.951 68.2739C177.429 68.25 177.03 67.8089 177.052 67.2925ZM182.432 48.9267C181.964 48.6996 181.769 48.1354 181.996 47.668C183.126 45.3503 184.449 43.1008 185.931 40.9827C186.645 39.9631 188.19 41.04 187.475 42.0608C186.05 44.0976 184.777 46.2611 183.691 48.4916C183.291 49.3128 182.317 48.9243 182.432 48.9267ZM194.607 33.2371C194.488 33.1821 194.378 33.1008 194.287 32.9944C193.948 32.5988 193.995 32.0059 194.39 31.6665C196.353 29.9882 198.463 28.4511 200.661 27.0992C201.104 26.8267 201.685 26.9653 201.957 27.4064C202.23 27.8486 202.092 28.4296 201.65 28.7009C199.535 30.0026 197.504 31.4812 195.615 33.096C195.325 33.3435 194.93 33.3853 194.607 33.2371ZM212.014 23.6699C211.778 23.5611 211.589 23.3567 211.506 23.0901C211.353 22.5929 211.633 22.067 212.131 21.9152C214.601 21.1597 217.15 20.5931 219.709 20.2346C220.225 20.1628 220.701 20.5214 220.774 21.0366C220.846 21.5506 220.487 22.0275 219.971 22.0992C217.51 22.4447 215.058 22.9885 212.682 23.7153C212.453 23.7858 212.216 23.7631 212.014 23.6699ZM231.258 20.9015C231.316 20.3852 231.783 20.0134 232.3 20.072C234.875 20.3636 237.44 20.8573 239.923 21.541C241.122 21.8649 240.627 23.6866 239.421 23.3555C237.033 22.6981 234.565 22.2223 232.087 21.9426C231.558 21.8805 231.2 21.4071 231.258 20.9015Z" fill="#91B3FA"/>
<path d="M253.755 30.0318C250.908 28.0727 249.654 27.8707 250.293 26.771C250.554 26.3215 251.121 26.1602 251.581 26.4291C252.679 27.065 253.771 27.7559 254.825 28.4815C255.253 28.7767 255.361 29.3624 255.065 29.7903C254.774 30.2123 254.194 30.3306 253.755 30.0318Z" fill="#91B3FA"/>
<path d="M274.08 63.2787C273.639 59.841 272.955 58.7831 274.2 58.5249C274.71 58.4186 275.209 58.7461 275.314 59.2553C275.573 60.4972 275.786 61.7702 275.949 63.0396C276.014 63.5548 275.65 64.0269 275.134 64.0927C274.619 64.1596 274.145 63.795 274.08 63.2787Z" fill="#91B3FA"/>
<path d="M210.426 115.276C210.918 113.791 212.032 115.32 218.746 116.44C219.973 116.642 219.669 118.502 218.436 118.298C215.926 117.879 213.432 117.263 211.024 116.467C210.538 116.306 210.261 115.776 210.426 115.276ZM229.793 117.954C229.751 117.436 230.137 116.981 230.656 116.939C237.498 116.377 238.672 114.944 239.042 116.469C239.164 116.975 238.853 117.483 238.347 117.604C235.879 118.2 233.344 118.607 230.809 118.814C230.29 118.857 229.836 118.472 229.793 117.954ZM248.651 112.827C247.916 111.441 249.776 111.707 255.246 107.628C256.245 106.885 257.373 108.392 256.373 109.137C254.335 110.656 252.166 112.03 249.925 113.217C249.466 113.46 248.895 113.287 248.651 112.827ZM263.976 100.704C262.755 99.7143 264.577 99.2326 268.008 93.341C268.634 92.2652 270.265 93.2095 269.638 94.2876C268.361 96.4798 266.903 98.5907 265.302 100.565C264.973 100.969 264.38 101.03 263.976 100.704ZM272.659 82.3836C274.523 75.7891 273.591 74.179 275.154 74.3703C275.671 74.4324 276.038 74.9022 275.976 75.4185C275.667 77.9454 275.162 80.4615 274.473 82.8964C274.332 83.396 273.811 83.6877 273.31 83.5466C272.81 83.4032 272.518 82.8844 272.659 82.3836Z" fill="#91B3FA"/>
<path d="M199.809 111.105C198.737 110.414 197.678 109.674 196.664 108.905C196.25 108.59 196.169 108 196.484 107.585C197.277 106.543 198.064 107.742 200.83 109.521C201.267 109.803 201.394 110.386 201.111 110.823C200.825 111.266 200.238 111.382 199.809 111.105Z" fill="#91B3FA"/>
<path d="M215.175 89.4814C214.399 89.038 214.242 88.1618 214.611 87.5247C215.002 86.8494 215.873 86.6211 216.542 87.0095C217.796 87.7339 219.14 88.3303 220.536 88.781C220.841 88.818 228.024 91.6808 236.189 87.5163C252.383 79.2281 250.47 55.3495 233.132 49.7674C223.158 46.5544 212.482 51.4038 208.203 60.6853C203.891 70.0326 208.765 74.8951 205.782 75.5848C205.022 75.7617 204.262 75.2884 204.085 74.5293C203.132 70.4318 203.316 66.1407 204.615 62.1173C208.557 49.9001 221.729 43.1287 234 47.0803C247.203 51.332 253.94 66.2423 248.019 79.0775C243.245 89.43 231.235 95.195 219.668 91.468C218.104 90.9624 216.591 90.2942 215.175 89.4814Z" fill="#BDD0FB"/>
<path d="M211.311 123.239C211.275 122.798 210.824 122.416 210.06 122.109C210.891 121.651 211.349 121.163 211.311 120.681C211.193 119.226 206.583 118.411 201.012 118.86C195.442 119.309 191.022 120.852 191.139 122.305C191.175 122.746 191.626 123.128 192.389 123.435C191.559 123.893 191.101 124.381 191.139 124.863C191.175 125.304 191.626 125.686 192.389 125.993C191.559 126.451 191.101 126.939 191.139 127.42C191.175 127.861 191.626 128.242 192.389 128.549C191.559 129.007 191.101 129.496 191.139 129.978C191.19 130.621 192.123 131.139 193.627 131.478C193.608 131.954 193.618 132.474 193.665 133.05C193.883 135.73 196.901 137.831 200.892 137.831C204.882 137.831 208.337 134.966 208.376 132.278C208.386 131.619 208.359 131.039 208.299 130.524C210.209 129.887 211.372 129.109 211.311 128.355C211.275 127.914 210.824 127.532 210.06 127.226C210.891 126.77 211.349 126.28 211.311 125.798C211.275 125.357 210.824 124.976 210.06 124.67C210.891 124.209 211.349 123.719 211.311 123.239Z" fill="url(#paint1_linear)"/>
<path d="M198.435 132.055C196.781 132.055 195.267 131.933 194.017 131.694C193.944 131.68 193.897 131.611 193.91 131.538C193.925 131.465 193.994 131.418 194.067 131.431C196.024 131.806 198.638 131.888 201.426 131.663C203.708 131.479 205.843 131.112 207.599 130.599C207.669 130.579 207.743 130.62 207.765 130.69C207.785 130.761 207.745 130.835 207.674 130.856C205.901 131.373 203.748 131.745 201.448 131.93C200.413 132.015 199.401 132.055 198.435 132.055Z" fill="url(#paint2_linear)"/>
<path d="M198.464 129.496C196.315 129.496 194.394 129.294 193.04 128.909C192.969 128.889 192.927 128.815 192.948 128.744C192.968 128.674 193.042 128.632 193.113 128.652C195.043 129.201 198.152 129.372 201.428 129.108C204.669 128.847 207.691 128.19 209.514 127.351C209.581 127.32 209.661 127.349 209.691 127.416C209.722 127.483 209.692 127.562 209.625 127.593C207.776 128.446 204.72 129.111 201.45 129.374C200.429 129.457 199.422 129.496 198.464 129.496Z" fill="url(#paint3_linear)"/>
<path d="M198.436 126.942C196.116 126.942 194.085 126.705 192.717 126.254C192.646 126.232 192.608 126.155 192.632 126.086C192.655 126.015 192.73 125.977 192.801 126.001C194.704 126.627 197.927 126.833 201.426 126.552C204.667 126.292 207.689 125.634 209.512 124.795C209.579 124.764 209.659 124.794 209.689 124.861C209.72 124.928 209.69 125.007 209.623 125.038C207.774 125.89 204.718 126.556 201.448 126.819C200.411 126.901 199.399 126.942 198.436 126.942Z" fill="url(#paint4_linear)"/>
<path d="M198.454 124.384C196.614 124.384 194.94 124.236 193.638 123.947C193.566 123.931 193.521 123.859 193.536 123.788C193.552 123.716 193.624 123.671 193.695 123.686C195.653 124.12 198.471 124.234 201.428 123.994C204.64 123.736 207.647 123.086 209.472 122.256C209.539 122.225 209.618 122.255 209.649 122.322C209.68 122.389 209.65 122.468 209.583 122.499C207.732 123.341 204.691 123.999 201.45 124.261C200.425 124.343 199.416 124.384 198.454 124.384Z" fill="url(#paint5_linear)"/>
<path d="M187.401 110.332C186.725 107.939 185.575 105.701 184.028 103.753C180.712 99.579 175.302 91.0887 174.636 79.5026C173.668 62.6488 188.631 54.2112 202.286 55.3575C215.941 56.5026 229.413 66.6591 227.939 82.3379C227.032 91.9852 221.626 99.3029 217.601 103.504C215.045 106.174 213.223 109.441 212.236 113C211.028 117.356 208.154 122.785 201.321 123.116C192.479 123.545 188.808 115.313 187.401 110.332Z" fill="url(#paint6_linear)"/>
<path d="M203.58 119.756L208.358 88.7162C208.456 88.0755 208.774 87.644 209.064 87.7539C209.355 87.8639 209.511 88.4735 209.413 89.1142C209.41 89.1309 209.407 89.1524 209.403 89.1692L203.961 119.921C203.92 120.152 203.803 120.299 203.699 120.247C203.597 120.197 203.545 119.979 203.58 119.756Z" fill="url(#paint7_linear)"/>
<path d="M198.62 120.002L193.842 88.9622C193.743 88.3216 193.427 87.8901 193.136 88C192.845 88.11 192.688 88.7196 192.788 89.3603C192.79 89.377 192.794 89.3985 192.797 89.4153L198.24 120.167C198.28 120.398 198.398 120.545 198.502 120.493C198.603 120.444 198.655 120.225 198.62 120.002Z" fill="url(#paint8_linear)"/>
<path d="M208.323 86.0507C208.202 85.8558 207.921 85.7829 207.696 85.8881L205.036 87.13L204.112 84.5016C204.063 84.3641 203.951 84.2434 203.789 84.1764C203.483 84.0509 203.117 84.1633 202.972 84.4287L202.967 84.437L200.78 88.4222L198.749 82.7504L198.745 82.7409C198.695 82.6022 198.591 82.4779 198.438 82.3942C198.098 82.209 197.648 82.2974 197.434 82.5915L194.375 86.7977C194.251 86.9699 194.294 87.2006 194.483 87.3285C194.685 87.4647 194.976 87.4325 195.134 87.2579L197.827 84.2577L200.252 89.6533L200.254 89.6569C200.294 89.743 200.367 89.8183 200.468 89.8661C200.696 89.9725 200.979 89.8996 201.103 89.7023L203.442 85.9515L204.323 87.8484L204.33 87.8652C204.336 87.8783 204.343 87.8926 204.352 87.9058C204.472 88.1006 204.754 88.1735 204.979 88.0684L208.137 86.5945C208.36 86.4882 208.444 86.2455 208.323 86.0507Z" fill="white"/>
<path d="M217.705 99.5035C217.58 99.5035 217.453 99.4652 217.344 99.384C217.075 99.1843 217.018 98.8054 217.218 98.5365C218.032 97.4416 218.778 96.3108 219.434 95.174C219.602 94.8848 219.973 94.7856 220.263 94.9529C220.552 95.1203 220.653 95.4908 220.484 95.7801C219.804 96.9563 219.032 98.1277 218.191 99.2596C218.074 99.4186 217.891 99.5035 217.705 99.5035Z" fill="white"/>
<path d="M221.635 92.7656C221.555 92.7656 221.473 92.7488 221.394 92.7154C221.086 92.5815 220.945 92.2253 221.079 91.9181C226.128 80.3045 221.773 70.5568 221.729 70.4588C221.589 70.1552 221.723 69.7954 222.027 69.6555C222.332 69.5169 222.692 69.6496 222.831 69.9532C223.022 70.3691 227.453 80.2949 222.191 92.3998C222.093 92.6293 221.87 92.7656 221.635 92.7656Z" fill="white"/>
<path d="M120.633 313.58C120.633 313.58 119.844 317.802 119.438 321.984C119.279 323.618 120.529 325.051 122.17 325.135C127.749 325.421 139.681 325.986 143.966 325.836C144.61 325.813 145.037 325.159 144.805 324.558C144.61 324.055 144.229 323.646 143.74 323.415L124.109 314.175L120.633 313.58Z" fill="url(#paint9_linear)"/>
<path d="M120.044 311.09L120.597 316.153C120.597 316.153 124.036 317.792 126.411 316.006L125.035 310.356L120.044 311.09Z" fill="url(#paint10_linear)"/>
<path d="M121.405 216.004C121.133 217.323 119.382 281.904 126.018 310.916C126.125 311.39 125.881 311.874 125.43 312.053C124.366 312.475 122.282 313.082 119.791 313.142C119.019 313.161 118.332 312.653 118.121 311.912C116.209 305.178 107.063 271.439 106.136 239.283C105.098 203.352 106.148 238.06 106.148 238.06L107.17 215.866L121.405 216.004Z" fill="url(#paint11_linear)"/>
<path d="M97.9303 315.57C97.9303 315.57 96.7193 317.693 95.5131 323.355C95.2953 324.377 96.0025 325.364 97.0424 325.477C98.8828 325.675 101.718 325.934 103.99 325.942C105.037 325.944 105.864 325.041 105.748 324.002C105.516 321.929 104.764 318.525 102.367 315.853L97.9303 315.57Z" fill="url(#paint12_linear)"/>
<path d="M96.9473 309.054L98.2779 316.716C98.2779 316.716 99.6564 317.761 102.409 317.039L101.818 308.803L96.9473 309.054Z" fill="url(#paint13_linear)"/>
<path d="M94.0265 217.726C88.0482 251.751 94.4478 301.967 96.6747 311.805C96.8111 312.407 97.2922 312.872 97.9012 312.979C98.9351 313.16 100.639 313.316 102.325 312.845C102.906 312.682 103.318 312.165 103.347 311.562C103.734 303.629 103.639 254.907 109.091 235.703C109.367 234.73 109.972 233.885 110.803 233.307L121.097 226.144L121.993 214.416L94.0265 217.726Z" fill="url(#paint14_linear)"/>
<path d="M130.666 153.495C113.727 153.054 94.9892 157.598 94.9892 157.598C89.6582 186.984 93.5006 220.972 93.5006 220.972C106.583 224.533 121.431 219.138 121.431 219.138C123.729 206.856 134.23 172.329 134.23 172.329C142.517 171.383 149.359 169.061 155.005 165.961C150.769 160.961 148.81 154.631 147.969 150.892C141.961 152.695 135.89 153.631 130.666 153.495Z" fill="url(#paint15_linear)"/>
<path d="M180.946 129.046C179.3 127.023 177.185 127.953 177.185 127.953C174.592 138.449 161.437 146.853 147.968 150.894C148.809 154.633 150.768 160.963 155.004 165.963C177.413 153.658 180.946 129.046 180.946 129.046Z" fill="url(#paint16_linear)"/>
<path d="M180.538 129.553C180.707 130.108 178.682 130.93 177.517 128.658C177.486 127.574 176.871 122.924 177.528 122.046C181.025 117.376 187.778 111.544 187.778 111.544C188.899 112.67 187.956 113.757 187.956 113.757L184.676 117.106C185.344 118.339 186.162 119.382 186.537 120.869C186.821 121.995 186.629 123.194 186.051 124.211C185.471 125.232 184.681 126.558 183.935 127.595C182.522 129.557 180.538 129.553 180.538 129.553Z" fill="url(#paint17_linear)"/>
<path d="M183.233 119.286L180.249 121.764L179.295 124.25L181.906 127.2C181.906 127.2 182.84 122.257 183.511 121.191C184.181 120.127 183.844 119.605 183.233 119.286Z" fill="url(#paint18_linear)"/>
<path d="M101.33 174.047L94.9892 157.6C94.9892 157.6 79.062 168.189 76.3301 181.781C79.3181 182.029 84.7508 182.858 90.0519 185.595C91.2832 179.176 101.33 174.047 101.33 174.047Z" fill="url(#paint19_linear)"/>
<path d="M115.012 189.598C115.012 189.598 97.1501 199.458 91.2363 190.838C90.0086 189.047 89.7286 187.277 90.0505 185.595C84.7506 182.858 79.3167 182.029 76.3287 181.781C75.5054 185.878 75.8775 190.248 78.2505 194.684C88.5678 213.972 117.321 193.996 117.321 193.996L115.012 189.598Z" fill="url(#paint20_linear)"/>
<path d="M113.637 139.593L108.098 155.113C108.006 155.37 108.11 155.657 108.348 155.791C109.809 156.617 115.081 159.012 121.499 155.033C122.168 154.618 122.626 153.936 122.735 153.158L124.609 139.697L113.637 139.593Z" fill="url(#paint21_linear)"/>
<path d="M125.504 125.285C125.504 125.285 131.317 136.472 130.516 140.96C129.714 145.448 122.381 145.056 116.01 141.344L111.648 129.283L125.504 125.285Z" fill="url(#paint22_linear)"/>
<path d="M116.349 135.445C116.61 135.332 116.71 135.014 116.556 134.775C116.089 134.047 115.214 132.563 114.943 131.267C114.943 131.267 113.886 130.576 117.667 129.709C121.448 128.843 127.087 127.497 128.3 124.301C129.482 121.185 126.529 113.291 121.636 119.511C121.449 119.748 121.089 119.75 120.909 119.509C120.126 118.471 118.064 116.314 115.16 117.582C112.442 118.769 112.118 120.747 112.146 121.745C112.154 122.039 111.888 122.265 111.6 122.207C110.235 121.933 106.953 121.678 105.388 125.027C104.099 127.786 104.905 129.363 105.644 130.137C105.884 130.388 105.774 130.797 105.441 130.895C104.539 131.162 103.371 131.912 103.466 134.017C103.599 136.928 106.858 136.703 107.786 136.579C107.938 136.559 108.091 136.612 108.193 136.727C108.979 137.613 112.526 141.378 116.397 141.866C116.732 141.908 116.996 141.579 116.889 141.259L115.258 136.371C115.183 136.144 115.293 135.896 115.513 135.802L116.349 135.445Z" fill="url(#paint23_linear)"/>
<path d="M117.018 136.143C117.018 136.143 112.831 133.214 112.499 135.643C112.168 138.072 116.26 139.203 118.302 138.315L117.018 136.143Z" fill="url(#paint24_linear)"/>
<path d="M111.362 205.181L121.092 171.238C121.202 170.853 121.531 170.573 121.93 170.526C123.692 170.32 128.801 169.743 134.699 169.246C141.803 168.646 150.054 168.159 154.984 168.573C155.685 168.631 156.109 169.372 155.797 170.002C152.993 175.668 141.461 198.716 135.686 206.266C135.495 206.515 135.199 206.662 134.883 206.659L112.308 206.448C111.652 206.441 111.182 205.813 111.362 205.181Z" fill="url(#paint25_linear)"/>
<path d="M113.713 196.981C113.713 196.981 112.358 191.413 112.904 189.438C113.451 187.462 114.51 184.923 118.042 185.488C121.573 186.052 125.738 187.538 125.738 187.538C125.738 187.538 125.528 190.11 122.844 189.28L124.508 190.567C124.508 190.567 124.27 192.626 122.004 191.526L123.551 193.232C123.551 193.232 122.577 194.923 120.91 193.839C119.242 192.754 118.442 197.651 113.713 196.981Z" fill="url(#paint26_linear)"/>
<path d="M134.052 179.377C134.052 180.953 135.331 182.23 136.908 182.23C138.485 182.23 139.764 180.953 139.764 179.377C139.764 177.802 138.485 176.524 136.908 176.524C135.331 176.524 134.052 177.802 134.052 179.377Z" fill="#91B3FA"/>
<path d="M122.195 181.259L121.466 181.044L123.446 174.331C123.769 173.237 124.652 172.416 125.751 172.188C132.031 170.878 148.57 170.611 149.27 170.601L149.282 171.36C149.11 171.362 132.115 171.637 125.907 172.93C125.082 173.102 124.418 173.72 124.174 174.545L122.195 181.259Z" fill="#91B3FA"/>
<path d="M7.03626 276.249C5.99878 277.783 1.87638 312.494 1.23139 325.315C1.18832 326.182 1.88236 326.905 2.75112 326.905C3.50021 326.905 4.13801 326.36 4.25409 325.62L11.7941 277.353L7.03626 276.249Z" fill="#7D97F4"/>
<path d="M40.1787 276.249C41.2162 277.783 45.3386 312.494 45.9836 325.315C46.0279 326.182 45.3326 326.905 44.4639 326.905C43.7148 326.905 43.077 326.36 42.9609 325.62L35.4209 277.353L40.1787 276.249Z" fill="#7D97F4"/>
<path d="M0.798712 273.54L0.795122 273.919C0.769992 276.642 3.11898 278.876 6.06031 278.926L40.9122 279.518C43.8105 279.567 46.2265 277.475 46.3677 274.794L46.3856 274.448C46.5328 271.652 44.1551 269.296 41.1324 269.242L6.26493 268.618C3.28172 268.564 0.823841 270.777 0.798712 273.54Z" fill="#7D97F4"/>
<path d="M74.2187 324.054C68.0237 324.054 65.2822 323.523 64.0557 323.039C64.2938 324.055 65.1996 324.857 66.3448 324.857H88.2623C89.0006 324.857 89.4661 324.152 89.2902 323.512C86.7929 323.713 81.487 324.054 74.2187 324.054Z" fill="#91B3FA"/>
<path d="M89.2914 323.512C89.2555 323.383 89.204 323.256 89.1119 323.139C87.4426 321.01 84.0884 317.666 79.5257 317.73C72.8425 317.825 70.5115 318.548 65.3181 317.771L64.0927 321.828C63.9683 322.241 63.9659 322.655 64.0556 323.037C65.281 323.522 68.0225 324.052 74.2186 324.052C81.487 324.053 86.7928 323.713 89.2914 323.512Z" fill="url(#paint27_linear)"/>
<path d="M66.8216 313.4L65.3174 318.51C65.3174 318.51 68.6488 320.025 71.5794 318.809L72.1549 314.382L66.8216 313.4Z" fill="url(#paint28_linear)"/>
<path d="M112.25 320.836C107.421 324.713 104.952 326.016 103.694 326.406C104.514 327.046 105.721 327.101 106.614 326.385L123.7 312.672C124.275 312.211 124.197 311.372 123.661 310.986C121.84 312.706 117.916 316.289 112.25 320.836Z" fill="#91B3FA"/>
<path d="M123.662 310.987C123.554 310.909 123.433 310.843 123.29 310.81C120.66 310.203 115.958 309.707 112.442 312.611C107.291 316.865 105.927 318.886 101.393 321.532L102.969 325.447C103.129 325.846 103.385 326.167 103.695 326.409C104.953 326.018 107.421 324.715 112.251 320.839C117.916 316.289 121.839 312.706 123.662 310.987Z" fill="url(#paint29_linear)"/>
<path d="M34.6491 255.186C34.6491 255.186 71.7423 258.211 79.3505 261.789C86.9587 265.366 73.1412 315.517 73.1412 315.517C73.1412 315.517 71.0698 316.512 66.4604 315.082C66.4604 315.082 71.1871 278.074 67.6702 270.048L27.5088 263.486L34.6491 255.186Z" fill="url(#paint30_linear)"/>
<path d="M97.7051 314.486C98.0497 314.8 101.391 321.53 101.391 321.53C101.391 321.53 105.11 320.727 105.868 318.375L102.522 312.3L97.7051 314.486Z" fill="url(#paint31_linear)"/>
<path d="M12.3075 254.877C12.3075 254.877 11.0989 257.783 11.1479 261.644C11.2161 266.983 15.5133 271.316 20.8526 271.583L64.702 273.58C65.6282 273.622 66.412 274.262 66.6429 275.159C67.6732 279.14 72.7099 291.366 97.3306 315.762C97.9851 316.411 99.0059 316.521 99.7861 316.03L103.291 313.819C103.658 313.587 103.777 313.105 103.557 312.73L78.0253 269.179C76.6839 266.969 74.5288 265.372 72.0218 264.731L34.6486 255.188L12.3075 254.877Z" fill="url(#paint32_linear)"/>
<path d="M55.5221 186.847C55.5221 186.847 50.8253 195.143 46.0352 199.162L55.9349 204.679C55.9349 204.679 58.1654 195.896 63.2619 193.325L55.5221 186.847Z" fill="url(#paint33_linear)"/>
<path d="M11.5127 255.187C11.5127 255.187 23.351 258.069 34.6496 255.187C34.6496 255.187 50.4607 233.956 56.5767 228.178C56.5767 228.178 66.334 243.556 88.0505 245.737L89.2615 243.033C89.2615 243.033 71.9725 235.072 66.6499 222.839C61.3273 210.607 59.1901 205.39 54.3473 202.198C51.3318 200.21 49.5261 198.852 48.5927 198.111C48.0818 197.705 47.377 197.659 46.8193 197.999C41.681 201.127 17.5006 217.67 11.5127 255.187Z" fill="url(#paint34_linear)"/>
<path d="M55.9345 227.879C55.7059 227.879 55.4809 227.776 55.3314 227.582C51.562 222.672 49.4619 217.259 49.3745 217.032C49.225 216.642 49.42 216.203 49.8113 216.052C50.2038 215.902 50.6418 216.098 50.7926 216.489C50.8129 216.542 52.9058 221.928 56.5364 226.659C56.7913 226.992 56.729 227.468 56.3964 227.723C56.2588 227.827 56.096 227.879 55.9345 227.879Z" fill="url(#paint35_linear)"/>
<path d="M86.7451 241.621L89.1898 240.971L96.6114 239.254C97.5052 239.047 98.4434 239.205 99.22 239.694L105.602 243.704L87.9788 243.675L86.7451 241.621Z" fill="url(#paint36_linear)"/>
<path d="M62.9801 174.407C62.9801 174.407 67.5452 181.988 68.3374 186.177C69.1296 190.367 70.4016 192.986 65.627 194.479C60.8537 195.972 56.4165 194.082 53.6332 190.171C53.6332 190.171 49.2846 184.153 49.719 181.396C50.1522 178.64 62.9801 174.407 62.9801 174.407Z" fill="url(#paint37_linear)"/>
<path d="M54.904 186.928L55.5214 186.847C55.5214 186.847 52.2893 181.968 54.4038 180.758C56.5182 179.548 65.1388 176.578 66.6357 173.187C68.0789 169.918 65.9202 166.226 63.3175 165.455C63.1524 165.406 62.9788 165.504 62.919 165.664L62.7658 166.075C62.6617 166.357 62.2656 166.368 62.146 166.093C62.0311 165.831 61.6566 165.82 61.5393 166.08C61.0786 167.096 59.6953 168.83 55.5501 170.172C49.6687 172.077 46.0046 175.039 46.4557 179.213C46.4844 179.477 46.2212 179.66 45.9783 179.552C45.4972 179.339 44.7685 179.306 43.9225 180.231C42.4506 181.839 43.603 185.356 47.6236 187.845C47.8151 187.963 47.8486 188.232 47.6775 188.378C47.0756 188.892 46.2296 190.04 48.9495 191.062C51.7317 192.107 53.2502 191.754 53.8114 191.529C53.9622 191.468 54.0484 191.313 54.0173 191.152L53.3029 187.495C53.2658 187.306 53.3962 187.124 53.5877 187.099L54.904 186.928Z" fill="url(#paint38_linear)"/>
<path d="M55.1573 187.68C55.1573 187.68 53.1434 182.72 51.0277 184.464C48.9121 186.208 52.983 190.062 54.8617 190.01L55.1573 187.68Z" fill="url(#paint39_linear)"/>
<path d="M79.9361 247.156C79.9648 247.157 79.9935 247.158 80.0222 247.158L117.672 247.121C118.603 247.12 119.357 246.367 119.356 245.439C119.354 244.51 118.597 243.744 117.668 243.761L80.0186 243.798C79.0876 243.799 78.335 244.552 78.335 245.48C78.3362 246.379 79.0458 247.111 79.9361 247.156Z" fill="url(#paint40_linear)"/>
<path d="M132.251 210.326C132.238 210.351 132.225 210.378 132.213 210.404L116.372 244.521C115.981 245.363 116.346 246.364 117.189 246.755C118.033 247.145 119.048 246.782 119.424 245.935L135.265 211.818C135.657 210.974 135.292 209.975 134.448 209.584C133.632 209.206 132.666 209.539 132.251 210.326Z" fill="url(#paint41_linear)"/>
<path d="M230.839 281.443H226.865V324.367H230.839V281.443Z" fill="#7D97F4"/>
<path d="M246.255 325.196H211.452C211.452 323.768 212.61 322.611 214.039 322.611H243.669C245.097 322.613 246.255 323.768 246.255 325.196Z" fill="#7D97F4"/>
<path d="M251.419 279.954C251.419 282.301 249.496 284.222 247.145 284.222H211.933C209.583 284.222 207.66 282.301 207.66 279.954V276.094C207.66 273.747 209.583 271.826 211.933 271.826H247.145C249.496 271.826 251.419 273.747 251.419 276.094V279.954Z" fill="#7D97F4"/>
<path d="M199.518 252.823C199.518 252.823 193.614 253.738 186.975 258.171C185.93 258.869 185.357 260.085 185.514 261.33C186.308 267.62 189.578 287.978 200.356 307.862C200.924 308.911 201.087 310.131 200.837 311.296L198.964 320.001L195.491 323.253H204.436L210.392 307.155L207.845 306.35C205.871 305.726 204.516 303.913 204.48 301.844L204.181 284.575C204.436 276.881 199.458 271.573 199.458 271.573L213.742 270.878L199.518 252.823Z" fill="url(#paint42_linear)"/>
<path d="M191.998 324.824C191.183 325.889 200.766 327.294 205.606 324.965C205.606 324.965 212.317 313.302 212.317 307.298C212.317 307.298 211.784 306.074 207.844 306.351C207.844 306.351 205.591 320.161 203.212 321.708C200.833 323.254 196.555 321.864 196.555 321.864C196.555 321.864 193.199 323.252 191.998 324.824Z" fill="url(#paint43_linear)"/>
<path d="M211.933 271.826C211.857 271.695 196.554 269.988 196.554 269.988C196.554 269.988 197.056 274.635 195.491 281.034C193.925 287.432 171.456 315.153 171.456 315.153L173.812 322.613C166.528 325.147 159.363 325.552 152.312 323.905L166.913 315.153C166.913 315.153 180.577 268.639 188.946 260.341L204.286 255.04L211.933 271.826Z" fill="url(#paint44_linear)"/>
<path d="M246.254 244.761C246.254 244.761 255.071 257.86 255.795 263.835C256.519 269.811 253.38 272.238 244.129 272.639C234.878 273.039 210.18 273.033 210.18 273.033L189.102 255.039C189.102 255.039 204.463 249.563 208.457 248.016C212.449 246.468 246.254 244.761 246.254 244.761Z" fill="url(#paint45_linear)"/>
<path d="M172.922 320.101C172.922 320.101 175.459 322.555 173.745 325.285C173.745 325.285 153.653 328.842 148.197 327.229C148.197 327.229 149.33 324.646 155.473 321.706L155.019 322.054C154.446 322.494 154.782 323.41 155.504 323.369C159.552 323.138 167.929 322.397 172.922 320.101Z" fill="url(#paint46_linear)"/>
<path d="M208.062 161.685C226.085 158.624 234.571 173.308 233.95 176.394C233.867 176.802 234.254 177.149 234.657 177.04C236.726 176.484 241.297 175.783 244.131 179.329C246.633 182.461 244.762 185.416 243.238 187.038C242.869 187.43 243.179 188.066 243.713 187.999C247.517 187.519 255.783 187.405 257.136 195.14C258.397 202.353 253.371 204.386 250.39 204.96C249.885 205.057 249.768 205.719 250.201 205.994C251.689 206.936 253.412 208.884 252.715 212.727C251.624 218.75 239.801 218.258 238.42 218.179C238.333 218.174 238.25 218.149 238.174 218.105L219.237 207.317C219.09 207.234 218.987 207.088 218.958 206.92L215.135 184.866C215.104 184.688 215.16 184.505 215.286 184.375L202.941 166.972C198.461 166.312 207.85 161.721 208.062 161.685Z" fill="url(#paint47_linear)"/>
<path d="M222.41 243.026C222.41 243.026 212.143 233.261 207.089 226.792C204.357 223.296 203.499 218.692 204.763 214.441C207.07 206.676 211.171 198.633 211.545 197.381C212.118 195.463 223.631 195.543 223.631 195.543C223.631 195.543 246.286 210.23 255.186 235.108L245.19 238.217C245.19 238.217 239.275 228.304 233.43 222.002C233.43 222.002 243.543 235.347 243.9 240.81L222.41 243.026Z" fill="url(#paint48_linear)"/>
<path d="M210.153 186.659C210.273 187.058 213.278 197.008 213.513 197.215C213.748 197.422 220.103 197.762 223.094 195.721L215.675 181.224L210.153 186.659Z" fill="url(#paint49_linear)"/>
<path d="M198.106 173.872C198.106 173.872 196.654 179.573 200.672 187.239C204.689 194.906 209.237 194.898 211.724 192.444C214.211 189.99 217.276 185.825 216.548 178.413C215.82 171.001 200.204 166.621 198.106 173.872Z" fill="url(#paint50_linear)"/>
<path d="M210.99 178.816C210.99 178.816 204.325 168.637 198.074 176.648L197.961 179.562C197.961 179.562 190.64 178.694 191.922 171.988C193.204 165.283 199.53 161.092 207.678 163.997C215.826 166.901 220.495 169.88 221.021 175.713C221.546 181.546 216.901 180.267 216.901 180.267C216.901 180.267 215.386 176.16 213.23 175.733C211.077 175.307 211.637 178.509 211.637 178.509L210.99 178.816Z" fill="url(#paint51_linear)"/>
<path d="M212.697 178.68C212.697 178.68 209.24 173.467 212.782 172.69C216.324 171.913 215.775 177.769 215.392 179.935L212.697 178.68Z" fill="url(#paint52_linear)"/>
<path d="M201.492 243.751L209.036 236.489L219.472 240.892C219.472 240.892 229.86 242.5 235.804 240.892C241.749 239.285 241.749 239.285 241.749 239.285L255.184 235.107L257.294 241.063C257.83 242.575 257.291 244.255 255.982 245.183C254.82 246.008 253.457 246.915 252.588 247.294C250.819 248.068 208.975 246.76 208.975 246.76L201.492 243.751Z" fill="url(#paint53_linear)"/>
<path d="M230.04 247.176C230.007 247.177 229.973 247.178 229.94 247.178L186.18 247.13C185.098 247.129 184.222 246.253 184.224 245.172C184.225 244.092 185.106 243.199 186.185 243.218L229.945 243.266C231.026 243.267 231.902 244.143 231.901 245.224C231.9 246.27 231.075 247.124 230.04 247.176Z" fill="url(#paint54_linear)"/>
<path d="M146.842 207.489H183.285C185.974 207.489 188.421 209.04 189.567 211.468L206.415 247.153H161.126C159.393 247.153 157.836 246.095 157.2 244.486L144.135 211.465C143.381 209.557 144.788 207.489 146.842 207.489Z" fill="url(#paint55_linear)"/>
<path d="M172.516 225.785C173.306 228.236 172.722 230.617 171.213 231.102C169.704 231.587 167.84 229.994 167.05 227.544C166.26 225.093 166.844 222.712 168.353 222.227C169.864 221.741 171.727 223.334 172.516 225.785Z" fill="#7D97F4"/>
<path d="M279.929 319.785C279.929 319.785 280.388 322.332 280.569 325.356C280.647 326.645 279.691 327.765 278.404 327.889C273.925 328.323 263.73 329.124 257.22 328.186C256.309 328.054 255.946 326.935 256.621 326.308C259.305 323.81 265.788 318.951 276.457 317.888L279.929 319.785Z" fill="url(#paint56_linear)"/>
<path d="M282.155 314.043L279.891 319.588C279.581 320.348 278.809 320.82 277.992 320.734C277.438 320.676 276.781 320.57 276.142 320.376C274.864 319.989 274.143 318.636 274.525 317.357L276.234 311.646L282.155 314.043Z" fill="url(#paint57_linear)"/>
<path d="M320.874 324.201C320.874 324.201 316.339 327.991 314.572 332.852C314.086 334.19 315.113 335.598 316.537 335.598H325.869C327.234 335.598 328.281 334.37 328.044 333.027C327.449 329.67 325.736 324.215 320.874 324.201Z" fill="url(#paint58_linear)"/>
<path d="M326.49 319.269C326.49 319.269 325.574 323.319 324.87 325.995C324.741 326.48 324.223 326.747 323.75 326.578C322.337 326.074 321.189 325.852 320.352 325.963C319.966 326.014 319.629 325.694 319.624 325.304L319.536 318.578L326.49 319.269Z" fill="url(#paint59_linear)"/>
<path d="M302.372 228.141L274.79 312.195C274.79 312.195 280.08 315.655 282.6 315.512L315.362 247.96C315.362 247.96 321.095 289.583 318.316 319.465L327.7 320.18C327.7 320.18 342.958 243.816 331.401 217.661L302.372 228.141Z" fill="url(#paint60_linear)"/>
<path d="M315.185 247.235C315.196 247.235 315.208 247.234 315.218 247.233C315.364 247.215 315.468 247.081 315.45 246.935L314.381 238.448C314.363 238.302 314.23 238.201 314.083 238.216C313.937 238.234 313.833 238.368 313.851 238.514L314.922 247.001C314.937 247.136 315.052 247.235 315.185 247.235Z" fill="url(#paint61_linear)"/>
<path d="M297.2 154.179C297.2 154.179 319.547 156.161 316.386 172.066C316.386 172.066 328.739 195.288 334.514 222.642C334.701 223.533 334.104 224.401 333.207 224.554L295.992 230.919C294.965 231.094 293.975 230.455 293.714 229.447L284.822 195.119L281.357 211.079L270.347 208.214L279.615 161.315C279.617 161.315 280.909 154.473 297.2 154.179Z" fill="url(#paint62_linear)"/>
<path d="M284.634 193.583C284.653 193.583 284.673 193.581 284.692 193.577C284.842 193.545 284.936 193.397 284.904 193.247L281.802 179.018C281.77 178.869 281.624 178.774 281.472 178.807C281.322 178.839 281.228 178.987 281.26 179.137L284.362 193.365C284.392 193.495 284.507 193.583 284.634 193.583Z" fill="#91B3FA"/>
<path d="M286.881 235.923C288.054 235.279 289.426 235.101 290.723 235.423L293.313 236.068C293.863 236.205 294.409 235.826 294.472 235.263L297.152 211.439C300.502 213.029 305.335 212.839 306.929 212.722L300.762 240.807H279.181L286.881 235.923Z" fill="url(#paint63_linear)"/>
<path d="M229.539 184.248L230.191 182.082C230.567 180.835 231.488 179.827 232.698 179.342L244.496 174.603C244.496 174.603 244.674 173.092 242.003 172.064C239.332 171.037 239.957 168.049 239.957 168.049C239.957 168.049 243.605 169.711 248.947 172.348C252.002 173.857 253.716 176.519 254.625 178.523L281.358 211.077L278.219 213.231C274.092 216.064 268.415 214.673 266.07 210.253L251.588 182.513C244.317 184.697 236.959 185.114 229.539 184.248Z" fill="url(#paint64_linear)"/>
<path d="M289.96 138.992L296.834 158.207C296.834 158.207 290.748 162.96 286.306 161.353L282.843 150.338C282.843 150.338 285.487 136.876 289.96 138.992Z" fill="url(#paint65_linear)"/>
<path d="M269.446 132.09C269.446 132.387 276.067 150.812 276.067 150.812L286.52 146.813L282.843 128.417C282.843 128.417 269.446 127.133 269.446 132.09Z" fill="url(#paint66_linear)"/>
<path d="M281.009 132.899L283.704 142.432C283.739 142.554 283.757 142.677 283.757 142.805C283.758 143.582 283.565 146.258 280.837 145.894C278.361 145.564 276.097 145.298 274.658 145.976C274.011 146.28 273.701 147.023 273.943 147.695C274.545 149.368 275.971 153.116 277.708 156.183C278.06 156.805 278.833 157.047 279.485 156.75C281.448 155.859 285.535 153.861 288.447 151.485C288.842 151.164 289.031 150.657 288.938 150.157C288.48 147.719 287.116 140.302 287.056 138.177C287 136.182 289.241 134.659 290.227 134.086C290.55 133.899 290.781 133.589 290.868 133.226C291.178 131.942 291.44 129.036 287.73 128.395C286.953 128.262 286.447 127.519 286.605 126.747C286.918 125.211 286.818 122.952 283.899 122.119C280.931 121.273 279.065 123.057 278.115 124.425C277.73 124.978 277.012 125.157 276.397 124.882C276.047 124.726 275.624 124.719 275.17 125.102C274.557 125.619 273.624 125.461 273.174 124.799C272.309 123.527 270.736 122.256 268.075 123.117C263.353 124.643 263.578 130.082 265.309 133.038C267.041 135.994 272.066 134.049 274.446 132.09C276.255 130.601 279.008 131.491 280.225 132.004C280.608 132.167 280.896 132.497 281.009 132.899Z" fill="url(#paint67_linear)"/>
<path d="M288.002 141.656C288.002 141.656 285.207 136.376 287.056 134.718C288.904 133.06 292.035 133.331 291.951 137.461C291.846 142.596 288.002 141.656 288.002 141.656Z" fill="url(#paint68_linear)"/>
<path d="M304.76 213.08C306.286 213.08 307.373 212.964 307.492 212.951L307.691 212.928L315.828 175.031C315.86 174.881 315.764 174.734 315.615 174.702C315.464 174.668 315.318 174.765 315.286 174.915L307.232 212.419C306.021 212.525 299.555 212.954 296.141 210.538L303.19 177.614L301.718 174.844C301.646 174.709 301.479 174.658 301.344 174.729C301.208 174.801 301.157 174.968 301.229 175.104L302.606 177.695L295.524 210.771L295.666 210.878C298.132 212.729 302.106 213.08 304.76 213.08Z" fill="#91B3FA"/>
<path d="M60.8134 328.623C60.6268 328.623 60.4365 328.582 60.2534 328.496C59.5342 328.159 59.2016 327.25 59.5115 326.465L89.2466 251.101C89.5554 250.317 90.3894 249.955 91.1098 250.292C91.829 250.629 92.1616 251.539 91.8517 252.323L62.1166 327.686C61.8868 328.273 61.3639 328.623 60.8134 328.623Z" fill="url(#paint69_linear)"/>
<path d="M94.3124 328.622C93.7631 328.622 93.2402 328.272 93.0093 327.686L63.2742 252.323C62.9643 251.539 63.2969 250.63 64.0161 250.293C64.7353 249.955 65.5693 250.318 65.8793 251.102L95.6143 326.466C95.9243 327.25 95.5916 328.16 94.8724 328.497C94.6893 328.581 94.4991 328.622 94.3124 328.622Z" fill="url(#paint70_linear)"/>
<path d="M262.617 328.622C262.43 328.622 262.24 328.582 262.057 328.496C261.338 328.159 261.005 327.249 261.315 326.465L291.05 251.101C291.36 250.317 292.193 249.955 292.913 250.292C293.633 250.629 293.965 251.538 293.655 252.322L263.92 327.685C263.689 328.272 263.166 328.622 262.617 328.622Z" fill="url(#paint71_linear)"/>
<path d="M296.115 328.622C295.566 328.622 295.043 328.272 294.812 327.686L265.077 252.323C264.767 251.539 265.1 250.63 265.819 250.293C266.538 249.955 267.372 250.318 267.682 251.102L297.417 326.466C297.727 327.25 297.394 328.16 296.675 328.497C296.492 328.581 296.302 328.622 296.115 328.622Z" fill="url(#paint72_linear)"/>
<path d="M258.303 245.78H301.37V241.34H258.303C259.225 241.34 259.225 245.78 258.303 245.78Z" fill="#91B3FA"/>
<path d="M300.965 245.779C301.187 245.779 301.369 245.598 301.369 245.375V241.744C301.369 241.522 301.187 241.34 300.965 241.34H257.393C257.17 241.34 256.989 241.158 256.989 240.936V240.74C256.989 240.518 257.17 240.336 257.393 240.336H303.834C304.861 240.336 305.694 241.168 305.694 242.193V245.031C305.694 245.998 304.909 246.782 303.94 246.782H257.392C257.169 246.782 256.987 246.601 256.987 246.378V246.182C256.987 245.96 257.169 245.778 257.392 245.778H300.965V245.779Z" fill="url(#paint73_linear)"/>
<path d="M307.612 248.772C307.757 248.276 307.559 247.765 307.075 247.375C306.59 246.985 305.868 246.761 305.106 246.761H47.0547C46.0531 246.761 45.1198 247.099 44.5801 247.658C44.0404 248.218 43.9674 248.921 44.3886 249.523L47.1851 253.533C47.8253 254.451 49.2134 255.039 50.7403 255.039H303.336C304.757 255.039 305.977 254.372 306.246 253.448L307.612 248.772Z" fill="url(#paint74_linear)"/>
<defs>
<linearGradient id="paint0_linear" x1="376.127" y1="433.171" x2="79.2209" y2="64.0224" gradientUnits="userSpaceOnUse">
<stop stop-color="#DAE3FE"/>
<stop offset="1" stop-color="#E9EFFD"/>
</linearGradient>
<linearGradient id="paint1_linear" x1="201.856" y1="121.17" x2="197.768" y2="148.184" gradientUnits="userSpaceOnUse">
<stop stop-color="#09005D"/>
<stop offset="1" stop-color="#1A0F91"/>
</linearGradient>
<linearGradient id="paint2_linear" x1="202.762" y1="109.97" x2="195.701" y2="187.923" gradientUnits="userSpaceOnUse">
<stop stop-color="#53D8FF"/>
<stop offset="1" stop-color="#3840F7"/>
</linearGradient>
<linearGradient id="paint3_linear" x1="202.969" y1="109.988" x2="195.908" y2="187.942" gradientUnits="userSpaceOnUse">
<stop stop-color="#53D8FF"/>
<stop offset="1" stop-color="#3840F7"/>
</linearGradient>
<linearGradient id="paint4_linear" x1="202.577" y1="109.953" x2="195.516" y2="187.906" gradientUnits="userSpaceOnUse">
<stop stop-color="#53D8FF"/>
<stop offset="1" stop-color="#3840F7"/>
</linearGradient>
<linearGradient id="paint5_linear" x1="202.788" y1="109.972" x2="195.727" y2="187.927" gradientUnits="userSpaceOnUse">
<stop stop-color="#53D8FF"/>
<stop offset="1" stop-color="#3840F7"/>
</linearGradient>
<linearGradient id="paint6_linear" x1="204.935" y1="54.5367" x2="194.042" y2="128.45" gradientUnits="userSpaceOnUse">
<stop stop-color="#FF928E"/>
<stop offset="1" stop-color="#FE7062"/>
</linearGradient>
<linearGradient id="paint7_linear" x1="305.556" y1="-34.3193" x2="256.502" y2="34.1897" gradientUnits="userSpaceOnUse">
<stop stop-color="#E1473D"/>
<stop offset="1" stop-color="#E9605A"/>
</linearGradient>
<linearGradient id="paint8_linear" x1="298.736" y1="-39.203" x2="249.682" y2="29.3063" gradientUnits="userSpaceOnUse">
<stop stop-color="#E1473D"/>
<stop offset="1" stop-color="#E9605A"/>
</linearGradient>
<linearGradient id="paint9_linear" x1="143.512" y1="307.954" x2="70.6503" y2="385.798" gradientUnits="userSpaceOnUse">
<stop stop-color="#09005D"/>
<stop offset="1" stop-color="#1A0F91"/>
</linearGradient>
<linearGradient id="paint10_linear" x1="120.021" y1="313.557" x2="126.434" y2="313.618" gradientUnits="userSpaceOnUse">
<stop stop-color="#FEBBBA"/>
<stop offset="1" stop-color="#FF928E"/>
</linearGradient>
<linearGradient id="paint11_linear" x1="150.045" y1="219.285" x2="87.9012" y2="301.951" gradientUnits="userSpaceOnUse">
<stop stop-color="#09005D"/>
<stop offset="1" stop-color="#1A0F91"/>
</linearGradient>
<linearGradient id="paint12_linear" x1="127.456" y1="292.923" x2="54.5915" y2="370.77" gradientUnits="userSpaceOnUse">
<stop stop-color="#09005D"/>
<stop offset="1" stop-color="#1A0F91"/>
</linearGradient>
<linearGradient id="paint13_linear" x1="96.9092" y1="313.008" x2="102.446" y2="313.061" gradientUnits="userSpaceOnUse">
<stop stop-color="#FEBBBA"/>
<stop offset="1" stop-color="#FF928E"/>
</linearGradient>
<linearGradient id="paint14_linear" x1="139.171" y1="211.112" x2="77.0276" y2="293.777" gradientUnits="userSpaceOnUse">
<stop stop-color="#09005D"/>
<stop offset="1" stop-color="#1A0F91"/>
</linearGradient>
<linearGradient id="paint15_linear" x1="-129.655" y1="-247.595" x2="-73.1401" y2="-149.528" gradientUnits="userSpaceOnUse">
<stop stop-color="#FF928E"/>
<stop offset="1" stop-color="#FE7062"/>
</linearGradient>
<linearGradient id="paint16_linear" x1="148.009" y1="146.674" x2="180.775" y2="146.985" gradientUnits="userSpaceOnUse">
<stop stop-color="#FEBBBA"/>
<stop offset="1" stop-color="#FF928E"/>
</linearGradient>
<linearGradient id="paint17_linear" x1="173.529" y1="141.43" x2="151.109" y2="191.209" gradientUnits="userSpaceOnUse">
<stop stop-color="#FEBBBA"/>
<stop offset="1" stop-color="#FF928E"/>
</linearGradient>
<linearGradient id="paint18_linear" x1="180.829" y1="124.856" x2="190.123" y2="110.844" gradientUnits="userSpaceOnUse">
<stop stop-color="#FEBBBA"/>
<stop offset="1" stop-color="#FF928E"/>
</linearGradient>
<linearGradient id="paint19_linear" x1="-148.933" y1="-236.487" x2="-92.4183" y2="-138.42" gradientUnits="userSpaceOnUse">
<stop stop-color="#FF928E"/>
<stop offset="1" stop-color="#FE7062"/>
</linearGradient>
<linearGradient id="paint20_linear" x1="75.8682" y1="192.35" x2="117.333" y2="192.744" gradientUnits="userSpaceOnUse">
<stop stop-color="#FEBBBA"/>
<stop offset="1" stop-color="#FF928E"/>
</linearGradient>
<linearGradient id="paint21_linear" x1="108.13" y1="148.373" x2="124.524" y2="148.529" gradientUnits="userSpaceOnUse">
<stop stop-color="#FEBBBA"/>
<stop offset="1" stop-color="#FF928E"/>
</linearGradient>
<linearGradient id="paint22_linear" x1="128.524" y1="138.148" x2="110.615" y2="126.978" gradientUnits="userSpaceOnUse">
<stop stop-color="#FEBBBA"/>
<stop offset="1" stop-color="#FF928E"/>
</linearGradient>
<linearGradient id="paint23_linear" x1="101.172" y1="115.329" x2="124.263" y2="133.946" gradientUnits="userSpaceOnUse">
<stop stop-color="#09005D"/>
<stop offset="1" stop-color="#1A0F91"/>
</linearGradient>
<linearGradient id="paint24_linear" x1="123.751" y1="142.199" x2="107.637" y2="132.149" gradientUnits="userSpaceOnUse">
<stop stop-color="#FEBBBA"/>
<stop offset="1" stop-color="#FF928E"/>
</linearGradient>
<linearGradient id="paint25_linear" x1="128.453" y1="166.033" x2="151.285" y2="261.273" gradientUnits="userSpaceOnUse">
<stop stop-color="#09005D"/>
<stop offset="1" stop-color="#1A0F91"/>
</linearGradient>
<linearGradient id="paint26_linear" x1="112.774" y1="191.226" x2="125.738" y2="191.226" gradientUnits="userSpaceOnUse">
<stop stop-color="#FEBBBA"/>
<stop offset="1" stop-color="#FF928E"/>
</linearGradient>
<linearGradient id="paint27_linear" x1="73.8331" y1="254.275" x2="76.5227" y2="320.245" gradientUnits="userSpaceOnUse">
<stop stop-color="#4F52FF"/>
<stop offset="1" stop-color="#4042E2"/>
</linearGradient>
<linearGradient id="paint28_linear" x1="65.317" y1="316.341" x2="72.1549" y2="316.341" gradientUnits="userSpaceOnUse">
<stop stop-color="#FEBBBA"/>
<stop offset="1" stop-color="#FF928E"/>
</linearGradient>
<linearGradient id="paint29_linear" x1="109.934" y1="252.803" x2="112.623" y2="318.773" gradientUnits="userSpaceOnUse">
<stop stop-color="#4F52FF"/>
<stop offset="1" stop-color="#4042E2"/>
</linearGradient>
<linearGradient id="paint30_linear" x1="27.5081" y1="285.52" x2="81.6379" y2="285.52" gradientUnits="userSpaceOnUse">
<stop stop-color="#09005D"/>
<stop offset="1" stop-color="#1A0F91"/>
</linearGradient>
<linearGradient id="paint31_linear" x1="97.7054" y1="316.916" x2="105.869" y2="316.916" gradientUnits="userSpaceOnUse">
<stop stop-color="#FEBBBA"/>
<stop offset="1" stop-color="#FF928E"/>
</linearGradient>
<linearGradient id="paint32_linear" x1="76.6764" y1="262.993" x2="17.3251" y2="330.361" gradientUnits="userSpaceOnUse">
<stop stop-color="#09005D"/>
<stop offset="1" stop-color="#1A0F91"/>
</linearGradient>
<linearGradient id="paint33_linear" x1="52.3607" y1="202.006" x2="56.3777" y2="191.865" gradientUnits="userSpaceOnUse">
<stop stop-color="#FEBBBA"/>
<stop offset="1" stop-color="#FF928E"/>
</linearGradient>
<linearGradient id="paint34_linear" x1="161.074" y1="73.6439" x2="37.7852" y2="261.721" gradientUnits="userSpaceOnUse">
<stop stop-color="#4F52FF"/>
<stop offset="1" stop-color="#4042E2"/>
</linearGradient>
<linearGradient id="paint35_linear" x1="54.9711" y1="218.674" x2="133.082" y2="88.346" gradientUnits="userSpaceOnUse">
<stop stop-color="#09005D"/>
<stop offset="1" stop-color="#1A0F91"/>
</linearGradient>
<linearGradient id="paint36_linear" x1="86.7446" y1="241.434" x2="105.601" y2="241.434" gradientUnits="userSpaceOnUse">
<stop stop-color="#FEBBBA"/>
<stop offset="1" stop-color="#FF928E"/>
</linearGradient>
<linearGradient id="paint37_linear" x1="64.6481" y1="181.389" x2="46.6533" y2="199.357" gradientUnits="userSpaceOnUse">
<stop stop-color="#FEBBBA"/>
<stop offset="1" stop-color="#FF928E"/>
</linearGradient>
<linearGradient id="paint38_linear" x1="48.9793" y1="171.153" x2="70.1741" y2="192.121" gradientUnits="userSpaceOnUse">
<stop stop-color="#09005D"/>
<stop offset="1" stop-color="#1A0F91"/>
</linearGradient>
<linearGradient id="paint39_linear" x1="61.7348" y1="178.472" x2="43.7402" y2="196.44" gradientUnits="userSpaceOnUse">
<stop stop-color="#FEBBBA"/>
<stop offset="1" stop-color="#FF928E"/>
</linearGradient>
<linearGradient id="paint40_linear" x1="-3954.18" y1="-4067.54" x2="-3887.73" y2="-3996.42" gradientUnits="userSpaceOnUse">
<stop stop-color="#09005D"/>
<stop offset="1" stop-color="#1A0F91"/>
</linearGradient>
<linearGradient id="paint41_linear" x1="5748.43" y1="-1623.96" x2="5655.9" y2="-1593.6" gradientUnits="userSpaceOnUse">
<stop stop-color="#09005D"/>
<stop offset="1" stop-color="#1A0F91"/>
</linearGradient>
<linearGradient id="paint42_linear" x1="155.832" y1="452.081" x2="206.127" y2="250.678" gradientUnits="userSpaceOnUse">
<stop stop-color="#FEBBBA"/>
<stop offset="1" stop-color="#FF928E"/>
</linearGradient>
<linearGradient id="paint43_linear" x1="269.874" y1="205.373" x2="222.039" y2="285.993" gradientUnits="userSpaceOnUse">
<stop stop-color="#09005D"/>
<stop offset="1" stop-color="#1A0F91"/>
</linearGradient>
<linearGradient id="paint44_linear" x1="180.321" y1="324.715" x2="190.379" y2="174.52" gradientUnits="userSpaceOnUse">
<stop stop-color="#FEBBBA"/>
<stop offset="1" stop-color="#FF928E"/>
</linearGradient>
<linearGradient id="paint45_linear" x1="189.1" y1="258.898" x2="255.894" y2="258.898" gradientUnits="userSpaceOnUse">
<stop stop-color="#09005D"/>
<stop offset="1" stop-color="#1A0F91"/>
</linearGradient>
<linearGradient id="paint46_linear" x1="242.505" y1="189.137" x2="194.678" y2="269.746" gradientUnits="userSpaceOnUse">
<stop stop-color="#09005D"/>
<stop offset="1" stop-color="#1A0F91"/>
</linearGradient>
<linearGradient id="paint47_linear" x1="236.15" y1="147.46" x2="226.336" y2="199.077" gradientUnits="userSpaceOnUse">
<stop stop-color="#09005D"/>
<stop offset="1" stop-color="#1A0F91"/>
</linearGradient>
<linearGradient id="paint48_linear" x1="189.461" y1="314.56" x2="226.994" y2="230.321" gradientUnits="userSpaceOnUse">
<stop stop-color="#4F52FF"/>
<stop offset="1" stop-color="#4042E2"/>
</linearGradient>
<linearGradient id="paint49_linear" x1="219.875" y1="212.034" x2="215.859" y2="186.237" gradientUnits="userSpaceOnUse">
<stop stop-color="#FEBBBA"/>
<stop offset="1" stop-color="#FF928E"/>
</linearGradient>
<linearGradient id="paint50_linear" x1="197.993" y1="184.688" x2="228.16" y2="174.5" gradientUnits="userSpaceOnUse">
<stop stop-color="#FEBBBA"/>
<stop offset="1" stop-color="#FF928E"/>
</linearGradient>
<linearGradient id="paint51_linear" x1="191.557" y1="157.785" x2="226.743" y2="196.837" gradientUnits="userSpaceOnUse">
<stop stop-color="#09005D"/>
<stop offset="1" stop-color="#1A0F91"/>
</linearGradient>
<linearGradient id="paint52_linear" x1="197.095" y1="182.029" x2="227.262" y2="171.841" gradientUnits="userSpaceOnUse">
<stop stop-color="#FEBBBA"/>
<stop offset="1" stop-color="#FF928E"/>
</linearGradient>
<linearGradient id="paint53_linear" x1="236.401" y1="241.323" x2="292.408" y2="241.323" gradientUnits="userSpaceOnUse">
<stop stop-color="#FEBBBA"/>
<stop offset="1" stop-color="#FF928E"/>
</linearGradient>
<linearGradient id="paint54_linear" x1="237.464" y1="235.562" x2="202.735" y2="246.965" gradientUnits="userSpaceOnUse">
<stop stop-color="#09005D"/>
<stop offset="1" stop-color="#1A0F91"/>
</linearGradient>
<linearGradient id="paint55_linear" x1="189.745" y1="212.811" x2="164.758" y2="239.25" gradientUnits="userSpaceOnUse">
<stop stop-color="#09005D"/>
<stop offset="1" stop-color="#1A0F91"/>
</linearGradient>
<linearGradient id="paint56_linear" x1="268.049" y1="365.913" x2="267.681" y2="405.026" gradientUnits="userSpaceOnUse">
<stop stop-color="#09005D"/>
<stop offset="1" stop-color="#1A0F91"/>
</linearGradient>
<linearGradient id="paint57_linear" x1="277.487" y1="322.234" x2="279.514" y2="306.367" gradientUnits="userSpaceOnUse">
<stop stop-color="#FEBBBA"/>
<stop offset="1" stop-color="#FF928E"/>
</linearGradient>
<linearGradient id="paint58_linear" x1="320.953" y1="366.412" x2="320.584" y2="405.525" gradientUnits="userSpaceOnUse">
<stop stop-color="#09005D"/>
<stop offset="1" stop-color="#1A0F91"/>
</linearGradient>
<linearGradient id="paint59_linear" x1="321.893" y1="327.672" x2="323.869" y2="312.21" gradientUnits="userSpaceOnUse">
<stop stop-color="#FEBBBA"/>
<stop offset="1" stop-color="#FF928E"/>
</linearGradient>
<linearGradient id="paint60_linear" x1="290.735" y1="202.845" x2="309.027" y2="291.98" gradientUnits="userSpaceOnUse">
<stop stop-color="#09005D"/>
<stop offset="1" stop-color="#1A0F91"/>
</linearGradient>
<linearGradient id="paint61_linear" x1="323.088" y1="259.582" x2="320.876" y2="255.153" gradientUnits="userSpaceOnUse">
<stop stop-color="#4F52FF"/>
<stop offset="1" stop-color="#4042E2"/>
</linearGradient>
<linearGradient id="paint62_linear" x1="286.615" y1="166.575" x2="324.588" y2="279.511" gradientUnits="userSpaceOnUse">
<stop stop-color="#4F52FF"/>
<stop offset="1" stop-color="#4042E2"/>
</linearGradient>
<linearGradient id="paint63_linear" x1="306.929" y1="226.124" x2="279.181" y2="226.124" gradientUnits="userSpaceOnUse">
<stop stop-color="#FEBBBA"/>
<stop offset="1" stop-color="#FF928E"/>
</linearGradient>
<linearGradient id="paint64_linear" x1="281.358" y1="191.378" x2="229.539" y2="191.378" gradientUnits="userSpaceOnUse">
<stop stop-color="#FEBBBA"/>
<stop offset="1" stop-color="#FF928E"/>
</linearGradient>
<linearGradient id="paint65_linear" x1="300.013" y1="162.347" x2="282" y2="143.845" gradientUnits="userSpaceOnUse">
<stop stop-color="#FEBBBA"/>
<stop offset="1" stop-color="#FF928E"/>
</linearGradient>
<linearGradient id="paint66_linear" x1="273.859" y1="132.22" x2="296.311" y2="161.956" gradientUnits="userSpaceOnUse">
<stop stop-color="#FEBBBA"/>
<stop offset="1" stop-color="#FF928E"/>
</linearGradient>
<linearGradient id="paint67_linear" x1="308.133" y1="47.7207" x2="284.458" y2="116.4" gradientUnits="userSpaceOnUse">
<stop stop-color="#E1473D"/>
<stop offset="1" stop-color="#E9605A"/>
</linearGradient>
<linearGradient id="paint68_linear" x1="306.791" y1="155.75" x2="288.777" y2="137.248" gradientUnits="userSpaceOnUse">
<stop stop-color="#FEBBBA"/>
<stop offset="1" stop-color="#FF928E"/>
</linearGradient>
<linearGradient id="paint69_linear" x1="17.4303" y1="496.894" x2="84.08" y2="258.954" gradientUnits="userSpaceOnUse">
<stop stop-color="#4F52FF"/>
<stop offset="1" stop-color="#4042E2"/>
</linearGradient>
<linearGradient id="paint70_linear" x1="20.918" y1="497.869" x2="87.5676" y2="259.93" gradientUnits="userSpaceOnUse">
<stop stop-color="#4F52FF"/>
<stop offset="1" stop-color="#4042E2"/>
</linearGradient>
<linearGradient id="paint71_linear" x1="204.521" y1="549.3" x2="271.171" y2="311.361" gradientUnits="userSpaceOnUse">
<stop stop-color="#4F52FF"/>
<stop offset="1" stop-color="#4042E2"/>
</linearGradient>
<linearGradient id="paint72_linear" x1="208.009" y1="550.275" x2="274.659" y2="312.336" gradientUnits="userSpaceOnUse">
<stop stop-color="#4F52FF"/>
<stop offset="1" stop-color="#4042E2"/>
</linearGradient>
<linearGradient id="paint73_linear" x1="298.742" y1="169.969" x2="288.034" y2="214.993" gradientUnits="userSpaceOnUse">
<stop stop-color="#09005D"/>
<stop offset="1" stop-color="#1A0F91"/>
</linearGradient>
<linearGradient id="paint74_linear" x1="99.7047" y1="519.939" x2="166.354" y2="281.999" gradientUnits="userSpaceOnUse">
<stop stop-color="#4F52FF"/>
<stop offset="1" stop-color="#4042E2"/>
</linearGradient>
</defs>
</svg>
