<svg width="50" height="50" viewBox="0 0 50 50" fill="none" xmlns="http://www.w3.org/2000/svg">
<g clip-path="url(#clip0)">
<path d="M31.9489 0.270115C31.5521 -0.0900382 30.9479 -0.0900382 30.5511 0.270115C30.0978 0.6789 19.7222 10.1618 14.904 21.1526C14.3847 20.9703 13.7868 20.8337 13.0139 20.8337C11.19 20.8337 10.2114 21.5142 9.42505 22.0615C8.73844 22.5396 8.19626 22.917 7.02537 22.917C5.85653 22.917 5.31435 22.5395 4.62871 22.0625C3.84337 21.5152 2.86477 20.8337 1.04193 20.8337C0.466158 20.8337 0.000244141 21.2996 0.000244141 21.8754C0.000244141 22.4511 0.466158 22.9171 1.04193 22.9171C2.21077 22.9171 2.75295 23.2945 3.43859 23.7715C4.22393 24.3188 5.20254 25.0003 7.02537 25.0003C8.84928 25.0003 9.82886 24.3188 10.6152 23.7715C11.3018 23.2945 11.844 22.9171 13.0139 22.9171C14.1857 22.9171 14.729 23.2945 15.4166 23.7725C16.2029 24.3198 17.1825 25.0003 19.0075 25.0003C20.8314 25.0003 21.811 24.3198 22.5984 23.7725C23.285 23.2944 23.8282 22.9171 25.0001 22.9171C25.5759 22.9171 26.0418 22.4511 26.0418 21.8754C26.0418 21.2996 25.5759 20.8337 25.0001 20.8337C23.1752 20.8337 22.1955 21.5142 21.4082 22.0615C20.7216 22.5396 20.1784 22.917 19.0076 22.917C17.9131 22.917 17.3647 22.5831 16.7379 22.15C20.6559 13.1011 28.814 4.81948 31.2501 2.47341C34.4941 5.59936 47.9167 19.2569 47.9167 31.2502C47.9167 40.4399 40.4399 47.9167 31.2501 47.9167C27.102 47.9167 23.1771 46.3716 20.1389 43.6435C21.2661 43.4347 21.9938 42.9426 22.5985 42.5222C23.2851 42.0441 23.8283 41.6668 25.0002 41.6668C25.576 41.6668 26.0419 41.2009 26.0419 40.6251C26.0419 40.0493 25.576 39.5834 25.0002 39.5834C23.1753 39.5834 22.1956 40.264 21.4083 40.8112C20.7217 41.2893 20.1785 41.6667 19.0077 41.6667C17.8358 41.6667 17.2926 41.2892 16.6059 40.8112C15.8185 40.264 14.839 39.5834 13.0141 39.5834C11.1902 39.5834 10.2116 40.264 9.42525 40.8112C8.73864 41.2893 8.19645 41.6667 7.02557 41.6667C5.85673 41.6667 5.31455 41.2892 4.62891 40.8122C3.84357 40.2649 2.86496 39.5834 1.04213 39.5834C0.466353 39.5834 0.000439451 40.0493 0.000439451 40.6251C0.000439451 41.2009 0.466353 41.6668 1.04213 41.6668C2.21096 41.6668 2.75315 42.0442 3.43878 42.5213C4.22413 43.0685 5.20273 43.7501 7.02557 43.7501C8.84947 43.7501 9.82905 43.0685 10.6154 42.5213C11.302 42.0442 11.8442 41.6668 13.0141 41.6668C14.1859 41.6668 14.7292 42.0442 15.4168 42.5222C15.8411 42.8175 16.3361 43.1428 16.9755 43.388C20.5497 47.5867 25.7308 50 31.2501 50C41.5884 50 50 41.5885 50 31.2502C49.9999 16.7617 32.6854 0.936417 31.9489 0.270115Z" fill="#418EFF"/>
<path d="M1.04193 35.4169C2.21077 35.4169 2.75295 35.7943 3.43859 36.2714C4.22393 36.8186 5.20254 37.5002 7.02537 37.5002C7.60115 37.5002 8.06706 37.0342 8.06706 36.4585C8.06706 35.8827 7.60115 35.4168 7.02537 35.4168C5.85653 35.4168 5.31435 35.0393 4.62871 34.5623C3.84337 34.015 2.86477 33.3335 1.04193 33.3335C0.466158 33.3335 0.000244141 33.7994 0.000244141 34.3752C0.000244141 34.951 0.466158 35.4169 1.04193 35.4169Z" fill="#418EFF"/>
<path d="M13.0139 33.3335C12.4381 33.3335 11.9722 33.7994 11.9722 34.3752C11.9722 34.951 12.4381 35.4169 13.0139 35.4169C14.1857 35.4169 14.729 35.7943 15.4156 36.2723C16.203 36.8196 17.1826 37.5002 19.0075 37.5002C20.8314 37.5002 21.8109 36.8196 22.5983 36.2723C23.2849 35.7942 23.8282 35.4169 25.0001 35.4169C26.1913 35.4169 26.7975 35.8045 27.5635 36.2948C28.4475 36.8593 29.4495 37.5003 31.25 37.5003C31.8258 37.5003 32.2917 37.0343 32.2917 36.4586C32.2917 35.8828 31.8258 35.4169 31.25 35.4169C30.0588 35.4169 29.4526 35.0293 28.6866 34.539C27.8026 33.9744 26.8005 33.3335 25.0001 33.3335C23.1752 33.3335 22.1955 34.0141 21.4082 34.5613C20.7216 35.0394 20.1783 35.4168 19.0075 35.4168C17.8357 35.4168 17.2924 35.0393 16.6048 34.5613C15.8184 34.014 14.8388 33.3335 13.0139 33.3335Z" fill="#418EFF"/>
<path d="M13.0139 27.0835C11.19 27.0835 10.2114 27.7641 9.42505 28.3113C8.73844 28.7894 8.19626 29.1668 7.02537 29.1668C5.85653 29.1668 5.31435 28.7893 4.62871 28.3123C3.84337 27.765 2.86477 27.0835 1.04193 27.0835C0.466158 27.0835 0.000244141 27.5494 0.000244141 28.1252C0.000244141 28.701 0.466158 29.1669 1.04193 29.1669C2.21077 29.1669 2.75295 29.5443 3.43859 30.0214C4.22393 30.5686 5.20254 31.2502 7.02537 31.2502C8.84928 31.2502 9.82886 30.5686 10.6152 30.0214C11.3018 29.5443 11.844 29.1669 13.0139 29.1669C13.5897 29.1669 14.0556 28.701 14.0556 28.1252C14.0556 27.5493 13.5897 27.0835 13.0139 27.0835Z" fill="#418EFF"/>
<path d="M22.5983 30.0223C23.2849 29.5442 23.8282 29.1669 25 29.1669C26.1689 29.1669 26.711 29.5443 27.3967 30.0214C28.182 30.5686 29.1606 31.2502 30.9835 31.2502C32.8074 31.2502 33.7869 30.5686 34.5733 30.0214C35.2599 29.5443 35.8021 29.1669 36.972 29.1669C37.5477 29.1669 38.0137 28.701 38.0137 28.1252C38.0137 27.5494 37.5477 27.0835 36.972 27.0835C35.1481 27.0835 34.1695 27.7641 33.3831 28.3113C32.6965 28.7894 32.1543 29.1668 30.9835 29.1668C29.8146 29.1668 29.2724 28.7893 28.5868 28.3123C27.8015 27.765 26.8229 27.0835 25 27.0835C23.1751 27.0835 22.1955 27.7641 21.4082 28.3113C20.7216 28.7894 20.1783 29.1668 19.0075 29.1668C18.4317 29.1668 17.9658 29.6327 17.9658 30.2085C17.9658 30.7842 18.4317 31.2502 19.0075 31.2502C20.8313 31.2502 21.8109 30.5696 22.5983 30.0223Z" fill="#418EFF"/>
</g>
<defs>
<clipPath id="clip0">
<rect width="50" height="50" fill="white"/>
</clipPath>
</defs>
</svg>
