<svg width="26" height="26" viewBox="0 0 26 26" fill="none" xmlns="http://www.w3.org/2000/svg">
<path d="M12.9638 25.8109C9.69806 25.7853 6.57308 24.4674 4.26257 22.1413C1.95207 19.8152 0.6411 16.6671 0.612305 13.3759C0.645431 10.0861 1.95779 6.94056 4.26736 4.61537C6.57694 2.29019 9.69941 0.970865 12.9638 0.940918C16.228 0.974563 19.3488 2.29729 21.6558 4.62488C23.9627 6.95247 25.2717 10.0992 25.3014 13.3889C25.2663 16.6745 23.9548 19.8154 21.6482 22.1376C19.3417 24.4599 16.224 25.7787 12.9638 25.8109ZM12.9638 2.64692C10.8588 2.64692 8.80106 3.27584 7.05064 4.45418C5.30023 5.63252 3.93572 7.3074 3.12958 9.26711C2.32345 11.2268 2.11187 13.3834 2.5216 15.4643C2.93133 17.5451 3.94397 19.4569 5.43152 20.9579C6.91908 22.4589 8.81478 23.4817 10.879 23.8972C12.9433 24.3126 15.0834 24.102 17.0289 23.2919C18.9744 22.4819 20.6379 21.1087 21.8092 19.3461C22.9806 17.5834 23.6071 15.5104 23.6096 13.3889C23.6124 11.9785 23.339 10.5815 22.8051 9.27772C22.2713 7.97398 21.4874 6.78921 20.4985 5.79126C19.5096 4.79331 18.335 4.0018 17.0421 3.46207C15.7492 2.92234 14.3633 2.64499 12.9638 2.64592V2.64692Z" fill="white"/>
<path d="M10.2232 11.5929H8.85886C8.68765 11.6049 8.51695 11.5632 8.37008 11.4737C8.22321 11.3843 8.10733 11.2513 8.03827 11.0929C7.95941 10.9452 7.92802 10.7765 7.94846 10.6101C7.96891 10.4437 8.04017 10.2877 8.15238 10.1639C9.5541 8.34392 10.9644 6.52392 12.3833 4.70392C12.4638 4.58917 12.5709 4.49597 12.6952 4.43246C12.8196 4.36894 12.9575 4.33702 13.0969 4.33949C13.2363 4.34195 13.373 4.37872 13.495 4.4466C13.6171 4.51447 13.7209 4.61139 13.7973 4.72892C15.1203 6.52359 16.438 8.32658 17.7504 10.1379C17.8684 10.2689 17.9428 10.4338 17.9632 10.6095C17.9837 10.7852 17.9492 10.9629 17.8645 11.1179C17.7831 11.2756 17.6564 11.4049 17.501 11.4889C17.3456 11.5729 17.1687 11.6078 16.9933 11.5889C16.5637 11.5759 16.135 11.5889 15.6677 11.5889V15.8269C15.6677 16.5909 15.3769 16.8829 14.6199 16.8959H11.279C10.4961 16.8959 10.2053 16.5909 10.2053 15.8009V11.9239C10.2184 11.8141 10.2244 11.7035 10.2232 11.5929ZM10.5139 9.88791H10.8821C11.6272 9.88791 11.9299 10.1929 11.9299 10.9439V14.9149C11.9299 15.1309 11.9805 15.2079 12.2077 15.1949C12.7131 15.1822 13.2181 15.1822 13.7229 15.1949C13.9501 15.2079 14.0136 15.1189 14.0136 14.9019C14.0007 13.5659 14.0136 12.2419 14.0136 10.9019C13.9905 10.763 14.0007 10.6205 14.0432 10.4864C14.0858 10.3522 14.1596 10.2303 14.2584 10.1307C14.3573 10.0311 14.4783 9.95671 14.6114 9.91379C14.7445 9.87087 14.8859 9.86062 15.0237 9.88391H15.4911C14.6705 8.76392 13.8876 7.69492 13.0918 6.59992C12.2057 7.69892 11.3851 8.76791 10.5129 9.88791H10.5139Z" fill="white"/>
<path d="M10.4248 19.6367V17.9697H15.4763V19.6367H10.4248Z" fill="white"/>
<path d="M11.0947 20.7197H14.8077V22.3997H11.0947V20.7197Z" fill="white"/>
</svg>
