<svg width="19" height="24" viewBox="0 0 19 24" fill="none" xmlns="http://www.w3.org/2000/svg">
<path d="M9.46749 0.0336914C7.11379 0.0363382 4.85726 0.979815 3.19295 2.65713C1.52863 4.33444 0.59247 6.6086 0.589844 8.98068C0.589844 11.7557 2.01471 14.9807 4.82376 18.5587C6.08988 20.1719 7.48359 21.6792 8.99121 23.0657C9.12268 23.1827 9.29206 23.2473 9.46749 23.2473C9.64291 23.2473 9.8123 23.1827 9.94377 23.0657C11.4514 21.6792 12.8451 20.1719 14.1112 18.5587C16.9213 14.9777 18.3451 11.7587 18.3451 8.98068C18.3425 6.6086 17.4063 4.33444 15.742 2.65713C14.0777 0.979815 11.8212 0.0363382 9.46749 0.0336914V0.0336914ZM9.46749 21.5337C7.75685 19.8907 2.02563 14.0127 2.02563 8.98168C2.0887 7.036 2.89997 5.19128 4.28796 3.83741C5.67595 2.48353 7.53189 1.72661 9.46352 1.72661C11.3951 1.72661 13.2511 2.48353 14.6391 3.83741C16.0271 5.19128 16.8383 7.036 16.9014 8.98168C16.9054 14.0117 11.1781 19.8897 9.46749 21.5337Z" fill="white"/>
<path d="M14.9742 8.55063L9.93557 4.19764C9.80517 4.08492 9.63904 4.02295 9.46723 4.02295C9.29543 4.02295 9.1293 4.08492 8.99889 4.19764L3.96025 8.55063C3.88582 8.61176 3.82429 8.68728 3.77928 8.77275C3.73426 8.85822 3.70668 8.9519 3.69815 9.04828C3.68963 9.14466 3.70033 9.24179 3.72963 9.33393C3.75894 9.42608 3.80625 9.51138 3.86877 9.58481C3.9313 9.65824 4.00779 9.71831 4.09372 9.76149C4.17964 9.80466 4.27327 9.83007 4.36909 9.8362C4.46491 9.84233 4.56097 9.82908 4.65163 9.79721C4.74228 9.76534 4.82569 9.7155 4.89693 9.65063L5.50816 9.12263V12.7226C5.50816 12.9149 5.58396 13.0993 5.71887 13.2353C5.85378 13.3712 6.03675 13.4476 6.22754 13.4476H12.7059C12.8967 13.4476 13.0797 13.3712 13.2146 13.2353C13.3495 13.0993 13.4253 12.9149 13.4253 12.7226V9.12363L14.0365 9.65163C14.1078 9.7165 14.1912 9.76634 14.2818 9.79821C14.3725 9.83008 14.4686 9.84333 14.5644 9.8372C14.6602 9.83106 14.7538 9.80566 14.8398 9.76248C14.9257 9.71931 15.0022 9.65924 15.0647 9.58581C15.1272 9.51238 15.1745 9.42708 15.2038 9.33493C15.2331 9.24279 15.2439 9.14566 15.2353 9.04928C15.2268 8.9529 15.1992 8.85921 15.1542 8.77375C15.1092 8.68828 15.0476 8.61276 14.9732 8.55163L14.9742 8.55063ZM11.9866 12.0036H6.94791V7.88063L9.46723 5.70463L11.9866 7.88063V12.0036Z" fill="white"/>
</svg>
