<svg width="23" height="25" viewBox="0 0 23 25" fill="none" xmlns="http://www.w3.org/2000/svg">
<path d="M11.7852 0.433117L11.7851 0.433111C11.6257 0.340395 11.4294 0.340395 11.2699 0.433111L11.2699 0.433117L3.68014 4.8492C3.31742 4.48287 2.81635 4.25526 2.26307 4.25526C1.15786 4.25526 0.25957 5.16114 0.25957 6.27402C0.25957 7.20756 0.891817 7.99482 1.74795 8.22457V17.0542C1.74795 17.2393 1.84598 17.4105 2.00533 17.5033L2.00536 17.5034L9.593 21.9184C9.54791 22.0862 9.52341 22.2627 9.52341 22.4448C9.52341 23.5575 10.4217 24.4636 11.5269 24.4636C12.6319 24.4636 13.5302 23.5575 13.5302 22.4448C13.5302 22.2629 13.5059 22.0868 13.4608 21.9189L21.0497 17.5034C21.2091 17.4107 21.3071 17.2392 21.3071 17.0542V8.22457C22.1633 7.99482 22.7955 7.20756 22.7955 6.27402C22.7955 5.16114 21.8972 4.25526 20.792 4.25526C20.2387 4.25526 19.7375 4.48287 19.3748 4.8492L11.7852 0.433117ZM1.28981 6.27402C1.28981 5.73254 1.72673 5.29277 2.26307 5.29277C2.79922 5.29277 3.23614 5.73253 3.23614 6.27402C3.23614 6.81533 2.79921 7.25527 2.26307 7.25527C1.72673 7.25527 1.28981 6.81532 1.28981 6.27402ZM11.5269 23.4261C10.9906 23.4261 10.5536 22.9863 10.5536 22.4448C10.5536 21.9035 10.9906 21.4636 11.5269 21.4636C12.0631 21.4636 12.5002 21.9035 12.5002 22.4448C12.5002 22.9863 12.0631 23.4261 11.5269 23.4261ZM20.2769 16.7548L12.9451 21.0209C12.5822 20.6541 12.0807 20.4261 11.5269 20.4261C10.9734 20.4261 10.472 20.6539 10.1093 21.0204L2.77818 16.7548V8.22457C3.63414 7.99482 4.26638 7.20756 4.26638 6.27402C4.26638 6.09168 4.24187 5.91504 4.19662 5.74683L11.5274 1.48139L18.8585 5.74683C18.8132 5.91501 18.7887 6.09151 18.7887 6.27402C18.7887 7.20756 19.4209 7.99482 20.2769 8.22457V16.7548ZM20.792 7.25527C20.2559 7.25527 19.8188 6.81532 19.8188 6.27402C19.8188 5.73254 20.2559 5.29277 20.792 5.29277C21.3284 5.29277 21.7653 5.73254 21.7653 6.27402C21.7653 6.81532 21.3283 7.25527 20.792 7.25527Z" fill="white" stroke="white" stroke-width="0.1"/>
<path d="M17.9256 7.64207L17.9256 7.64205L11.786 4.06984L11.786 4.06983C11.6266 3.97711 11.4302 3.97711 11.2708 4.06983L11.2708 4.06984L5.13124 7.64205L5.13121 7.64207C4.97186 7.73494 4.87383 7.90616 4.87383 8.09121V15.2358C4.87383 15.4208 4.97183 15.5923 5.13124 15.685C5.13124 15.685 5.13125 15.685 5.13125 15.685L11.2708 19.2574L11.2708 19.2574C11.3505 19.3036 11.4392 19.327 11.5283 19.327C11.6176 19.327 11.7064 19.3036 11.786 19.2574L11.786 19.2574L17.9256 15.685C17.9256 15.685 17.9256 15.685 17.9256 15.685C18.085 15.5923 18.183 15.4208 18.183 15.2358V8.09121C18.183 7.90616 18.085 7.73494 17.9256 7.64207ZM11.2708 12.1128L11.2708 12.1128C11.3505 12.159 11.4392 12.1824 11.5283 12.1824C11.6176 12.1824 11.7064 12.159 11.786 12.1128L11.786 12.1128L17.1528 8.99005V14.9364L12.0434 17.9094V15.8824C12.0434 15.5962 11.8132 15.3636 11.5283 15.3636C11.2436 15.3636 11.0134 15.5962 11.0134 15.8824V17.9094L5.90406 14.9364V8.99005L11.2708 12.1128ZM11.5283 11.0645L6.4186 8.09121L11.5283 5.11811L16.6382 8.09121L11.5283 11.0645Z" fill="white" stroke="white" stroke-width="0.1"/>
<path d="M11.1623 13.4063L11.1624 13.4062C11.2587 13.3096 11.391 13.2542 11.5272 13.2542C11.6628 13.2542 11.7957 13.3095 11.8915 13.4063C11.8915 13.4063 11.8916 13.4063 11.8916 13.4063L11.856 13.4415C11.9425 13.5287 11.9923 13.6495 11.9923 13.7729C11.9923 13.8962 11.9425 14.017 11.856 14.1042L11.1623 13.4063ZM11.1623 13.4063C11.0665 13.5029 11.0115 13.6364 11.0115 13.7729C11.0115 13.9093 11.0665 14.0429 11.1623 14.1394L11.1624 14.1395C11.2587 14.2361 11.3909 14.2917 11.5272 14.2917C11.6628 14.2917 11.7957 14.2362 11.8915 14.1394L11.1623 13.4063Z" fill="white" stroke="white" stroke-width="0.1"/>
</svg>
