<svg width="19" height="23" viewBox="0 0 19 23" fill="none" xmlns="http://www.w3.org/2000/svg">
<path d="M14.3177 16.6434C14.2164 16.6434 14.1151 16.5964 14.0375 16.5034L12.3584 14.4708C12.204 14.284 11.953 14.284 11.7987 14.4708C11.6443 14.6577 11.6443 14.9615 11.7987 15.1484C11.953 15.3352 11.953 15.639 11.7987 15.8259C11.6443 16.0128 11.3933 16.0128 11.2389 15.8259C10.7758 15.2653 10.7758 14.3539 11.2389 13.7933C11.7021 13.2336 12.4549 13.2336 12.9181 13.7933L14.598 15.8259C14.7524 16.0128 14.7524 16.3166 14.598 16.5034C14.5204 16.5964 14.4191 16.6434 14.3177 16.6434Z" fill="white"/>
<path d="M13.1977 15.2883C13.0964 15.2883 12.995 15.2414 12.9174 15.1484C12.4559 14.5878 12.4559 13.6764 12.9174 13.1158C13.3663 12.5734 14.1485 12.5734 14.5974 13.1158L15.7168 14.4709C15.8712 14.6578 15.8712 14.9615 15.7168 15.1484C15.5624 15.3353 15.3114 15.3353 15.1571 15.1484L14.0377 13.7933C13.8825 13.6055 13.6315 13.6074 13.4772 13.7933C13.3236 13.9802 13.3236 14.284 13.4772 14.4709C13.6307 14.6578 13.6315 14.9615 13.4772 15.1484C13.4004 15.2414 13.299 15.2883 13.1977 15.2883Z" fill="white"/>
<path d="M14.4655 22.9979C14.1742 22.9979 13.8812 22.9548 13.5931 22.8656L10.8325 22.0137C10.7296 21.982 10.6417 21.9025 10.5887 21.7913C10.4003 21.4003 10.2055 20.464 10.8199 19.7223C11.0922 19.3926 11.4587 19.2642 11.8166 19.2345L8.44012 15.1472C7.97699 14.5866 7.97699 13.6752 8.44012 13.1146C8.88899 12.5722 9.67195 12.5722 10.12 13.1146L13.4783 17.1798C13.6327 17.3667 13.6327 17.6705 13.4783 17.8574C13.3239 18.0443 13.073 18.0443 12.9186 17.8574L9.55953 13.7921C9.4107 13.612 9.15024 13.612 8.99983 13.7921C8.84545 13.979 8.84545 14.2828 8.99983 14.4697L13.198 19.5527C13.3279 19.7098 13.3508 19.9532 13.255 20.142C13.1592 20.3308 12.97 20.4132 12.7935 20.3462C12.4562 20.213 11.6685 20.0491 11.3788 20.3998C11.1571 20.6682 11.1745 20.9652 11.2165 21.1435L13.7878 21.937C14.7283 22.2293 15.7432 21.891 16.4312 21.0582L17.3962 19.891C18.4761 18.5828 18.4761 16.4553 17.3962 15.1472L15.7163 13.1146C15.5667 12.9335 15.3062 12.9335 15.1566 13.1146C15.0806 13.2056 15.0402 13.3254 15.0395 13.4529C15.0395 13.5813 15.0806 13.702 15.1558 13.7921C15.3102 13.979 15.3102 14.2828 15.1558 14.4697C15.0015 14.6565 14.7505 14.6565 14.5961 14.4697C14.3713 14.1975 14.2478 13.8362 14.2478 13.4519C14.2478 13.0686 14.3721 12.7073 14.5969 12.4361C15.0442 11.8917 15.8272 11.8917 16.276 12.4361L17.9552 14.4687C19.3437 16.1506 19.3437 18.8857 17.9552 20.5675L16.9901 21.7348C16.318 22.5522 15.4005 22.9979 14.4655 22.9979Z" fill="white"/>
<path d="M8.3125 20.125H1.97917C0.88825 20.125 0 19.0507 0 17.7292V5.27083C0 3.94929 0.88825 2.875 1.97917 2.875H3.5625C3.781 2.875 3.95833 3.08967 3.95833 3.35417C3.95833 3.61867 3.781 3.83333 3.5625 3.83333H1.97917C1.32446 3.83333 0.791667 4.47829 0.791667 5.27083V17.7292C0.791667 18.5217 1.32446 19.1667 1.97917 19.1667H8.3125C8.531 19.1667 8.70833 19.3813 8.70833 19.6458C8.70833 19.9103 8.531 20.125 8.3125 20.125Z" fill="white"/>
<path d="M9.10449 5.75H4.35449C3.69978 5.75 3.16699 5.10504 3.16699 4.3125V2.39583C3.16699 2.13133 3.34433 1.91667 3.56283 1.91667H4.78991C4.97437 0.824167 5.77316 0 6.72949 0C7.68583 0 8.48462 0.824167 8.66908 1.91667H9.89616C10.1147 1.91667 10.292 2.13133 10.292 2.39583V4.3125C10.292 5.10504 9.7592 5.75 9.10449 5.75ZM3.95866 2.875V4.3125C3.95866 4.57604 4.13599 4.79167 4.35449 4.79167H9.10449C9.32299 4.79167 9.50033 4.57604 9.50033 4.3125V2.875H8.31283C8.09433 2.875 7.91699 2.66033 7.91699 2.39583C7.91699 1.60329 7.3842 0.958333 6.72949 0.958333C6.07478 0.958333 5.54199 1.60329 5.54199 2.39583C5.54199 2.66033 5.36466 2.875 5.14616 2.875H3.95866Z" fill="white"/>
<path d="M13.0625 11.5C12.844 11.5 12.6667 11.2853 12.6667 11.0208V5.27083C12.6667 4.47829 12.1339 3.83333 11.4792 3.83333H9.89583C9.67733 3.83333 9.5 3.61867 9.5 3.35417C9.5 3.08967 9.67733 2.875 9.89583 2.875H11.4792C12.5701 2.875 13.4583 3.94929 13.4583 5.27083V11.0208C13.4583 11.2853 13.281 11.5 13.0625 11.5Z" fill="white"/>
<path d="M10.6875 8.62484H2.77083C2.55233 8.62484 2.375 8.41017 2.375 8.14567C2.375 7.88117 2.55233 7.6665 2.77083 7.6665H10.6875C10.906 7.6665 11.0833 7.88117 11.0833 8.14567C11.0833 8.41017 10.906 8.62484 10.6875 8.62484Z" fill="white"/>
<path d="M10.6875 11.4998H2.77083C2.55233 11.4998 2.375 11.2852 2.375 11.0207C2.375 10.7562 2.55233 10.5415 2.77083 10.5415H10.6875C10.906 10.5415 11.0833 10.7562 11.0833 11.0207C11.0833 11.2852 10.906 11.4998 10.6875 11.4998Z" fill="white"/>
<path d="M6.72917 14.3748H2.77083C2.55233 14.3748 2.375 14.1602 2.375 13.8957C2.375 13.6312 2.55233 13.4165 2.77083 13.4165H6.72917C6.94767 13.4165 7.125 13.6312 7.125 13.8957C7.125 14.1602 6.94767 14.3748 6.72917 14.3748Z" fill="white"/>
</svg>
