<svg width="50" height="50" viewBox="0 0 50 50" fill="none" xmlns="http://www.w3.org/2000/svg">
<g clip-path="url(#clip0)">
<path d="M25.0001 12.166C17.9234 12.166 12.166 17.9234 12.166 25.0001C12.166 32.0768 17.9234 37.8343 25.0001 37.8343C32.0769 37.8343 37.8343 32.0768 37.8343 25.0001C37.8343 17.9234 32.0769 12.166 25.0001 12.166ZM25.0001 35.1574C19.3994 35.1574 14.8429 30.6009 14.8429 25.0001C14.8429 19.3994 19.3994 14.8429 25.0001 14.8429C30.6009 14.8429 35.1574 19.3994 35.1574 25.0001C35.1574 30.6009 30.6009 35.1574 25.0001 35.1574Z" fill="#00C973"/>
<path d="M25.0001 9.63708C25.7393 9.63708 26.3385 9.03799 26.3385 8.29862V1.33846C26.3385 0.599273 25.7393 0 25.0001 0C24.2609 0 23.6616 0.599273 23.6616 1.33846V8.29862C23.6616 9.03799 24.2609 9.63708 25.0001 9.63708Z" fill="#00C973"/>
<path d="M25.0001 40.3633C24.2609 40.3633 23.6616 40.9624 23.6616 41.7017V48.6619C23.6616 49.4013 24.2609 50.0004 25.0001 50.0004C25.7393 50.0004 26.3385 49.4013 26.3385 48.6619V41.7017C26.3385 40.9624 25.7393 40.3633 25.0001 40.3633Z" fill="#00C973"/>
<path d="M12.2439 14.1368C12.5051 14.3981 12.8478 14.5287 13.1903 14.5287C13.5327 14.5287 13.8754 14.3981 14.1366 14.1368C14.6594 13.6139 14.6594 12.7667 14.1366 12.2439L9.21521 7.32208C8.69268 6.79972 7.84517 6.79936 7.32245 7.32208C6.79974 7.84497 6.79974 8.6923 7.32245 9.21501L12.2439 14.1368Z" fill="#00C973"/>
<path d="M37.756 35.8636C37.2333 35.341 36.3858 35.341 35.8632 35.8636C35.3405 36.3865 35.3405 37.2338 35.8632 37.7567L40.7848 42.6783C41.0461 42.9396 41.3887 43.0702 41.7312 43.0702C42.0737 43.0702 42.4163 42.9396 42.6776 42.6783C43.2003 42.1554 43.2003 41.3081 42.6776 40.7854L37.756 35.8636Z" fill="#00C973"/>
<path d="M9.63763 25.0001C9.63763 24.2607 9.03836 23.6616 8.29918 23.6616H1.33919C0.600005 23.6616 0.000732422 24.2607 0.000732422 25.0001C0.000732422 25.7394 0.600005 26.3385 1.33919 26.3385H8.29918C9.03836 26.3385 9.63763 25.7394 9.63763 25.0001Z" fill="#00C973"/>
<path d="M48.6617 23.6616H41.7015C40.9623 23.6616 40.363 24.2607 40.363 25.0001C40.363 25.7394 40.9623 26.3385 41.7015 26.3385H48.6617C49.4009 26.3385 50.0001 25.7394 50.0001 25.0001C50.0001 24.2607 49.4009 23.6616 48.6617 23.6616Z" fill="#00C973"/>
<path d="M36.8096 14.529C37.1521 14.529 37.4947 14.3984 37.756 14.1371L42.6776 9.2155C43.2003 8.69261 43.2003 7.84528 42.6776 7.32256C42.1549 6.80003 41.3074 6.80003 40.7848 7.32256L35.8632 12.2442C35.3405 12.7672 35.3405 13.6144 35.8632 14.1371C36.1245 14.3984 36.4671 14.529 36.8096 14.529Z" fill="#00C973"/>
<path d="M12.2438 35.8631L7.32221 40.7847C6.7995 41.3076 6.7995 42.1549 7.32221 42.6776C7.58348 42.9389 7.92612 43.0695 8.26859 43.0695C8.61106 43.0695 8.9537 42.9389 9.21497 42.6776L14.1366 37.7561C14.6593 37.2332 14.6593 36.3858 14.1366 35.8629C13.614 35.3406 12.7665 35.3406 12.2438 35.8631Z" fill="#00C973"/>
</g>
<defs>
<clipPath id="clip0">
<rect width="50" height="50" fill="white"/>
</clipPath>
</defs>
</svg>
