<svg width="174" height="138" viewBox="0 0 174 138" fill="none" xmlns="http://www.w3.org/2000/svg">
<g clip-path="url(#clip0)">
<path d="M31.9057 16.2692C31.5806 16.3052 31.2674 16.4124 30.988 16.5831C30.7087 16.7538 30.47 16.984 30.2888 17.2574C30.1076 17.5308 29.9884 17.8407 29.9394 18.1654C29.8904 18.4901 29.9129 18.8217 30.0053 19.1367L23.5376 23.7778L27.3928 25.2676L32.9436 20.6319C33.4603 20.441 33.8893 20.0663 34.1493 19.579C34.4093 19.0916 34.4823 18.5254 34.3543 17.9876C34.2264 17.4498 33.9064 16.9779 33.4551 16.6612C33.0038 16.3445 32.4525 16.205 31.9057 16.2692L31.9057 16.2692Z" fill="#FFB8B8"/>
<path d="M31.3043 23.2596L23.2817 31.3657C22.1823 32.4695 20.7325 33.1515 19.1843 33.2934L9.27107 34.2017C8.90765 34.2366 8.54096 34.1979 8.19268 34.0879C7.8444 33.978 7.52159 33.7991 7.24333 33.5618C6.85836 33.2383 6.5721 32.8122 6.41742 32.3326C6.26274 31.853 6.24592 31.3393 6.3689 30.8505C6.49187 30.3618 6.74965 29.9178 7.11261 29.5695C7.47558 29.2212 7.92902 28.9829 8.42083 28.8817L18.5483 26.7163L27.7686 19.8911C27.8967 19.8187 28.0416 19.7811 28.1886 19.7823C28.3357 19.7834 28.48 19.823 28.6071 19.8974L31.1145 21.9601C31.2654 22.0431 31.3865 22.1715 31.4611 22.3272C31.5356 22.4829 31.5597 22.6581 31.53 22.8283C31.5007 22.9919 31.4219 23.1426 31.3043 23.2596Z" fill="#2F2E41"/>
<path d="M127.489 27.6163C127.549 27.063 127.438 26.5046 127.17 26.017C126.903 25.5294 126.492 25.1364 125.995 24.8912L76.0675 0.386316C75.75 0.230331 75.405 0.138671 75.0522 0.116572C74.6994 0.0944731 74.3458 0.142366 74.0114 0.257518C73.6771 0.37267 73.3686 0.552826 73.1036 0.787698C72.8386 1.02257 72.6222 1.30756 72.4669 1.62639L72.466 1.62827L53.74 40.103C53.4274 40.7475 53.3821 41.4901 53.614 42.168C53.8458 42.846 54.3359 43.404 54.9767 43.7196L104.904 68.2246C105.546 68.5384 106.285 68.5839 106.961 68.3511C107.636 68.1183 108.191 67.6262 108.506 66.9826L127.232 28.5078C127.368 28.228 127.456 27.9263 127.489 27.6163Z" fill="#F2F2F2"/>
<path d="M98.2396 113.011H33.4562C32.6406 113.01 31.8586 112.684 31.2819 112.105C30.7052 111.526 30.3808 110.74 30.3799 109.921V21.6054C30.3808 20.7863 30.7052 20.0011 31.2819 19.4219C31.8586 18.8428 32.6406 18.517 33.4562 18.5161H98.2396C99.0552 18.517 99.8371 18.8428 100.414 19.4219C100.991 20.0011 101.315 20.7863 101.316 21.6054V109.921C101.315 110.74 100.991 111.526 100.414 112.105C99.8371 112.684 99.0552 113.01 98.2396 113.011Z" fill="white"/>
<path d="M50.6397 44.8515C52.9739 44.8515 54.8662 42.9512 54.8662 40.6071C54.8662 38.2631 52.9739 36.3628 50.6397 36.3628C48.3054 36.3628 46.4131 38.2631 46.4131 40.6071C46.4131 42.9512 48.3054 44.8515 50.6397 44.8515Z" fill="#E6E6E6"/>
<path d="M44.1973 52.2077C44.7945 52.5486 45.4195 52.8379 46.0656 53.0723L46.1798 53.112C47.4811 53.5708 48.8506 53.8044 50.2299 53.8028C50.5074 53.8028 50.7747 53.7931 51.0244 53.7741C51.6322 53.7367 52.2363 53.6531 52.8314 53.5239C53.1581 53.4522 53.4836 53.3665 53.7987 53.2694C53.8749 53.2468 53.9454 53.2247 54.0227 53.2004C55.3066 52.7823 56.513 52.1546 57.5935 51.3423C57.5067 51.1776 57.4118 51.0173 57.3089 50.8622C56.7534 50.0098 55.995 49.31 55.1022 48.8261C54.2095 48.3422 53.2108 48.0895 52.1963 48.0908H49.9718C48.7985 48.091 47.6499 48.4299 46.6629 49.0671C45.676 49.7042 44.8921 50.6128 44.4048 51.6847C44.3269 51.8554 44.2576 52.0299 44.1973 52.2077Z" fill="#E6E6E6"/>
<path d="M52.0732 53.4177C51.9313 53.4282 51.7946 53.4764 51.6772 53.5572C52.2737 53.5199 52.8664 53.4373 53.4504 53.3101L52.0732 53.4177Z" fill="#2F2E41"/>
<path d="M50.8956 29.0894C48.1734 29.0896 45.5275 29.9923 43.3685 31.6572C41.2094 33.3221 39.6581 35.6562 38.9553 38.2971C38.2524 40.938 38.4373 43.7381 39.4814 46.2626C40.5254 48.7872 42.3701 50.8951 44.7292 52.2591C45.3554 52.6232 46.0128 52.9305 46.6934 53.1772L46.8091 53.2174C48.1222 53.6803 49.504 53.916 50.8956 53.9144C51.1647 53.9144 51.4339 53.9054 51.6986 53.8853C52.3114 53.8475 52.9204 53.7631 53.5205 53.6329C53.8564 53.5592 54.1857 53.4721 54.4971 53.376C54.5727 53.3537 54.6438 53.3313 54.7217 53.3068C57.5194 52.3916 59.9004 50.5044 61.4366 47.9843C62.9727 45.4641 63.5634 42.4764 63.1023 39.5581C62.6413 36.6398 61.1587 33.9823 58.9212 32.0634C56.6837 30.1445 53.838 29.0899 50.8956 29.0894L50.8956 29.0894ZM58.0674 50.8003C57.001 51.6267 55.8007 52.2622 54.5193 52.679C54.4504 52.7014 54.3791 52.7237 54.308 52.746C54.0121 52.8376 53.7007 52.918 53.3803 52.9873C52.8126 53.1117 52.2363 53.1924 51.6563 53.2285C51.405 53.2464 51.1491 53.2554 50.8956 53.2554C49.5783 53.2562 48.2704 53.0334 47.0271 52.5964L46.9182 52.5584C46.2411 52.3141 45.5886 52.0059 44.9694 51.638C42.8129 50.3631 41.1205 48.4272 40.1408 46.1147C39.1612 43.8023 38.9459 41.2352 39.5268 38.7909C40.1076 36.3465 41.4539 34.1536 43.3678 32.5345C45.2817 30.9155 47.6622 29.9555 50.1597 29.7958C52.6571 29.6361 55.1397 30.285 57.2427 31.6471C59.3456 33.0093 60.9581 35.0129 61.843 37.3636C62.728 39.7142 62.8388 42.2879 62.1592 44.7065C61.4796 47.1251 60.0454 49.261 58.0674 50.8003V50.8003Z" fill="#CCCCCC"/>
<path d="M98.2396 113.011H33.4562C32.6406 113.01 31.8586 112.684 31.2819 112.105C30.7052 111.526 30.3808 110.74 30.3799 109.921V21.6054C30.3808 20.7863 30.7052 20.0011 31.2819 19.4219C31.8586 18.8428 32.6406 18.517 33.4562 18.5161H98.2396C99.0552 18.517 99.8371 18.8428 100.414 19.4219C100.991 20.0011 101.315 20.7863 101.316 21.6054V109.921C101.315 110.74 100.991 111.526 100.414 112.105C99.8371 112.684 99.0552 113.01 98.2396 113.011ZM33.4562 18.8796C32.7365 18.8804 32.0466 19.1678 31.5377 19.6788C31.0289 20.1898 30.7426 20.8827 30.7418 21.6054V109.921C30.7426 110.644 31.0289 111.337 31.5377 111.848C32.0466 112.359 32.7365 112.646 33.4562 112.647H98.2396C98.9592 112.646 99.6492 112.359 100.158 111.848C100.667 111.337 100.953 110.644 100.954 109.921V21.6054C100.953 20.8827 100.667 20.1898 100.158 19.6788C99.6492 19.1678 98.9592 18.8804 98.2396 18.8796L33.4562 18.8796Z" fill="#CCCCCC"/>
<path d="M85.6982 41.4542H67.3667C66.9821 41.4542 66.6132 41.3007 66.3413 41.0276C66.0693 40.7545 65.9165 40.3841 65.9165 39.9978C65.9165 39.6116 66.0693 39.2412 66.3413 38.9681C66.6132 38.6949 66.9821 38.5415 67.3667 38.5415H85.6982C86.0828 38.5415 86.4517 38.6949 86.7237 38.9681C86.9956 39.2412 87.1484 39.6116 87.1484 39.9978C87.1484 40.3841 86.9956 40.7545 86.7237 41.0276C86.4517 41.3007 86.0828 41.4542 85.6982 41.4542Z" fill="#E6E6E6"/>
<path d="M91.6804 46.3687H67.3667C66.9821 46.3687 66.6132 46.2153 66.3413 45.9422C66.0693 45.669 65.9165 45.2986 65.9165 44.9124C65.9165 44.5261 66.0693 44.1557 66.3413 43.8826C66.6132 43.6095 66.9821 43.4561 67.3667 43.4561H91.6804C92.065 43.4561 92.4339 43.6095 92.7059 43.8826C92.9778 44.1557 93.1306 44.5261 93.1306 44.9124C93.1306 45.2986 92.9778 45.669 92.7059 45.9422C92.4339 46.2153 92.065 46.3687 91.6804 46.3687Z" fill="#E6E6E6"/>
<path d="M85.6715 65.2203H40.0152C39.6305 65.2203 39.2617 65.0668 38.9897 64.7937C38.7177 64.5206 38.5649 64.1502 38.5649 63.7639C38.5649 63.3777 38.7177 63.0073 38.9897 62.7342C39.2617 62.4611 39.6305 62.3076 40.0152 62.3076H85.6715C86.0561 62.3076 86.4249 62.4611 86.6969 62.7342C86.9689 63.0073 87.1217 63.3777 87.1217 63.7639C87.1217 64.1502 86.9689 64.5206 86.6969 64.7937C86.4249 65.0668 86.0561 65.2203 85.6715 65.2203Z" fill="#E6E6E6"/>
<path d="M91.6537 70.1353H40.0152C39.6305 70.1353 39.2617 69.9819 38.9897 69.7088C38.7177 69.4356 38.5649 69.0652 38.5649 68.679C38.5649 68.2927 38.7177 67.9223 38.9897 67.6492C39.2617 67.3761 39.6305 67.2227 40.0152 67.2227H91.6537C92.0383 67.2227 92.4072 67.3761 92.6791 67.6492C92.9511 67.9223 93.1039 68.2927 93.1039 68.679C93.1039 69.0652 92.9511 69.4356 92.6791 69.7088C92.4072 69.9819 92.0383 70.1353 91.6537 70.1353Z" fill="#E6E6E6"/>
<path d="M85.6715 81.4322H40.0152C39.6305 81.4322 39.2617 81.2787 38.9897 81.0056C38.7177 80.7325 38.5649 80.3621 38.5649 79.9759C38.5649 79.5896 38.7177 79.2192 38.9897 78.9461C39.2617 78.673 39.6305 78.5195 40.0152 78.5195H85.6715C86.0561 78.5195 86.4249 78.673 86.6969 78.9461C86.9689 79.2192 87.1217 79.5896 87.1217 79.9759C87.1217 80.3621 86.9689 80.7325 86.6969 81.0056C86.4249 81.2787 86.0561 81.4322 85.6715 81.4322Z" fill="#E6E6E6"/>
<path d="M91.6537 86.3477H40.0152C39.6305 86.3477 39.2617 86.1943 38.9897 85.9212C38.7177 85.648 38.5649 85.2776 38.5649 84.8914C38.5649 84.5051 38.7177 84.1347 38.9897 83.8616C39.2617 83.5885 39.6305 83.4351 40.0152 83.4351H91.6537C92.0383 83.4351 92.4072 83.5885 92.6791 83.8616C92.9511 84.1347 93.1039 84.5051 93.1039 84.8914C93.1039 85.2776 92.9511 85.648 92.6791 85.9212C92.4072 86.1943 92.0383 86.3477 91.6537 86.3477Z" fill="#E6E6E6"/>
<path d="M85.6715 97.6441H40.0152C39.6305 97.6441 39.2617 97.4907 38.9897 97.2175C38.7177 96.9444 38.5649 96.574 38.5649 96.1878C38.5649 95.8015 38.7177 95.4311 38.9897 95.158C39.2617 94.8849 39.6305 94.7314 40.0152 94.7314H85.6715C86.0561 94.7314 86.4249 94.8849 86.6969 95.158C86.9689 95.4311 87.1217 95.8015 87.1217 96.1878C87.1217 96.574 86.9689 96.9444 86.6969 97.2175C86.4249 97.4907 86.0561 97.6441 85.6715 97.6441Z" fill="#E6E6E6"/>
<path d="M91.6536 102.56H40.0152C39.6305 102.56 39.2617 102.406 38.9897 102.133C38.7177 101.86 38.5649 101.49 38.5649 101.103C38.5649 100.717 38.7177 100.347 38.9897 100.074C39.2617 99.8004 39.6305 99.647 40.0152 99.647H91.6536C92.038 99.6475 92.4064 99.8011 92.6779 100.074C92.9495 100.347 93.1021 100.717 93.1021 101.103C93.1021 101.489 92.9495 101.859 92.6779 102.132C92.4064 102.406 92.038 102.559 91.6536 102.56Z" fill="#E6E6E6"/>
<path d="M125.265 52.8585C125.324 52.3052 125.213 51.7468 124.946 51.2592C124.678 50.7716 124.268 50.3786 123.77 50.1334L73.8428 25.6285C73.5253 25.4725 73.1804 25.3809 72.8276 25.3588C72.4748 25.3367 72.1211 25.3846 71.7868 25.4997C71.4525 25.6149 71.144 25.795 70.879 26.0299C70.614 26.2648 70.3976 26.5497 70.2423 26.8686L70.2414 26.8705L51.5154 65.3452C51.2028 65.9897 51.1575 66.7323 51.3893 67.4102C51.6212 68.0882 52.1113 68.6462 52.7521 68.9618L102.68 93.4668C103.321 93.7806 104.061 93.8261 104.736 93.5933C105.411 93.3605 105.967 92.8684 106.281 92.2248L125.007 53.75C125.144 53.4702 125.231 53.1685 125.265 52.8585Z" fill="white"/>
<path d="M125.265 52.8585C125.324 52.3052 125.213 51.7468 124.946 51.2592C124.678 50.7716 124.268 50.3786 123.77 50.1334L73.8428 25.6285C73.5253 25.4725 73.1804 25.3809 72.8276 25.3588C72.4748 25.3367 72.1211 25.3846 71.7868 25.4997C71.4525 25.6149 71.144 25.795 70.879 26.0299C70.614 26.2648 70.3976 26.5497 70.2423 26.8686L70.2414 26.8705L51.5154 65.3452C51.2028 65.9897 51.1575 66.7323 51.3893 67.4102C51.6212 68.0882 52.1113 68.6462 52.7521 68.9618L102.68 93.4668C103.321 93.7806 104.061 93.8261 104.736 93.5933C105.411 93.3605 105.967 92.8684 106.281 92.2248L125.007 53.75C125.144 53.4702 125.231 53.1685 125.265 52.8585ZM105.996 92.0851C105.719 92.6531 105.229 93.0874 104.633 93.2928C104.037 93.4983 103.385 93.458 102.819 93.181L52.8912 68.6761C52.3257 68.3976 51.8932 67.9053 51.6886 67.307C51.484 66.7088 51.5241 66.0535 51.8 65.4849L70.526 27.0102C70.8033 26.4422 71.2935 26.0079 71.8892 25.8025C72.485 25.597 73.1375 25.6372 73.7037 25.9143L123.631 50.4192C124.197 50.6977 124.629 51.19 124.834 51.7882C125.038 52.3865 124.998 53.0417 124.722 53.6104L105.996 92.0851Z" fill="#3F3D56"/>
<path d="M119.819 54.6082L106.743 81.4739C106.656 81.6533 106.501 81.7905 106.313 81.8554C106.126 81.9203 105.92 81.9075 105.741 81.82H105.741L60.3252 59.5294C60.2928 59.5138 60.2617 59.4954 60.2323 59.4745C60.0834 59.3727 59.976 59.2204 59.9298 59.0456C59.8836 58.8707 59.9018 58.685 59.9809 58.5225L73.0567 31.6567C73.0998 31.5679 73.16 31.4885 73.2338 31.4231C73.3075 31.3576 73.3934 31.3074 73.4864 31.2753C73.5795 31.2431 73.678 31.2297 73.7762 31.2358C73.8744 31.2419 73.9705 31.2673 74.059 31.3107L119.475 53.6012C119.653 53.6888 119.79 53.8441 119.855 54.0328C119.919 54.2216 119.907 54.4284 119.819 54.6077V54.6078L119.819 54.6082Z" fill="#E6E6E6"/>
<path d="M79.9473 53.2438C83.5797 53.2438 86.5244 50.2867 86.5244 46.639C86.5244 42.9913 83.5797 40.0342 79.9473 40.0342C76.3148 40.0342 73.3701 42.9913 73.3701 46.639C73.3701 50.2867 76.3148 53.2438 79.9473 53.2438Z" fill="#18A0FB"/>
<path d="M89.5774 74.0204L60.589 59.7926C60.5525 59.7752 60.5176 59.7546 60.4849 59.7308L85.802 42.612C85.958 42.5046 86.1395 42.4406 86.3282 42.4267C86.5168 42.4128 86.7057 42.4494 86.8757 42.5328C87.0456 42.6162 87.1904 42.7434 87.2954 42.9014C87.4003 43.0594 87.4616 43.2426 87.473 43.4322L88.8851 63.952L88.9532 64.9342L89.5774 74.0204Z" fill="#3F3D56"/>
<path opacity="0.2" d="M89.5775 74.0199L79.6802 69.1622L87.9881 64.4599L88.5862 64.1212L88.8852 63.9517L88.9533 64.9337L89.5775 74.0199Z" fill="black"/>
<path d="M105.718 81.9418L80.6455 69.6359L88.9533 64.9336L89.5515 64.5947L100.378 58.4664C101.087 58.0649 102.104 58.5173 102.335 59.2856C102.35 59.3378 102.362 59.3908 102.37 59.4445L105.718 81.9418Z" fill="#3F3D56"/>
<path d="M28.3571 84.2869L31.0841 84.2867L32.3817 73.7231L28.3564 73.7234L28.3571 84.2869Z" fill="#FFB8B8"/>
<path d="M27.6616 83.3928L33.0325 83.3926H33.0327C33.4821 83.3926 33.9272 83.4815 34.3425 83.6542C34.7578 83.8269 35.1351 84.0801 35.4529 84.3992C35.7708 84.7184 36.0229 85.0973 36.1949 85.5143C36.3669 85.9313 36.4554 86.3783 36.4554 86.8297V86.9414L27.6618 86.9417L27.6616 83.3928Z" fill="#2F2E41"/>
<path d="M7.15967 82.5435L9.98525 83.0984L13.4617 72.4183L9.29165 71.5991L7.15967 82.5435Z" fill="#FFB8B8"/>
<path d="M6.61952 81.4751L12.184 82.5681L12.1842 82.5682C12.6499 82.6597 13.0931 82.8424 13.4885 83.1059C13.8838 83.3693 14.2237 83.7084 14.4885 84.1038C14.7534 84.4992 14.9381 84.9431 15.0322 85.4101C15.1262 85.8772 15.1277 86.3583 15.0366 86.8259L15.014 86.9416L5.90332 85.152L6.61952 81.4751Z" fill="#2F2E41"/>
<path d="M32.3249 47.8479C32.2326 47.5329 32.0726 47.242 31.8562 46.9958C31.6398 46.7496 31.3723 46.554 31.0725 46.4228C30.7727 46.2916 30.4479 46.2281 30.1209 46.2366C29.794 46.2451 29.473 46.3255 29.1803 46.4721L23.4958 40.8921L22.7114 44.9649L28.2298 49.6394C28.5077 50.1167 28.9502 50.4751 29.4737 50.6467C29.9971 50.8182 30.565 50.791 31.0697 50.5702C31.5745 50.3494 31.9811 49.9503 32.2124 49.4486C32.4437 48.9468 32.4838 48.3773 32.3249 47.8479Z" fill="#FFB8B8"/>
<path d="M11.2346 19.1266C14.2521 19.1266 16.6983 16.6701 16.6983 13.6399C16.6983 10.6098 14.2521 8.15332 11.2346 8.15332C8.21715 8.15332 5.771 10.6098 5.771 13.6399C5.771 16.6701 8.21715 19.1266 11.2346 19.1266Z" fill="#FFB8B8"/>
<path d="M10.0878 19.2106C10.3781 19.3382 10.9726 17.0153 10.7063 16.5507C10.3103 15.8598 10.3337 15.8648 10.0708 15.4076C9.80787 14.9505 9.74905 14.3249 10.0895 13.9227C10.4299 13.5205 11.2178 13.5738 11.3731 14.0781C11.2732 13.1203 12.2166 12.3503 13.1512 12.1339C14.0857 11.9176 15.0715 12.0519 16.0112 11.8593C17.1017 11.6359 18.2364 10.7179 17.8013 9.51362C17.7266 9.31312 17.6148 9.12863 17.4718 8.96988C16.9691 8.40227 16.2659 8.1599 15.5783 7.92555C14.1479 7.43802 12.6784 6.94436 11.1688 6.99818C9.92504 7.06349 8.72717 7.49149 7.72182 8.22981C6.71646 8.96813 5.94724 9.98474 5.50829 11.1552C5.40426 11.4481 5.32366 11.7488 5.26728 12.0545C4.74913 14.8522 6.36701 17.6119 8.99473 18.6772L10.0878 19.2106Z" fill="#2F2E41"/>
<path d="M8.74535 49.3509C8.606 49.2663 8.49432 49.1426 8.42406 48.9951C8.35379 48.8476 8.32801 48.6826 8.34986 48.5206L5.88443 36.2563L3.38533 26.844H3.38538C3.11102 25.8126 3.19388 24.7182 3.62037 23.7404C4.04686 22.7625 4.79164 21.9593 5.73253 21.4624L7.38468 19.8926L10.9889 21.4519L12.7016 23.2006C13.93 23.8013 15.0196 24.6533 15.9005 25.7021C16.7814 26.7509 17.434 27.9732 17.8165 29.2903L20.5634 38.7295L26.9071 48.2071C27.013 48.365 27.0625 48.5544 27.0476 48.7442C27.0327 48.934 26.9542 49.1132 26.8249 49.2525C25.9424 50.2058 8.74535 49.3509 8.74535 49.3509Z" fill="#2F2E41"/>
<path d="M25.3657 48.4795L16.0114 41.9701C14.7364 41.0767 13.8134 39.7631 13.4028 38.2574L10.7734 28.6162C10.6755 28.263 10.6491 27.8937 10.6957 27.5301C10.7424 27.1665 10.8612 26.816 11.045 26.4992C11.2947 26.0619 11.6622 25.7041 12.1052 25.4671C12.5483 25.23 13.0489 25.1233 13.5497 25.1591C14.0504 25.195 14.5309 25.3719 14.936 25.6697C15.3411 25.9674 15.6544 26.3739 15.8398 26.8424L19.7393 36.4749L28.0479 44.3931C28.1414 44.5071 28.2036 44.6437 28.2283 44.7893C28.253 44.9349 28.2394 45.0845 28.1888 45.2232L26.6064 48.0639C26.5515 48.2276 26.4469 48.37 26.3073 48.4709C26.1678 48.5719 26.0002 48.6265 25.8282 48.627C25.6626 48.6268 25.5011 48.5753 25.3657 48.4795Z" fill="#2F2E41"/>
<path d="M5.93252 80.9086C5.85604 80.7985 5.80707 80.6716 5.78974 80.5385C5.77242 80.4054 5.78724 80.2701 5.83297 80.144L10.1605 64.3461L10.4803 48.8665L25.0479 47.8632L25.1186 47.8584L29.5063 55.8443C30.88 58.3411 31.7209 61.0977 31.9756 63.9388L33.4215 79.8505C33.4433 80.0668 33.3798 80.2831 33.2446 80.4529C33.1094 80.6226 32.9133 80.7324 32.6984 80.7585L28.3059 81.178C28.0943 81.2039 27.881 81.1457 27.7115 81.0158C27.5419 80.886 27.4297 80.6948 27.3986 80.483L25.6149 64.3136L19.1973 53.4245L17.043 64.8884L12.58 80.7197C12.5217 80.8777 12.4168 81.0141 12.2794 81.1109C12.142 81.2077 11.9786 81.2602 11.8107 81.2615L6.60534 81.2637C6.47281 81.2644 6.34215 81.2323 6.22484 81.1704C6.10753 81.1085 6.00715 81.0186 5.93252 80.9086Z" fill="#2F2E41"/>
<path d="M117.476 132.866H7.70419C5.75793 132.864 3.89202 132.086 2.51581 130.704C1.1396 129.322 0.36548 127.449 0.363281 125.494V64.9562C0.36548 63.0018 1.1396 61.1281 2.51581 59.7461C3.89202 58.3641 5.75793 57.5867 7.70419 57.5845H21.1631C22.9893 57.5829 24.7502 58.2664 26.1005 59.501L40.6959 69.967C41.6474 70.8402 42.8901 71.3239 44.1792 71.3228H118.158C119.131 71.3228 120.094 71.5171 120.992 71.8943C121.889 72.2715 122.703 72.8242 123.386 73.5202C124.069 74.2162 124.608 75.0415 124.97 75.9483C125.333 76.8552 125.512 77.8253 125.498 78.8023L124.816 125.602C124.78 127.536 123.992 129.378 122.62 130.736C121.249 132.093 119.402 132.858 117.476 132.866Z" fill="white"/>
<path d="M116.501 129.292H8.35381C7.41492 129.29 6.51479 128.915 5.85089 128.249C5.187 127.582 4.81356 126.678 4.8125 125.735V64.2076C4.81356 63.2647 5.187 62.3608 5.8509 61.6941C6.51479 61.0275 7.41492 60.6524 8.35381 60.6514C9.18424 60.6523 9.9804 60.984 10.5676 61.5737C11.1548 62.1633 11.4851 62.9629 11.486 63.7968V121.491C11.487 122.375 11.837 123.222 12.4592 123.847C13.0814 124.471 13.925 124.823 14.8049 124.824H116.136C116.639 124.818 117.13 124.982 117.53 125.289C117.93 125.596 118.215 126.029 118.342 126.519C118.483 126.983 118.465 127.481 118.292 127.934C118.118 128.387 117.798 128.768 117.384 129.017C117.121 129.189 116.815 129.284 116.501 129.292Z" fill="#F2F2F2"/>
<path d="M63.4115 99.7438L63.1267 99.4578C63.0677 99.4024 63.0331 99.3256 63.0304 99.2445C63.0278 99.1634 63.0573 99.0845 63.1126 99.0253C63.1171 99.0204 63.1218 99.0156 63.1267 99.0111L65.6249 96.5002C65.6522 96.4708 65.685 96.4472 65.7215 96.4306C65.758 96.414 65.7973 96.4048 65.8373 96.4035C65.8773 96.4022 65.9172 96.4088 65.9546 96.4229C65.9921 96.4371 66.0264 96.4585 66.0556 96.486C66.0605 96.4905 66.0652 96.4953 66.0698 96.5002L68.5679 99.0088C68.5971 99.0371 68.6205 99.071 68.6367 99.1084C68.6529 99.1457 68.6616 99.186 68.6623 99.2268C68.663 99.2675 68.6557 99.308 68.6408 99.346C68.6259 99.3839 68.6038 99.4185 68.5756 99.4479L68.5679 99.4556L68.2832 99.7415C68.2549 99.7709 68.2213 99.7943 68.184 99.8106C68.1468 99.8269 68.1067 99.8356 68.0661 99.8363C68.0255 99.837 67.9852 99.8297 67.9474 99.8148C67.9096 99.7998 67.8751 99.7776 67.8459 99.7492L67.8382 99.7415L66.3612 98.1778V101.888C66.3615 101.929 66.3538 101.969 66.3387 102.006C66.3235 102.044 66.3011 102.078 66.2728 102.107C66.2445 102.136 66.2109 102.159 66.1737 102.174C66.1366 102.19 66.0967 102.198 66.0564 102.199L66.0542 102.199H65.6426C65.5606 102.199 65.482 102.166 65.424 102.108C65.366 102.05 65.3334 101.971 65.3334 101.888V98.1823L63.8564 99.746C63.7991 99.805 63.7209 99.8387 63.6389 99.8397C63.5569 99.8407 63.4778 99.809 63.4191 99.7515L63.4115 99.7438Z" fill="#18A0FB"/>
<path d="M65.843 94.2195C66.8457 94.2195 67.8258 94.5181 68.6596 95.0775C69.4933 95.6369 70.143 96.432 70.5268 97.3622C70.9105 98.2925 71.0109 99.3161 70.8153 100.304C70.6196 101.291 70.1368 102.198 69.4278 102.91C68.7188 103.622 67.8155 104.107 66.832 104.304C65.8486 104.5 64.8293 104.399 63.9029 104.014C62.9765 103.629 62.1848 102.976 61.6277 102.139C61.0707 101.302 60.7733 100.317 60.7733 99.3105C60.7745 97.9606 61.309 96.6664 62.2595 95.7119C63.21 94.7574 64.4988 94.2207 65.843 94.2195ZM65.843 93.5493C64.7083 93.5493 63.5991 93.8872 62.6557 94.5202C61.7122 95.1533 60.9769 96.0531 60.5427 97.1058C60.1084 98.1585 59.9948 99.3169 60.2162 100.434C60.4376 101.552 60.984 102.579 61.7863 103.384C62.5886 104.19 63.6109 104.739 64.7237 104.961C65.8366 105.183 66.9901 105.069 68.0385 104.633C69.0868 104.197 69.9828 103.459 70.6132 102.511C71.2436 101.564 71.58 100.45 71.58 99.3105C71.58 97.7825 70.9756 96.3171 69.8997 95.2367C68.8238 94.1563 67.3645 93.5493 65.843 93.5493Z" fill="#3F3D56"/>
<path d="M117.476 132.866H7.70419C5.75793 132.864 3.89202 132.086 2.51581 130.704C1.1396 129.322 0.36548 127.449 0.363281 125.494V64.9562C0.36548 63.0018 1.1396 61.1281 2.51581 59.7461C3.89202 58.3641 5.75793 57.5867 7.70419 57.5845H21.1631C22.9893 57.5829 24.7502 58.2664 26.1005 59.501L40.6959 69.967C41.6474 70.8402 42.8901 71.3239 44.1792 71.3228H118.158C119.131 71.3228 120.094 71.5171 120.992 71.8943C121.889 72.2715 122.703 72.8242 123.386 73.5202C124.069 74.2162 124.608 75.0415 124.97 75.9483C125.333 76.8552 125.512 77.8253 125.498 78.8023L124.816 125.602C124.78 127.536 123.992 129.378 122.62 130.736C121.249 132.093 119.402 132.858 117.476 132.866ZM7.70419 58.0312C5.87589 58.0333 4.12308 58.7636 2.83027 60.0618C1.53747 61.3601 0.810262 63.1203 0.808185 64.9562V125.494C0.810262 127.33 1.53747 129.09 2.83027 130.389C4.12308 131.687 5.87589 132.417 7.70419 132.419H117.476C119.285 132.412 121.02 131.694 122.309 130.418C123.597 129.143 124.338 127.412 124.371 125.595L125.053 78.7958C125.066 77.878 124.898 76.9666 124.557 76.1148C124.217 75.2629 123.711 74.4875 123.07 73.8337C122.428 73.18 121.663 72.6608 120.82 72.3064C119.977 71.952 119.072 71.7696 118.158 71.7696H44.1792C42.7838 71.7707 41.4382 71.2489 40.4059 70.3061L25.8105 59.8402C24.541 58.6751 22.8829 58.0298 21.1631 58.0312H7.70419Z" fill="#3F3D56"/>
<path d="M126.779 134.044H124.052L123.2 123.481L126.78 123.481L126.779 134.044Z" fill="#FFB8B8"/>
<path d="M127.475 136.699L118.681 136.699V136.587C118.681 136.136 118.77 135.689 118.942 135.272C119.114 134.855 119.366 134.476 119.684 134.157C120.001 133.838 120.379 133.585 120.794 133.412C121.209 133.239 121.654 133.15 122.104 133.15H122.104L127.475 133.151L127.475 136.699Z" fill="#2F2E41"/>
<path d="M157.255 134.044H154.528L153.23 123.481L157.256 123.481L157.255 134.044Z" fill="#FFB8B8"/>
<path d="M157.951 136.699L149.157 136.699V136.587C149.157 136.136 149.246 135.689 149.418 135.272C149.59 134.855 149.842 134.476 150.16 134.157C150.478 133.838 150.855 133.585 151.27 133.412C151.685 133.239 152.13 133.15 152.58 133.15H152.58L157.951 133.151L157.951 136.699Z" fill="#2F2E41"/>
<path d="M148.288 101.389C148.664 100.946 148.877 100.385 148.888 99.8029C148.9 99.2205 148.711 98.652 148.353 98.1939C148.28 98.1062 148.2 98.0246 148.114 97.9501L150.169 90.3345L146.745 91.475L145.319 98.5321C145.083 98.9672 144.978 99.4624 145.018 99.9566C145.058 100.451 145.242 100.922 145.546 101.313C145.704 101.524 145.909 101.696 146.143 101.817C146.377 101.939 146.635 102.005 146.899 102.012C147.162 102.02 147.424 101.967 147.664 101.859C147.905 101.751 148.118 101.591 148.288 101.389Z" fill="#FFB8B8"/>
<path d="M148.156 96.7038C148.113 96.7038 148.07 96.7006 148.027 96.6942L146.244 96.424C146.105 96.4001 145.973 96.3459 145.857 96.2653C145.741 96.1848 145.644 96.0798 145.573 95.9577C145.419 95.6978 145.363 95.3905 145.417 95.0926L147.643 82.6094L146.133 74.5895C145.842 73.0461 146.593 71.4873 147.88 70.9635C148.261 70.8067 148.677 70.752 149.086 70.8046C149.495 70.8572 149.884 71.0154 150.214 71.2638C150.57 71.5346 150.865 71.8775 151.081 72.2704C151.296 72.6633 151.427 73.0973 151.464 73.5442L152.533 83.77L152.52 83.8145L149.082 95.933C149.032 96.1453 148.915 96.3355 148.748 96.4746C148.58 96.6138 148.373 96.6943 148.156 96.7038Z" fill="#18A0FB"/>
<path d="M147.629 66.544C150.647 66.544 153.093 64.0876 153.093 61.0574C153.093 58.0272 150.647 55.5708 147.629 55.5708C144.612 55.5708 142.166 58.0272 142.166 61.0574C142.166 64.0876 144.612 66.544 147.629 66.544Z" fill="#FFB8B8"/>
<path d="M144.832 86.5613C144.696 86.5613 144.561 86.5361 144.434 86.4869L135.798 83.1514C135.565 83.0618 135.368 82.8955 135.24 82.6794C135.112 82.4633 135.061 82.2102 135.095 81.9613L135.442 79.3492C135.236 78.4232 135.255 77.4612 135.497 76.5441C135.739 75.627 136.197 74.7817 136.832 74.0795L137.042 73.8471L139.597 69.1685C139.77 68.8516 140.004 68.5721 140.285 68.3464C140.567 68.1206 140.89 67.9529 141.236 67.8531C141.582 67.7533 141.944 67.7232 142.301 67.7646C142.659 67.8061 143.005 67.9182 143.319 68.0946L147.831 70.6265C148.425 70.9592 148.873 71.5031 149.088 72.1511C149.695 73.9856 149.65 75.9747 148.96 77.7796L145.871 85.8453C145.79 86.0556 145.647 86.2364 145.462 86.3641C145.276 86.4918 145.057 86.5605 144.832 86.5613Z" fill="#18A0FB"/>
<path d="M122.2 131.451L122.188 131.449C122.041 131.42 121.901 131.362 121.777 131.278C121.652 131.194 121.546 131.085 121.465 130.959C121.383 130.832 121.328 130.691 121.302 130.542C121.277 130.394 121.281 130.242 121.316 130.095L127.934 101.046C129.017 96.441 130.514 91.944 132.405 87.6102L135.221 81.1641L145.726 85.9803L147.226 88.7352C148.396 91.8035 148.997 95.0605 149.001 98.3459L159.675 129.761C159.727 129.915 159.746 130.078 159.729 130.239C159.712 130.4 159.66 130.555 159.577 130.695C159.495 130.834 159.383 130.953 159.25 131.045C159.116 131.136 158.965 131.197 158.806 131.224L152.962 131.157C152.907 131.167 152.851 131.172 152.795 131.171C152.573 131.172 152.357 131.105 152.174 130.98C151.99 130.855 151.849 130.678 151.767 130.471L139.564 98.7087C139.547 98.6665 139.517 98.6307 139.479 98.6059C139.441 98.5812 139.396 98.5688 139.35 98.5703C139.306 98.571 139.263 98.5855 139.227 98.6117C139.191 98.638 139.164 98.6747 139.15 98.717L127.571 130.638C127.483 130.886 127.309 131.094 127.081 131.226C126.853 131.357 126.587 131.403 126.328 131.355L122.2 131.451Z" fill="#2F2E41"/>
<path d="M130.189 95.7277C130.497 95.6176 130.778 95.4411 131.011 95.2105C131.243 94.9798 131.423 94.7008 131.537 94.3929C131.651 94.085 131.696 93.7558 131.669 93.4285C131.643 93.1012 131.545 92.7837 131.383 92.4984L136.616 86.4892L132.523 85.9287L128.181 91.7211C127.722 92.0262 127.39 92.4898 127.248 93.0242C127.107 93.5585 127.165 94.1264 127.413 94.6202C127.661 95.1141 128.08 95.4996 128.592 95.7037C129.103 95.9078 129.672 95.9164 130.189 95.7277Z" fill="#FFB8B8"/>
<path d="M132.656 91.4945C132.473 91.4944 132.294 91.4495 132.133 91.3636L130.292 90.3774C130.157 90.305 130.038 90.2054 129.943 90.0848C129.848 89.9641 129.779 89.8251 129.74 89.6764C129.701 89.5277 129.693 89.3725 129.716 89.2205C129.74 89.0686 129.794 88.9231 129.876 88.7933L136.678 78.0311L137.857 69.9095C137.918 69.4898 138.063 69.0868 138.284 68.725C138.504 68.3633 138.796 68.0502 139.14 67.8048C139.485 67.5595 139.875 67.3868 140.288 67.2975C140.701 67.2081 141.128 67.2038 141.543 67.2848C141.957 67.3658 142.351 67.5305 142.701 67.7689C143.05 68.0073 143.348 68.3144 143.575 68.6716C143.803 69.0288 143.956 69.4288 144.026 69.8472C144.095 70.2657 144.079 70.6939 143.979 71.106L141.544 81.1162L133.522 91.0803C133.418 91.21 133.286 91.3147 133.136 91.3864C132.986 91.4581 132.822 91.495 132.656 91.4945Z" fill="#18A0FB"/>
<path d="M142.712 56.5303C143.344 54.4492 146.995 53.5206 150.03 54.3841C153.065 55.2476 155.245 57.5116 155.753 59.725C156.876 64.6267 151.014 68.6048 152.077 73.507C152.779 76.7503 156.845 79.8168 161.424 80.5574C156.378 81.6177 150.218 80.6857 145.539 78.1539C142.626 76.5782 140.183 74.2003 140.22 71.8018C140.242 70.3496 141.162 69.0655 142.287 67.956C143.412 66.8466 144.759 65.8604 145.791 64.7024C146.823 63.5444 147.539 62.1578 147.237 60.6877C146.936 59.2177 145.405 57.6847 143.346 57.2569L142.712 56.5303Z" fill="#2F2E41"/>
<path d="M173.141 137.11H88.3865C88.3275 137.11 88.2709 137.087 88.2292 137.045C88.1875 137.003 88.1641 136.946 88.1641 136.887C88.1641 136.828 88.1875 136.771 88.2292 136.729C88.2709 136.687 88.3275 136.664 88.3865 136.664H173.141C173.2 136.664 173.256 136.687 173.298 136.729C173.34 136.771 173.363 136.828 173.363 136.887C173.363 136.946 173.34 137.003 173.298 137.045C173.256 137.087 173.2 137.11 173.141 137.11Z" fill="#CCCCCC"/>
</g>
<defs>
<clipPath id="clip0">
<rect width="173" height="137" fill="white" transform="translate(0.363281 0.110352)"/>
</clipPath>
</defs>
</svg>
