<svg width="659" height="461" viewBox="0 0 659 461" fill="none" xmlns="http://www.w3.org/2000/svg">
<g clip-path="url(#clip0)">
<g opacity="0.2">
<path opacity="0.2" d="M302.331 390.681C283.032 390.734 263.732 391.186 244.466 393.267C237.2 394.051 230.093 395.779 222.813 396.471C208.274 397.86 193.987 400.452 179.395 401.649C167.64 402.613 155.839 403.178 144.125 404.401C133.139 405.544 120.973 405.285 110.074 403.39C102.006 401.988 93.8974 401.197 85.9616 398.95C77.0843 396.431 67.4446 394.629 58.196 394.696C45.0094 394.789 32.1675 394.802 19.5444 399.242C15.1157 400.805 9.69257 403.37 6.32464 406.647C-1.37916 414.145 -2.42004 432.857 5.27051 440.634C18.2251 453.722 45.8647 458.86 64.0236 459.106C83.9196 459.372 103.245 457.936 123.168 457.092C141.678 456.307 160.149 455.191 178.692 455.231C216.568 455.31 254.444 455.231 292.254 452.771C327.776 450.465 363.385 451.256 398.98 451.256C435.484 451.256 471.742 451.535 507.98 456.248C523.772 458.302 539.856 459.019 555.728 460.455C569.942 461.745 583.599 460.429 597.754 459.239C609.641 458.242 621.449 455.277 632.249 450.265C640.795 446.297 656.036 433.973 658.655 424.508C666.001 397.966 555.085 398.604 538.053 398.664C518.999 398.731 499.799 399.342 480.765 398.631C472.756 398.332 464.867 396.816 457.05 395.148C449.267 393.486 441.424 393.912 433.528 393.214C400.604 390.309 367.615 390.734 334.592 390.734C323.838 390.748 313.085 390.654 302.331 390.681Z" fill="#F7F7F7"/>
</g>
<path d="M168.582 56.8457H85.1592V140.486H168.582V56.8457Z" fill="#D7E8F4"/>
<path d="M85.1592 56.8457L108.609 30.417H192.031L168.582 56.8457H85.1592Z" fill="#E4F0F4"/>
<path d="M168.582 56.8457V140.486L192.032 114.057V30.417L168.582 56.8457Z" fill="#C6DAE5"/>
<path d="M254.524 87.3426H247.993V85.1025H254.524V87.3426ZM243.525 87.3426H236.822V85.1025H243.525V87.3426ZM232.354 87.3426H225.651V85.1025H232.354V87.3426ZM221.183 87.3426H214.473V85.1025H221.176V87.3426H221.183ZM210.005 87.3426H203.302V85.1025H210.005V87.3426ZM198.834 87.3426H192.131V85.1025H198.834V87.3426ZM187.656 87.3426H180.953V85.1025H187.656V87.3426Z" fill="#587BC9"/>
<path d="M365.406 36.4458H250.373V151.779H365.406V36.4458Z" fill="#D7E8F4"/>
<path d="M250.373 36.4458L282.706 0H397.74L365.406 36.4458H250.373Z" fill="#E4F0F4"/>
<path d="M365.406 36.4458V151.779L397.74 115.333V0L365.406 36.4458Z" fill="#C6DAE5"/>
<path d="M330.468 85.6803V68.5176C330.468 64.9149 329.321 61.4651 327.146 58.5271C324.991 55.6156 322.041 53.5019 318.613 52.4051C316.293 51.6606 313.953 51.6606 311.692 51.6606H305.115C302.059 51.6606 299.367 52.2389 296.894 53.4354C293.739 54.9576 291 57.7028 289.376 60.9665C288.196 63.3329 287.599 65.9319 287.599 68.6838V85.6736H281.626V123.681C281.626 128.82 285.783 132.987 290.908 132.987H325.807C330.932 132.987 335.089 128.82 335.089 123.681V85.6803H330.468ZM292.83 68.5109C292.83 67.1416 292.983 66.2044 293.427 64.8019C293.772 63.7118 294.62 62.1497 295.356 61.2457C296.337 60.0359 297.252 59.2516 298.618 58.4473C299.865 57.7095 301.104 57.2774 302.762 56.9982C302.835 56.9849 303.053 56.9583 303.617 56.9185C303.849 56.9052 304.108 56.8985 304.413 56.8985H313.621C315.014 56.8985 315.955 57.0514 317.354 57.4968C318.441 57.8424 319.999 58.6932 320.901 59.4311C322.107 60.4148 322.89 61.3321 323.692 62.7014C324.428 63.9511 324.859 65.1941 325.137 66.8558C325.15 66.9289 325.177 67.1483 325.217 67.7133C325.23 67.9459 325.237 68.1985 325.237 68.5043V85.6803H292.824V68.5109H292.83ZM310.147 110.035V119.188C310.147 119.866 309.358 120.418 308.384 120.418H308.351C307.376 120.418 306.587 119.866 306.587 119.188V110.035C303.571 109.244 301.343 106.492 301.343 103.222C301.343 99.3333 304.492 96.176 308.371 96.176C312.249 96.176 315.398 99.3333 315.398 103.222C315.391 106.492 313.164 109.244 310.147 110.035Z" fill="#3E277A"/>
<path d="M455.148 80.2234H448.617V77.9834H455.148V80.2234ZM444.149 80.2234H437.446V77.9834H444.149V80.2234ZM432.971 80.2234H426.269V77.9834H432.971V80.2234ZM421.8 80.2234H415.097V77.9834H421.8V80.2234ZM410.622 80.2234H403.92V77.9834H410.622V80.2234ZM399.451 80.2234H392.748V77.9834H399.451V80.2234ZM388.28 80.2234H381.577V77.9834H388.28V80.2234Z" fill="#587BC9"/>
<path d="M526.058 54.3391L453.678 54.2627L453.588 126.831L525.968 126.908L526.058 54.3391Z" fill="#D7E8F4"/>
<path d="M453.616 54.2863L473.956 31.354H546.34L525.994 54.2863H453.616Z" fill="#E4F0F4"/>
<path d="M525.993 54.2863V126.859L546.34 103.927V31.354L525.993 54.2863Z" fill="#C6DAE5"/>
<path d="M121.677 420.998L121.266 425.259L112.668 428.948L108.981 424.408L113.483 420.433L122.082 416.744L121.677 420.998Z" fill="#061929"/>
<path d="M128.85 334.712L122.234 419.655L113.953 420.785L107.098 348.385L101.43 325.42L128.85 334.712Z" fill="#06529C"/>
<path d="M148.66 312.425L153.625 413.361L146.074 414.783L130.328 338.409L121.67 316.294L148.66 312.425Z" fill="#06529C"/>
<path d="M146.744 418.127L155.721 420.879L159.003 415.813L154.11 412.291L145.936 413.833L146.744 418.127Z" fill="#061929"/>
<path d="M137.98 203.407C131.86 198.328 117.109 201.246 109.352 201.246C110.101 201.246 102 244.678 101.741 248.467C100.806 262.28 96.5368 276.245 90.6496 288.895C88.1634 294.225 85.2065 299.37 83.443 304.98C80.5193 314.28 80.5259 325.234 81.3546 334.859C89.6816 337.152 97.4849 341.453 106.051 342.57C113.098 343.487 120.212 342.184 127.292 341.559C135.666 340.815 144.092 341.014 152.472 340.369C160.852 339.725 169.319 338.182 176.737 334.221C173.422 327.786 170.87 320.987 168.742 314.074C166.633 307.207 163.915 299.583 163.146 292.424C162.45 285.957 162.337 279.376 161.396 272.815C160.302 265.184 158.989 257.58 157.173 250.096C155.091 241.528 152.34 233.126 148.965 224.99C146.393 218.795 143.33 208.645 138.497 203.872C138.324 203.699 138.152 203.553 137.98 203.407Z" fill="#BCBEC0"/>
<path d="M124.979 179.923C128.857 180.627 133.63 183.951 134.565 188.052C135.016 190.026 134.373 191.848 134.936 193.935C136.037 198.069 131.051 204.151 135.984 207.029C138.523 208.505 141.692 208.027 144.576 207.501C144.928 207.435 145.292 207.368 145.571 207.142C146.028 206.777 146.101 206.086 145.929 205.521C145.756 204.962 145.385 204.484 145.06 203.998C141.666 198.887 142.488 191.548 141.168 185.726C139.849 179.916 136.74 174.127 130.992 171.74C128.128 173.601 126.046 176.632 125.33 179.976L124.979 179.923Z" fill="#33435A"/>
<path d="M129.845 204.949C133.571 203.347 136.044 199.545 136.859 195.556C137.668 191.575 137.025 187.427 135.931 183.512C132.278 170.484 115.969 174.219 112.17 185.353C108.848 195.065 118.998 209.602 129.845 204.949Z" fill="#F7C1A3"/>
<path d="M110.857 212.114C112.687 210.971 114.484 209.781 115.544 207.648C117.261 204.204 116.539 198.853 116.738 195.118C116.95 191.183 117.308 186.889 120.006 184.011C121.763 182.136 123.931 181.618 126.371 181.365C128.041 181.192 128.161 181.824 129.5 180.8C130.528 180.016 131.277 177.875 131.429 176.646C131.681 174.572 130.68 172.498 129.202 171.029C126.928 168.762 124.382 167.765 121.266 167.958C110.327 168.649 102.683 175.841 100.515 186.802C99.4737 192.067 101.058 197.697 99.898 202.782C99.182 205.919 97.4052 208.119 96.8881 211.443C95.5555 220.058 91.8229 231.251 92.9168 239.946C92.9566 240.265 93.0229 240.624 93.2881 240.816C93.8185 241.209 94.508 240.617 94.8925 240.079C97.1466 236.954 99.3941 233.824 101.648 230.7C102.53 229.47 103.425 228.22 103.942 226.798C105.215 223.248 104.035 218.908 106.236 215.85C107.436 214.182 109.166 213.171 110.857 212.114Z" fill="#33435A"/>
<path d="M93.6524 295.588C93.3408 297.782 95.0845 303.385 97.1331 304.602C101.86 307.413 100.15 300.348 100.103 297.769C101.005 298.028 101.873 298.3 102.788 298.38C103.63 298.447 101.137 290.889 100.309 290.184C98.3198 288.496 96.901 289.36 94.4812 289.626C94.2558 291.613 93.9375 293.601 93.6524 295.588Z" fill="#F7C1A3"/>
<path d="M99.606 215.843L74.8438 259.189L92.4524 297.057L98.4259 289.141L92.1342 255.254L115.531 240.916L112.972 213.085L99.606 215.843Z" fill="#BCBEC0"/>
<path d="M141.314 207.515L163.279 242.704L175.325 225.927L186.709 227.848L181.312 255.068L166.368 266.188L141.314 251.126V207.515Z" fill="#A6A6A6"/>
<path d="M302.789 212.101L293.096 215.431L277.417 238.988L257.342 225.521L250.964 233.112L261.088 248.181L279.319 261.229L302.789 236.608V212.101Z" fill="#E4E4E4"/>
<path d="M347.573 159.855L348.309 149.286L339.783 142.672L336.21 147.359L340.062 154.252L338.683 157.834L342.462 163.531L347.573 159.855Z" fill="#F7C1A3"/>
<path d="M280.009 279.888L279.319 339.691L285.677 416.671H294.316L304.658 345.647L316.486 274.503L280.009 279.888Z" fill="#33435A"/>
<path d="M294.269 420.326L284.921 425.012L280.247 420.326L284.921 415.64H294.269V420.326Z" fill="#061929"/>
<path d="M339.265 279.888L339.431 314.485L333.603 416.671H324.958L310.505 348.864L302.788 274.503L339.265 279.888Z" fill="#33435A"/>
<path d="M325.011 420.326L334.359 425.012L339.026 420.326L334.359 415.64H325.011V420.326Z" fill="#061929"/>
<path d="M348.249 300.72C348.435 306.21 348.315 313.549 346.008 313.828C345.577 313.881 345.16 313.688 344.782 313.502C340.771 311.548 337.913 308.789 333.962 306.901C329.818 304.927 325.118 303.89 320.517 303.179C313.655 302.082 306.68 301.418 299.779 301.358C293.845 301.305 287.673 304.017 282.064 305.512C279.903 306.084 278.146 307.666 276.356 308.902C273.704 310.73 272.544 311.455 272.908 307.719C273.498 301.624 274.108 295.535 274.857 289.46C276.349 277.342 278.378 265.251 281.812 253.519C283.125 249.039 284.636 244.619 286.148 240.198C287.991 234.821 289.834 229.437 291.677 224.059C293.964 217.372 297.83 212.659 304.599 210.326C310.446 208.306 317.712 207.754 323.401 210.579C329.725 213.723 332.729 224.438 335.805 230.168C338.497 235.186 341.891 248.873 342.899 254.283C344.112 260.797 345.232 267.272 346.114 273.739C347.089 280.898 347.778 288.037 347.977 295.13C348.004 295.907 348.163 298.101 348.249 300.72Z" fill="white"/>
<path d="M309.929 211.749C310.068 211.868 310.228 211.961 310.407 212.021C310.771 212.141 311.162 212.094 311.54 212.054C313.085 211.868 314.63 211.689 316.174 211.503C315.664 206.757 318.429 205.686 321.127 202.635C323.858 199.545 323.016 195.37 322.864 191.588C322.818 190.531 322.771 189.448 322.327 188.491C321.545 186.815 319.728 185.885 317.965 185.333C313.463 183.931 308.318 184.276 304.354 186.835C303.299 187.513 302.312 188.371 301.741 189.488C300.86 191.216 301.085 193.276 301.33 195.197C301.708 198.155 302.583 201.053 304.248 203.546C305.799 205.866 308.762 206.976 309.101 209.761C309.193 210.492 309.412 211.297 309.929 211.749Z" fill="#F7C1A3"/>
<path d="M301.469 191.768C301.734 192.957 302.284 194.167 301.999 195.35C300.109 194.706 298.876 192.771 298.207 190.804C297.902 189.913 297.683 188.969 297.763 188.025C297.835 187.081 298.247 186.131 298.989 185.599C300.023 184.855 301.886 185.147 302.185 186.497C302.476 187.853 301.071 189.973 301.469 191.768Z" fill="#33435A"/>
<path d="M291.438 181.299C291.485 179.869 292.028 178.593 293.301 177.729C294.402 176.985 295.661 176.366 296.331 175.19C296.848 174.273 296.928 173.136 297.438 172.219C298.366 170.55 300.382 170.065 302.132 169.5C306.521 168.091 308.881 166.456 313.522 168.264C316.824 169.547 321.093 169.719 324.156 171.594C325.436 172.378 326.523 173.634 327.418 175.037C330.514 179.889 331.257 186.716 329.241 191.781C328.79 192.918 328.214 193.955 327.604 194.952C326.377 196.946 325.065 199.405 322.89 200.376C322.751 199.438 322.055 198.913 321.836 197.996C321.677 197.331 321.73 196.633 321.763 195.949C321.895 193.29 322.711 189.076 320.059 187.759C316.704 186.091 310.419 187.593 307.191 189.009C304.333 190.259 299.513 191.887 296.464 190.545C293.646 189.302 291.345 184.35 291.438 181.299Z" fill="#33435A"/>
<path d="M320.756 209.967L350.404 201.207L339.432 164.043L348.475 157.542L370.307 200.562L364.267 215.458L335.945 230.121L320.756 209.967Z" fill="#E4E4E4"/>
<path d="M509.803 205.48L501.151 205.846L475.348 230.387L437.021 225.249L434.476 234.654L472.139 248.181H483.509L503.677 235.771L509.803 205.48Z" fill="#F3F3F3"/>
<path d="M437.101 231.079L432.016 234.934L427.932 235.233L427.647 233.864L429.822 232.488L421.912 232.255L420.533 228.706L429.238 224.837L437.943 225.701L437.101 231.079Z" fill="#F7C1A3"/>
<path d="M491.896 406.222L484.71 411.327L482.316 415.228C482.316 415.228 485.015 416.432 486.506 416.731C488.005 417.03 499.686 415.228 499.686 415.228V408.322L491.896 406.222Z" fill="#061929"/>
<path d="M547.745 408.395L545.093 413.234C545.093 413.234 543.436 419.343 544.874 418.924C546.313 418.506 554.328 417.11 554.653 416.079C554.978 415.049 558.459 410.908 558.863 410.164C559.274 409.419 557.537 404.44 557.537 404.44L547.745 408.395Z" fill="#061929"/>
<path d="M498.586 294.551L521.79 364.013L547.739 408.395L557.803 405.464L540.599 354.846C540.599 354.846 538.524 303.996 535.123 289.041L498.586 294.551Z" fill="#394760"/>
<path d="M480.222 305.033L489.205 408.322H499.985L503.28 355.478L509.466 308.689L485.91 281.011L480.222 305.033Z" fill="#394760"/>
<path d="M479.87 238.942C480.984 233.618 481.428 227.888 484.053 222.923C486.685 217.957 491.651 214.202 495.483 209.981C497.107 208.193 498.844 206.331 501.257 205.481C502.915 204.896 504.738 204.843 506.522 204.796C511.931 204.656 517.335 204.523 522.745 204.384C524.714 204.337 526.769 204.297 528.566 205.009C531.257 206.079 532.782 208.565 534.115 210.885C537.516 216.814 538.139 223.381 538.444 230.081C538.431 230.141 542.66 314.213 539.306 312.631C535.129 310.664 530.349 309.62 525.662 308.889C519.052 307.825 512.309 307.154 505.573 306.988L493.719 307.792H486.566C482.27 308.211 482.628 309.507 478.212 309.235C475.388 309.075 478.597 245.044 479.87 238.942Z" fill="#F3F3F3"/>
<path d="M510.937 207.514C513.622 207.395 516.307 207.282 518.985 207.162C519.131 205.022 519.105 202.861 518.906 200.728C521.173 200.07 523.812 199.033 524.329 196.726C524.495 196.002 524.408 195.244 524.322 194.499C523.964 191.435 523.613 188.371 523.255 185.313C523.129 184.256 522.996 183.166 522.479 182.236C521.571 180.6 519.668 179.803 517.852 179.384C513.211 178.307 508.046 179.038 504.247 181.917C503.233 182.681 502.305 183.618 501.814 184.788C501.052 186.596 501.436 188.657 501.827 190.571C502.185 192.346 502.55 194.114 502.908 195.889C503.326 197.929 503.956 200.256 505.845 201.113C506.846 201.572 508.066 201.519 508.961 202.163C510.539 203.293 510.181 205.72 510.937 207.514Z" fill="#F7C1A3"/>
<path d="M496.066 168.589C496.663 168.483 497.273 168.357 497.883 168.091C499.825 167.24 501.191 165.538 503.253 164.747C507.43 163.139 512.667 163.371 516.771 165.1C520.696 166.755 526.053 167.393 529.567 169.62C531.032 170.55 532.166 171.933 533.027 173.448C536.011 178.68 535.64 185.646 532.126 190.538C531.337 191.635 530.409 192.625 529.441 193.569C527.439 195.517 525.039 197.929 522.393 198.548C522.46 196.215 524.986 188.983 523.308 186.968C521.081 184.303 516.705 184.369 513.576 184.669C509.843 185.021 506.767 183.818 503.048 184.004C501.151 184.097 499.003 184.482 497.551 183.259C495.868 181.844 492.314 177.35 491.472 175.376C490.736 173.648 491.227 171.521 492.506 170.151C493.627 168.948 494.82 168.815 496.066 168.589Z" fill="#33435A"/>
<path d="M511.666 207.448C511.388 209.415 510.784 211.655 510.784 211.655C510.784 211.655 495.828 254.848 494.409 258.291C494.091 259.062 493.932 259.886 493.932 260.717L497.366 270.828L504.181 262.379L513.423 213.982L515.671 212.048L516.46 207.142L511.666 207.448Z" fill="#06529C"/>
<path d="M258.906 284.912L181.337 278.285C178.4 278.033 176.226 275.447 176.478 272.502L177.267 263.256C177.519 260.312 180.098 258.132 183.035 258.384L260.603 265.011C263.54 265.264 265.715 267.85 265.463 270.794L264.674 280.04C264.422 282.978 261.836 285.158 258.906 284.912Z" fill="#587BC9"/>
<path d="M183.625 228.313L130.905 222.111C115.544 220.303 101.502 231.424 99.6984 246.825L96.6619 272.775C94.8586 288.176 105.95 302.255 121.311 304.063L174.031 310.264C189.393 312.072 203.434 300.952 205.238 285.551L208.274 259.601C210.078 244.199 198.986 230.121 183.625 228.313ZM191.726 257.653L188.69 283.603C187.967 289.785 182.146 294.398 175.981 293.673L123.261 287.472C117.095 286.747 112.494 280.911 113.216 274.729L116.253 248.779C116.976 242.597 122.797 237.984 128.962 238.716L181.682 244.917C187.848 245.635 192.449 251.471 191.726 257.653Z" fill="#587BC9"/>
<path d="M315.259 233.63H262.175C246.707 233.63 234.058 246.32 234.058 261.821V287.95C234.058 303.458 246.714 316.14 262.175 316.14H315.259C330.726 316.14 343.376 303.451 343.376 287.95V261.827C343.383 246.32 330.726 233.63 315.259 233.63ZM326.715 287.957C326.715 294.185 321.471 299.443 315.259 299.443H262.175C255.962 299.443 250.718 294.185 250.718 287.957V261.827C250.718 255.599 255.962 250.341 262.175 250.341H315.259C321.465 250.341 326.715 255.599 326.715 261.827V287.957Z" fill="#587BC9"/>
<path d="M484.577 279.256L483.032 253.173C482.117 237.692 468.731 225.78 453.291 226.704L400.305 229.861C384.865 230.785 372.984 244.199 373.906 259.68L375.45 285.763C376.365 301.244 389.751 313.156 405.192 312.232L458.177 309.074C473.611 308.151 485.491 294.73 484.577 279.256ZM457.189 292.39L404.204 295.548C398.005 295.92 392.456 290.981 392.091 284.766L390.546 258.683C390.175 252.468 395.101 246.905 401.3 246.539L454.285 243.382C460.484 243.009 466.033 247.948 466.398 254.163L467.942 280.246C468.307 286.461 463.381 292.018 457.189 292.39Z" fill="#587BC9"/>
<path d="M394.723 281.636H316.876C313.933 281.636 311.546 279.243 311.546 276.291V267.005C311.546 264.054 313.933 261.661 316.876 261.661H394.723C397.667 261.661 400.053 264.054 400.053 267.005V276.291C400.06 279.243 397.673 281.636 394.723 281.636Z" fill="#587BC9"/>
<path d="M519.065 228.287L515.127 252.256L472.226 263.416V274.889L523.553 269.452L532.424 255.088L531.569 217.911L519.065 228.287Z" fill="#E4E4E4"/>
<path d="M472.226 272.669L467.313 274.889L457.263 272.603L458.973 267.152L466.776 266.687L468.348 264.035L472.153 265.058L472.226 272.669Z" fill="#F7C1A3"/>
<path d="M254.412 225.854L244.52 229.576L242.061 240.098L247.802 241.408L252.449 235.033L256.275 234.794L259.868 228.978L254.412 225.854Z" fill="#F7C1A3"/>
<path d="M175.324 225.927L184.513 225.109L190.407 232.461L186.389 235.665L180.323 232.408L177.227 233.671L172.215 230.454L175.324 225.927Z" fill="#F7C1A3"/>
</g>
<defs>
<clipPath id="clip0">
<rect width="659" height="461" fill="white"/>
</clipPath>
</defs>
</svg>
