<svg width="563" height="450" viewBox="0 0 563 450" fill="none" xmlns="http://www.w3.org/2000/svg">
<g clip-path="url(#clip0)">
<g opacity="0.2">
<path opacity="0.2" d="M258.326 389.62C241.862 389.667 225.406 390.052 208.969 391.838C202.772 392.512 196.704 393.996 190.494 394.589C178.087 395.782 165.909 398.007 153.455 399.039C143.431 399.868 133.367 400.353 123.37 401.405C114 402.389 103.625 402.16 94.3236 400.535C87.4384 399.335 80.5262 398.654 73.7558 396.719C66.1821 394.555 57.9604 393.011 50.0694 393.065C38.8168 393.146 27.8613 393.153 17.1015 396.969C13.3214 398.311 8.69751 400.515 5.82868 403.327C-0.739254 409.765 -1.63028 425.831 4.9309 432.506C15.981 443.745 39.5594 448.154 55.0443 448.363C72.0143 448.592 88.4982 447.358 105.495 446.637C121.284 445.963 137.039 445.005 152.855 445.039C185.161 445.107 217.474 445.039 249.72 442.929C280.014 440.947 310.39 441.628 340.759 441.628C371.898 441.628 402.827 441.864 433.737 445.909C447.203 447.668 460.926 448.289 474.467 449.522C486.59 450.628 498.241 449.502 510.317 448.477C520.456 447.621 530.527 445.073 539.741 440.771C547.032 437.367 560.033 426.789 562.267 418.658C568.538 395.87 473.92 396.416 459.394 396.463C443.14 396.524 426.764 397.043 410.523 396.436C403.691 396.18 396.961 394.879 390.292 393.45C383.65 392.027 376.961 392.384 370.231 391.791C342.15 389.297 314.008 389.661 285.833 389.661C276.673 389.667 267.5 389.593 258.326 389.62Z" fill="#F7F7F7"/>
</g>
<path d="M483.735 292.597L483.87 296.676L476.661 299.292L472.51 296.15V291.404L476.519 291.181L476.641 290.136L477.957 289.293L483.735 292.597Z" fill="#E1CFB5"/>
<path d="M336.392 324.803L337.937 360.657L333.401 421.625L326.611 422.11L318.362 366.738L306.954 319.882L336.392 324.803Z" fill="#3B455A"/>
<path d="M326.976 426.661H337.168L337.594 423.297L333.935 420.775L326.598 421.301L326.976 426.661Z" fill="#3B455A"/>
<path d="M288.331 314.138L286.839 341.241L291.26 421.827L298.058 422.171L308.25 369.314L317.235 311.354L288.331 314.138Z" fill="#3B455A"/>
<path d="M297.781 426.924L287.858 427.335L286.853 424.477L290.714 420.991L298.065 421.362L297.781 426.924Z" fill="#3B455A"/>
<path d="M327.86 232.27L306.644 229.998C306.644 229.998 294.845 231.259 286.832 259.251C282.377 274.825 281.02 299.359 280.696 318.068C281.196 320.738 284.105 332.422 296.417 330.44C317.552 327.035 328.805 323.63 338.005 325.329C345.849 327.035 345.181 316.248 344.324 308.023L341.198 282.565L327.86 232.27Z" fill="white"/>
<path d="M323.762 205.896C318.416 204.716 312.914 203.664 307.561 204.722C306.387 204.952 305.131 205.363 304.497 206.374C304.254 206.765 304.119 207.217 303.997 207.662C302.647 212.678 300.933 220.108 304.24 224.733C304.868 225.616 305.719 226.31 306.63 226.883C307.845 227.645 309.195 228.158 310.586 228.434C310.295 229.681 309.897 230.901 309.391 232.075C310.613 233.915 316.323 234.138 317.383 232.371C317.444 230.841 317.505 229.31 317.559 227.787C318.254 227.504 318.922 227.166 319.557 226.748C322 225.144 323.607 222.71 324.538 219.98C325.558 217.013 326.989 214.188 327.913 211.168C328.251 210.069 328.521 208.808 327.94 207.81C327.319 206.752 325.99 206.388 324.788 206.125C324.437 206.051 324.099 205.97 323.762 205.896Z" fill="#C17E72"/>
<path d="M326.104 219.824C328.676 217.188 331.68 213.507 331.91 210.163C332.099 207.399 331.721 203.624 330.168 201.23C328.717 198.992 325.004 197.765 322.79 196.47C320.711 195.25 318.625 194.03 316.546 192.803C316.114 192.546 315.669 192.29 315.176 192.203C314.589 192.102 313.995 192.25 313.421 192.398C308.5 193.666 303.579 194.94 298.658 196.207C297.713 196.45 296.633 196.807 296.289 197.718C296.08 198.27 296.201 198.891 296.329 199.47C296.89 202.019 297.963 204.628 298.226 207.217C298.631 209.26 298.557 211.087 300.049 212.577C301.453 213.979 303.323 214.748 304.45 216.467C305.26 217.707 305.57 219.204 306.212 220.539C309.094 226.607 320.758 224.989 324.795 221.119C325.2 220.728 325.645 220.29 326.104 219.824Z" fill="#3B455A"/>
<path d="M323.357 234.084L337.938 218.348L334.509 175.705L340.915 172.894L354.395 215.806L349.629 229.007L330.081 255.253L323.357 234.084Z" fill="white"/>
<path d="M339.545 173.5C339.545 173.5 339.545 169.657 339.545 169.597C339.545 168.174 335.954 164.844 335.043 163.65C334.523 162.969 332.133 166.684 332.1 167.298C332.052 168.343 333.565 170.588 333.976 171.68L332.7 173.5L334.51 175.712L339.545 173.5Z" fill="#C17E72"/>
<path d="M297.275 237.36L280.771 223.647L278.631 180.923L271.915 178.968L264.125 223.263L270.565 235.736L293.367 259.225L297.275 237.36Z" fill="white"/>
<path d="M273.353 179.386C273.353 179.386 272.853 175.577 272.847 175.516C272.664 174.1 275.79 170.338 276.539 169.037C276.964 168.296 279.819 171.667 279.927 172.273C280.11 173.305 278.908 175.725 278.631 176.858L280.137 178.496L278.631 180.923L273.353 179.386Z" fill="#C17E72"/>
<path d="M38.1493 210.77C35.483 209.469 32.9719 207.844 30.6836 205.949C29.9411 205.336 29.1513 204.466 29.4078 203.536C29.7048 202.471 31.1088 202.241 32.2159 202.342C34.2949 202.524 36.3335 203.131 38.1763 204.116C38.6286 203.974 38.048 203.239 38.2505 202.808C38.345 202.612 38.5881 202.538 38.8041 202.524C41.7876 202.363 42.9487 206.415 43.9679 208.37C41.8821 209.462 39.7221 209.509 37.8658 211.168L38.1493 210.77Z" fill="#EFBFA5"/>
<path d="M166.119 259.029C166.119 259.029 169.926 259.588 169.987 259.595C171.398 259.804 177.567 256.696 178.877 255.968C179.626 255.55 173.943 252.691 173.342 252.57C172.309 252.368 169.866 253.541 168.732 253.79L167.111 252.267L164.661 253.73L166.119 259.029Z" fill="#EFBFA5"/>
<path d="M71.4004 418.065L70.8604 422.245L78.6838 427.49L83.4089 423.856L79.7638 419.137L71.9336 413.892L71.4004 418.065Z" fill="#3B455A"/>
<path d="M71.13 416.662L77.1714 363.394L69.9082 303.762L71.5417 291.073L103.976 289.846L105.144 310.49L99.7035 363.475L79.2167 419.386L71.13 416.662Z" fill="#587BC9"/>
<path d="M109.141 232.061L123.721 240.617L135.284 256.804L166.092 252.348L167.057 260.822L132.064 272.472L114.129 265.771L109.141 232.061Z" fill="#305399"/>
<path d="M127.778 295.813L127.859 349.566L117.025 418.766L109.228 418.692L104.942 354.697L94.9111 290.642L127.778 295.813Z" fill="#587BC9"/>
<path d="M109.241 421.975L117.632 426.27L121.891 422.103L117.713 417.849L109.282 417.768L109.241 421.975Z" fill="#3B455A"/>
<path d="M66.5538 314.097C66.6281 311.764 66.7563 309.823 66.7766 309.128C66.9453 302.878 67.4989 296.642 68.2819 290.44C68.9839 284.877 69.8682 271.077 70.82 265.548C71.6097 260.984 74.3503 249.597 76.3281 245.363C81.2557 234.839 79.7302 233.868 101.365 230.74C110.849 229.371 113.09 235.27 120.839 242.059C121.602 242.727 121.561 246.711 121.737 247.77C122.047 249.63 122.385 251.484 122.769 253.332C123.073 254.781 123.404 256.231 123.775 257.667C123.775 257.667 130.282 287.244 134.589 293.527C138.896 299.811 147.786 308.589 132.908 313.955C130.276 314.805 127.623 315.614 124.875 316.052C124.875 316.052 112.712 314.704 106.461 314.751C100.703 314.791 94.9181 315.378 89.2547 316.349C85.4679 316.983 81.6 317.9 78.2182 319.666C74.9848 321.351 72.656 323.832 69.3754 325.579C69.0649 325.747 68.7274 325.916 68.3696 325.869C66.4796 325.606 66.3918 318.998 66.5538 314.097Z" fill="#305399"/>
<path d="M99.4274 233.47C98.5431 234.306 96.1333 235.243 93.2577 235.027C92.6772 234.987 92.1777 234.589 92.0089 234.036C91.5499 232.472 91.1989 230.874 90.9491 229.263C88.8161 229.175 86.278 228.845 85.3195 226.937C85.0157 226.337 84.928 225.656 84.847 224.988C84.496 222.231 84.1449 219.473 83.7872 216.716C83.6657 215.765 83.5442 214.781 83.8007 213.851C84.2462 212.226 85.7447 211.113 87.25 210.352C91.0909 208.403 95.7823 207.925 99.7446 209.61C100.798 210.062 101.817 210.675 102.505 211.592C103.565 213.008 103.68 214.889 103.748 216.655C103.815 218.287 103.883 219.912 103.95 221.543C104.024 223.418 103.977 225.588 102.505 226.755C101.722 227.375 100.642 227.591 100.001 228.353C98.8604 229.688 99.6974 231.737 99.4274 233.47Z" fill="#EFBFA5"/>
<path d="M114.818 200.178C115.013 199.403 115.25 198.641 115.547 197.899C116.195 196.302 117.14 194.805 117.538 193.126C117.936 191.447 117.639 189.431 116.228 188.427C115.317 187.78 114.136 187.679 113.022 187.692C109.35 187.732 105.691 188.784 102.553 190.692C99.5623 192.513 97.0849 194.764 93.4398 194.549C90.0175 194.346 87.9519 195.492 85.0966 197.616C82.005 199.915 77.4419 201.634 74.8363 204.345C73.7496 205.477 73.0543 206.934 72.6223 208.444C71.1372 213.669 72.9733 219.683 77.1179 223.195C78.0494 223.984 79.0754 224.651 80.1285 225.265C82.3088 226.532 84.9414 228.124 87.3917 228.09C86.8247 226.061 83.0378 220.283 84.0773 218.159C85.7244 214.788 91.5565 213.999 94.8034 213.709C98.3405 213.392 102.026 214.835 105.469 214.323C107.946 213.959 110.619 211.869 112.253 210.028C114.291 207.77 114.095 203.01 114.818 200.178Z" fill="#3B455A"/>
<path d="M82.4438 235.378L65.4266 239.74L44.9263 207.925L36.2793 210.258L50.6977 256.062L83.8816 260.054L82.4438 235.378Z" fill="#305399"/>
<path d="M496.648 411.909C497.397 411.087 498.268 410.635 499.253 410.79C500.198 410.938 501.056 411.579 501.44 412.435C501.704 413.022 501.764 413.669 501.818 414.309C502.088 417.613 502.068 425.454 497.66 426.58C495.811 427.052 494.278 425.744 493.786 424.078C493.043 421.591 494.143 414.66 496.648 411.909Z" fill="#3B455A"/>
<path d="M495.082 362.1L495.312 382.238C495.042 391.184 496.439 400.178 496.176 409.125C496.115 411.181 495.575 413.352 496.095 415.388C496.601 417.384 498.228 417.734 499.888 416.723C502.122 415.368 501.758 412.213 502.129 409.907C503.149 403.569 504.35 397.266 505.417 390.942C505.936 387.84 504.863 383.492 505.099 380.35L508.36 363.475L495.082 362.1Z" fill="#F4C7B3"/>
<path d="M518.12 329.556L509.345 368.498L507.482 405.268L493.563 404.952L489.783 302.103L516.757 302.588L518.12 329.556Z" fill="#BCBEC0"/>
<path d="M476.742 411.181C477.525 410.399 478.409 410.002 479.388 410.217C480.326 410.42 481.15 411.114 481.501 411.997C481.744 412.597 481.771 413.251 481.798 413.899C481.926 417.222 481.568 425.063 477.133 425.933C475.27 426.297 473.799 424.895 473.38 423.202C472.739 420.654 474.136 413.784 476.742 411.181Z" fill="#3B455A"/>
<path d="M484.08 364.925L482.898 385.029C482.804 390.618 482.055 396.16 481.474 401.709C480.934 406.867 481.771 412.233 479.078 416.926C478.234 418.395 476.519 419.373 475.325 417.586C474.407 416.211 474.953 413.912 474.771 412.354C474.049 405.977 473.151 399.626 472.388 393.255C472.01 390.133 473.293 385.838 473.205 382.69L470.748 365.68L484.08 364.925Z" fill="#F4C7B3"/>
<path d="M466.468 327.177L465.334 364.972L471.274 403.199L485.429 403.617L484.802 362.255L492.294 327.952L494.812 305.494L472.347 302.852L466.468 327.177Z" fill="#BCBEC0"/>
<path d="M484.234 225.494L508.434 224.921L522.461 250.979L517.479 275.391L516.588 304.604L482.074 305.069L470.714 303.229L473.731 272.02L472.003 230.328L484.234 225.494Z" fill="#3B455A"/>
<path d="M487.408 202.943C492.173 192.803 505.667 198.25 507.523 207.932C508.738 214.249 503.149 221.678 496.615 222.75C496.561 222.986 495.866 225.043 495.839 225.238C495.731 226.223 495.501 227.173 495.252 228.137C495.157 228.495 489.716 226.836 489.116 226.647C488.906 226.58 488.67 226.499 488.569 226.303C488.38 225.933 489.507 223.108 489.595 222.73C489.689 222.278 489.791 221.827 489.885 221.375C486.922 219.514 485.295 216.049 485.099 212.678C484.904 209.293 485.977 205.99 487.408 202.943Z" fill="#F4C7B3"/>
<path d="M497.519 194.407C498.181 195.243 498.363 196.328 498.471 197.367C498.532 197.987 498.579 198.621 498.383 199.207C497.607 201.54 495.244 201.162 493.327 201.735C490.958 202.443 488.818 203.981 487.333 205.862C485.004 208.801 485.463 212.961 485.889 216.527C486.037 217.781 486.415 219.669 485.342 220.66C484.255 221.665 482.034 221.253 480.941 220.559C479.935 219.925 479.172 218.86 478.031 218.543C476.823 218.206 475.102 218.563 474.649 217.377C474.521 217.046 474.548 216.662 474.379 216.352C473.806 215.307 471.99 216.264 471.106 215.476C470.559 214.99 470.66 214.093 470.937 213.406C471.214 212.718 471.625 212.03 471.565 211.296C471.511 210.662 471.119 210.122 470.903 209.529C470.478 208.356 470.822 206.92 471.74 206.064C473.448 204.473 476.344 205.127 478.146 203.65C479.084 202.882 479.543 201.682 479.989 200.542C480.428 199.403 480.941 198.209 481.933 197.515C483.155 196.652 484.748 196.996 485.976 195.951C486.699 195.337 487.225 194.495 488.015 193.975C489.054 193.295 490.998 192.89 492.227 192.62C494.191 192.189 496.257 192.823 497.519 194.407Z" fill="#3B455A"/>
<path d="M504.505 212.159C504.195 215.631 502.068 219.19 503.337 222.42C504.62 225.669 508.582 226.661 511.991 227.193C512.551 227.281 519.72 228.683 519.767 228.548C520.571 226.195 521.394 223.788 522.886 221.806C524.378 219.824 526.68 218.294 529.116 218.402C528.435 218.206 528.171 217.316 528.327 216.602C528.482 215.894 528.927 215.28 529.218 214.613C529.933 212.968 529.629 210.932 528.475 209.603C526.173 206.947 521.428 207.432 519.531 204.466C518.357 202.625 518.782 200.178 518.289 198.034C517.344 193.881 513.044 192.566 509.959 190.409C506.699 188.123 503.553 186.728 499.483 186.964C494.441 187.254 490.208 191.899 491.612 196.848C493.408 203.192 503.263 203.724 504.438 210.096C504.559 210.77 504.573 211.464 504.505 212.159Z" fill="#3B455A"/>
<path d="M501.279 225.359L493.766 235.957L490.243 235.668L484.356 224.921L501.279 225.359Z" fill="#F9F9F9"/>
<path d="M484.356 224.921L470.714 225.663C470.714 225.663 455.397 233.187 454.385 232.62C453.372 232.054 436.821 198.964 436.821 198.964L428.714 201.594L438.846 239.45L448.64 249.563L476.336 244.958L484.356 224.921Z" fill="#3B455A"/>
<path d="M429.99 201.122C429.99 201.122 427.85 197.933 427.816 197.879C427.02 196.693 428.147 191.933 428.242 190.436C428.296 189.58 432.352 191.333 432.717 191.832C433.345 192.674 433.338 195.378 433.601 196.517L435.674 197.32L435.404 200.158L429.99 201.122Z" fill="#F4C7B3"/>
<path d="M143.405 103.114L100.764 83.8725V32.6538L143.405 51.8954V103.114Z" fill="#D7E8F4"/>
<path d="M143.404 103.114L186.038 83.8725V32.6538L143.404 51.8954V103.114Z" fill="#C6DAE5"/>
<path d="M100.764 32.654L143.405 51.8955L186.039 32.654L143.405 15.1855L100.764 32.654Z" fill="#E4F0F4"/>
<path d="M483.891 74.5282L448.061 58.361V15.3203L483.891 31.4943V74.5282Z" fill="#D7E8F4"/>
<path d="M483.891 74.5282L519.721 58.361V15.3203L483.891 31.4943V74.5282Z" fill="#C6DAE5"/>
<path d="M448.061 15.3203L483.891 31.4943L519.72 15.3203L483.891 0.643066L448.061 15.3203Z" fill="#E4F0F4"/>
<path d="M267.129 115.385L262.107 113.113L262.991 111.158L268.013 113.43L267.129 115.385ZM258.192 111.34L252.319 108.683L253.203 106.728L259.076 109.384L258.192 111.34ZM248.411 106.917L242.538 104.261L243.422 102.305L249.295 104.962L248.411 106.917ZM238.63 102.494L232.757 99.8378L233.641 97.8826L239.514 100.539L238.63 102.494ZM228.842 98.0647L222.969 95.4083L223.854 93.4532L229.726 96.1095L228.842 98.0647ZM219.061 93.6419L213.188 90.9856L214.072 89.0304L219.945 91.6868L219.061 93.6419ZM209.28 89.2192L203.407 86.5629L204.291 84.6077L210.164 87.264L209.28 89.2192ZM199.499 84.7897L193.626 82.1334L194.51 80.1782L200.383 82.8346L199.499 84.7897ZM189.711 80.367L183.838 77.7107L184.723 75.7555L190.595 78.4118L189.711 80.367ZM179.93 75.9443L174.057 73.288L174.942 71.3328L180.814 73.9891L179.93 75.9443ZM170.149 71.5148L164.276 68.8585L165.161 66.9033L171.033 69.5597L170.149 71.5148Z" fill="#587BC9"/>
<path d="M57.0219 115.553L55.7461 113.827L58.3989 111.865L59.6747 113.591L57.0219 115.553ZM63.124 111.036L61.8483 109.31L67.0257 105.48L68.3014 107.206L63.124 111.036ZM71.7575 104.651L70.4817 102.925L75.6591 99.0958L76.9349 100.822L71.7575 104.651ZM80.3843 98.2666L79.1085 96.5406L84.2859 92.7112L85.5617 94.4371L80.3843 98.2666ZM89.011 91.8752L87.7352 90.1493L92.9126 86.3198L94.1884 88.0458L89.011 91.8752ZM97.6378 85.4906L96.362 83.7646L101.539 79.9352L102.815 81.6611L97.6378 85.4906ZM106.264 79.1059L104.989 77.38L110.166 73.5506L111.442 75.2765L106.264 79.1059ZM114.898 72.7146L113.622 70.9886L118.8 67.1592L120.075 68.8851L114.898 72.7146Z" fill="#587BC9"/>
<path d="M41.9629 178.651L6.13965 162.484V119.443L41.9629 135.611V178.651Z" fill="#D7E8F4"/>
<path d="M41.9629 178.651L77.7929 162.484V119.443L41.9629 135.611V178.651Z" fill="#C6DAE5"/>
<path d="M6.13965 119.443L41.9629 135.611L77.7929 119.443L41.9629 104.766L6.13965 119.443Z" fill="#E4F0F4"/>
<path d="M265.434 125.43L264.645 123.434L264.827 123.36L265.617 125.356L265.434 125.43ZM269.606 123.772L268.816 121.776L274.804 119.403L275.593 121.398L269.606 123.772ZM279.589 119.814L278.8 117.818L284.787 115.445L285.577 117.441L279.589 119.814ZM289.566 115.85L288.776 113.854L294.764 111.481L295.554 113.477L289.566 115.85ZM299.55 111.892L298.76 109.897L304.747 107.523L305.537 109.519L299.55 111.892ZM309.527 107.935L308.737 105.939L314.724 103.566L315.514 105.562L309.527 107.935ZM319.51 103.97L318.72 101.975L324.708 99.6016L325.497 101.597L319.51 103.97ZM329.487 100.013L328.697 98.0173L334.684 95.6441L335.474 97.6397L329.487 100.013ZM339.47 96.0486L338.681 94.053L344.668 91.6798L345.458 93.6754L339.47 96.0486ZM349.447 92.0911L348.657 90.0955L354.645 87.7223L355.435 89.7179L349.447 92.0911ZM359.431 88.1268L358.641 86.1312L364.628 83.758L365.418 85.7536L359.431 88.1268ZM369.407 84.1693L368.618 82.1737L374.605 79.8005L375.395 81.7961L369.407 84.1693ZM379.391 80.205L378.601 78.2094L384.589 75.8362L385.378 77.8318L379.391 80.205ZM389.374 76.2475L388.585 74.2519L394.572 71.8787L395.362 73.8743L389.374 76.2475ZM399.351 72.29L398.561 70.2943L404.549 67.9212L405.339 69.9168L399.351 72.29ZM409.335 68.3257L408.545 66.3301L414.532 63.9569L415.322 65.9525L409.335 68.3257ZM419.312 64.3681L418.522 62.3725L424.509 59.9994L425.299 61.995L419.312 64.3681ZM429.295 60.4039L428.505 58.4083L434.493 56.0351L435.283 58.0307L429.295 60.4039ZM439.272 56.4463L438.482 54.4507L444.469 52.0776L445.259 54.0732L439.272 56.4463ZM449.255 52.4821L448.466 50.4865L454.453 48.1133L455.243 50.1089L449.255 52.4821ZM459.232 48.5245L458.442 46.5289L464.43 44.1558L465.22 46.1514L459.232 48.5245Z" fill="#587BC9"/>
<path d="M301.358 184.449L228.72 151.669V64.415L301.358 97.1945V184.449Z" fill="#D7E8F4"/>
<path d="M301.358 184.449L373.997 151.669V64.415L301.358 97.1945V184.449Z" fill="#C6DAE5"/>
<path d="M228.72 64.4152L301.358 97.1946L373.997 64.4152L301.358 34.6494L228.72 64.4152Z" fill="#E4F0F4"/>
<path d="M421.533 163.111L415.653 160.481L416.531 158.526L422.41 161.156L421.533 163.111ZM411.731 158.729L405.852 156.099L406.73 154.144L412.609 156.773L411.731 158.729ZM401.923 154.339L396.044 151.71L396.921 149.755L402.801 152.384L401.923 154.339ZM392.122 149.957L386.243 147.328L387.12 145.373L393 148.002L392.122 149.957ZM382.321 145.575L376.441 142.946L377.319 140.99L383.198 143.62L382.321 145.575ZM372.52 141.193L366.64 138.563L367.518 136.608L373.397 139.238L372.52 141.193ZM362.718 136.81L356.839 134.181L357.716 132.226L363.596 134.855L362.718 136.81ZM352.917 132.428L347.038 129.799L347.915 127.844L353.795 130.473L352.917 132.428ZM343.116 128.039L337.236 125.41L338.114 123.455L343.993 126.084L343.116 128.039Z" fill="#587BC9"/>
<path d="M206.154 163.853L204.986 162.052L210.393 158.553L211.561 160.353L206.154 163.853ZM215.159 158.014L213.991 156.214L219.398 152.715L220.566 154.515L215.159 158.014ZM224.17 152.182L223.003 150.382L228.409 146.883L229.577 148.683L224.17 152.182ZM233.182 146.344L232.014 144.544L237.421 141.045L238.589 142.845L233.182 146.344ZM242.193 140.505L241.026 138.705L246.432 135.206L247.6 137.006L242.193 140.505ZM251.205 134.673L250.037 132.873L255.444 129.374L256.612 131.174L251.205 134.673ZM260.216 128.835L259.049 127.035L264.455 123.536L265.623 125.336L260.216 128.835Z" fill="#587BC9"/>
<path d="M181.313 255.934L131.639 233.517V173.844L181.313 196.261V255.934Z" fill="#D7E8F4"/>
<path d="M181.313 255.934L230.988 233.517V173.844L181.313 196.261V255.934Z" fill="#C6DAE5"/>
<path d="M131.639 173.844L181.313 196.261L230.988 173.844L181.313 153.49L131.639 173.844Z" fill="#E4F0F4"/>
<path d="M449.289 204.291L399.614 181.867V122.194L449.289 144.618V204.291Z" fill="#D7E8F4"/>
<path d="M449.289 204.291L498.97 181.867V122.194L449.289 144.618V204.291Z" fill="#C6DAE5"/>
<path d="M399.614 122.194L449.289 144.618L498.97 122.194L449.289 101.84L399.614 122.194Z" fill="#E4F0F4"/>
<path d="M493.503 295.172C492.032 296.662 490.007 297.95 487.934 297.687C487.104 297.579 486.281 297.438 485.464 297.249C484.823 297.1 484.168 296.925 483.655 296.5C483.142 296.076 482.818 295.354 483.034 294.707C483.338 293.804 484.438 293.561 485.241 293.069C486.247 292.462 486.861 291.363 487.651 290.48C489.446 288.464 491.877 288.275 494.172 287.196C494.28 287.149 495.522 288.579 495.63 288.707C496.46 289.637 496.534 289.839 496.068 291.019C495.488 292.482 494.644 294.019 493.503 295.172Z" fill="#F4C7B3"/>
<path d="M509.237 226.714L528.88 256.601L525.93 273.247L495.507 294.296L489.783 289.293L510.122 263.613L509.332 247.385L509.237 226.714Z" fill="#3B455A"/>
</g>
<defs>
<clipPath id="clip0">
<rect width="562.129" height="449.345" fill="white" transform="translate(0.435547 0.643066)"/>
</clipPath>
</defs>
</svg>
