<svg width="22" height="21" viewBox="0 0 22 21" fill="none" xmlns="http://www.w3.org/2000/svg">
<path d="M8.51879 0.0192365C8.73037 0.0192365 8.9372 0.0824674 9.11312 0.200933C9.28904 0.319399 9.42616 0.487779 9.50713 0.684781C9.58809 0.881782 9.60928 1.09856 9.568 1.30769C9.52673 1.51683 9.42484 1.70893 9.27523 1.85971C9.12562 2.01049 8.93501 2.11317 8.72749 2.15477C8.51998 2.19637 8.30488 2.17502 8.10941 2.09342C7.91393 2.01182 7.74686 1.87363 7.62931 1.69634C7.51176 1.51904 7.44902 1.31059 7.44902 1.09736C7.44902 0.811425 7.56173 0.5372 7.76235 0.335012C7.96297 0.132824 8.23507 0.0192365 8.51879 0.0192365ZM1.03042 7.56611C1.03042 7.77934 1.09316 7.98779 1.21071 8.16508C1.32825 8.34238 1.49533 8.48057 1.6908 8.56217C1.88628 8.64377 2.10137 8.66512 2.30889 8.62352C2.5164 8.58192 2.70702 8.47924 2.85663 8.32846C3.00623 8.17768 3.10812 7.98558 3.1494 7.77644C3.19067 7.56731 3.16949 7.35053 3.08852 7.15353C3.00755 6.95653 2.87044 6.78815 2.69452 6.66968C2.51859 6.55122 2.31176 6.48799 2.10018 6.48799C1.81646 6.48799 1.54437 6.60157 1.34375 6.80376C1.14312 7.00595 1.03042 7.28017 1.03042 7.56611ZM3.39282 3.47822C3.39282 3.69145 3.45556 3.8999 3.57311 4.0772C3.69066 4.25449 3.85773 4.39268 4.05321 4.47428C4.24868 4.55588 4.46377 4.57723 4.67129 4.53563C4.8788 4.49403 5.06942 4.39135 5.21903 4.24057C5.36864 4.08979 5.47052 3.89769 5.5118 3.68855C5.55308 3.47942 5.53189 3.26264 5.45092 3.06564C5.36996 2.86864 5.23284 2.70026 5.05692 2.58179C4.881 2.46333 4.67417 2.4001 4.46259 2.4001C4.17887 2.4001 3.90677 2.51368 3.70615 2.71587C3.50553 2.91806 3.39282 3.19228 3.39282 3.47822ZM19.1736 3.80494C17.7837 1.99316 15.8526 0.679811 13.6653 0.0588127C13.5297 0.0198888 13.3878 0.00836616 13.2478 0.0249074C13.1077 0.0414486 12.9723 0.0857274 12.8493 0.155197C12.7263 0.224667 12.6181 0.317958 12.531 0.429704C12.4439 0.54145 12.3796 0.669447 12.3418 0.806334C12.3039 0.943222 12.2933 1.0863 12.3105 1.22734C12.3277 1.36837 12.3724 1.50459 12.4421 1.62815C12.5117 1.75172 12.6049 1.86019 12.7163 1.94733C12.8277 2.03447 12.955 2.09856 13.0911 2.13591C14.8337 2.63106 16.3721 3.67779 17.4793 5.12155C18.6112 6.5935 19.2226 8.4044 19.2165 10.2666C19.2165 14.9205 15.4557 18.7067 10.8331 18.7067C8.99296 18.7129 7.20277 18.1034 5.74332 16.9738C5.13386 16.5032 4.59112 15.9508 4.13016 15.332L3.52654 15.1968V17.8901C5.51158 19.8196 8.16871 20.887 10.9265 20.8626C13.6843 20.8383 16.3224 19.7241 18.2736 17.7598C20.0804 15.9411 21.1682 13.5216 21.3339 10.9534C21.4995 8.38525 20.7316 5.84416 19.1736 3.80503V3.80494ZM2.81336 19.4255V14.3008L7.93015 15.4467C8.20712 15.5087 8.49719 15.4573 8.73656 15.3038C8.97592 15.1503 9.14497 14.9072 9.20652 14.6281C9.26806 14.349 9.21706 14.0566 9.06473 13.8154C8.9124 13.5742 8.67122 13.4038 8.39425 13.3418L1.97565 11.9043C1.81927 11.8692 1.65708 11.8701 1.50105 11.9067C1.34503 11.9433 1.19916 12.0147 1.0742 12.1157C0.949242 12.2168 0.848393 12.3448 0.779097 12.4903C0.7098 12.6359 0.673825 12.7953 0.673828 12.9567V19.4255C0.673828 19.7114 0.786535 19.9856 0.987156 20.1878C1.18778 20.39 1.45988 20.5036 1.7436 20.5036C2.02732 20.5036 2.29942 20.39 2.50004 20.1878C2.70066 19.9856 2.81336 19.7114 2.81336 19.4255Z" fill="white"/>
</svg>
